M48
INCH,TZ
T1C0.0118
T2C0.0157
T3C0.0280
T4C0.0394
T5C0.0469
%
G90
G05
T1
X52000Y-25000
X61973Y-37188
X66000Y-26000
T2
X49109Y-29119
X49600Y-34800
X49800Y-34100
X49800Y-36300
X50000Y-41600
X50500Y-36300
X51900Y-35800
X52900Y-32000
X53200Y-37800
X53600Y-35700
X54000Y-34800
X54150Y-32950
X54300Y-37200
X54627Y-33773
X54900Y-34437
X55000Y-35700
X55150Y-35100
X55204Y-33794
X55300Y-32800
X56700Y-35300
X57100Y-37000
X57900Y-35400
X58000Y-25000
X58600Y-37100
X59172Y-40728
X59248Y-37248
X59400Y-29300
X59566Y-40734
X59700Y-33800
X60300Y-37600
X62000Y-30800
X63500Y-37200
X63800Y-30100
X64000Y-32000
X64100Y-34500
X64100Y-36200
X64128Y-30318
X64400Y-43000
X66000Y-36000
X67000Y-29600
X67400Y-29885
X67500Y-35400
X67700Y-28400
X68000Y-30063
X68000Y-32000
X72100Y-32300
X74100Y-28600
X74700Y-38800
X74700Y-40600
X76100Y-32100
X77000Y-42100
X77800Y-30100
X79000Y-31000
X79800Y-30000
T3
X52309Y-28819
X52309Y-29819
X52309Y-30819
T4
X45109Y-27019
X45109Y-33019
X46109Y-27019
X46109Y-33019
X47109Y-27019
X47109Y-33019
X48109Y-27019
X48109Y-33019
X49109Y-27019
X49109Y-33019
X50109Y-27019
X50109Y-33019
X56000Y-44000
X56004Y-41919
X57000Y-44000
X57004Y-41919
X58000Y-44000
X58004Y-41919
X59000Y-44000
X59004Y-41919
X60000Y-44000
X60004Y-41919
X61000Y-44000
X61004Y-41919
X62000Y-44000
X62004Y-41919
X63000Y-44000
X63004Y-41919
X65409Y-27419
X66409Y-27419
X67409Y-27419
X68409Y-27419
X69409Y-27419
X70409Y-27419
X73200Y-27400
X74200Y-27400
X75200Y-27400
X76200Y-27400
X77200Y-27400
T5
X54309Y-39211
X55309Y-39211
X58909Y-39211
X59909Y-39211
X63209Y-39219
X64209Y-39219
X69679Y-36081
X69679Y-37081
X69686Y-33281
X69686Y-34281
T4
G00X68516Y-38919
M15
G01X69303Y-38919
M16
G05
G00X68516Y-41281
M15
G01X69303Y-41281
M16
G05
G00X70760Y-40494
M15
G01X70760Y-39706
M16
G05
M30
