G04 #@! TF.GenerationSoftware,KiCad,Pcbnew,7.0.10*
G04 #@! TF.CreationDate,2024-03-26T02:27:44-05:00*
G04 #@! TF.ProjectId,JargonJolt,4a617267-6f6e-44a6-9f6c-742e6b696361,rev?*
G04 #@! TF.SameCoordinates,Original*
G04 #@! TF.FileFunction,Paste,Top*
G04 #@! TF.FilePolarity,Positive*
%FSLAX46Y46*%
G04 Gerber Fmt 4.6, Leading zero omitted, Abs format (unit mm)*
G04 Created by KiCad (PCBNEW 7.0.10) date 2024-03-26 02:27:44*
%MOMM*%
%LPD*%
G01*
G04 APERTURE LIST*
G04 Aperture macros list*
%AMRoundRect*
0 Rectangle with rounded corners*
0 $1 Rounding radius*
0 $2 $3 $4 $5 $6 $7 $8 $9 X,Y pos of 4 corners*
0 Add a 4 corners polygon primitive as box body*
4,1,4,$2,$3,$4,$5,$6,$7,$8,$9,$2,$3,0*
0 Add four circle primitives for the rounded corners*
1,1,$1+$1,$2,$3*
1,1,$1+$1,$4,$5*
1,1,$1+$1,$6,$7*
1,1,$1+$1,$8,$9*
0 Add four rect primitives between the rounded corners*
20,1,$1+$1,$2,$3,$4,$5,0*
20,1,$1+$1,$4,$5,$6,$7,0*
20,1,$1+$1,$6,$7,$8,$9,0*
20,1,$1+$1,$8,$9,$2,$3,0*%
G04 Aperture macros list end*
%ADD10RoundRect,0.250000X-0.450000X0.262500X-0.450000X-0.262500X0.450000X-0.262500X0.450000X0.262500X0*%
%ADD11RoundRect,0.250000X0.475000X-0.250000X0.475000X0.250000X-0.475000X0.250000X-0.475000X-0.250000X0*%
%ADD12RoundRect,0.250001X-0.462499X-0.624999X0.462499X-0.624999X0.462499X0.624999X-0.462499X0.624999X0*%
%ADD13RoundRect,0.250000X0.250000X0.475000X-0.250000X0.475000X-0.250000X-0.475000X0.250000X-0.475000X0*%
%ADD14RoundRect,0.150000X-0.150000X0.587500X-0.150000X-0.587500X0.150000X-0.587500X0.150000X0.587500X0*%
%ADD15R,1.500000X0.900000*%
%ADD16R,0.900000X1.500000*%
%ADD17R,0.900000X0.900000*%
%ADD18RoundRect,0.250000X0.450000X-0.262500X0.450000X0.262500X-0.450000X0.262500X-0.450000X-0.262500X0*%
%ADD19R,1.300000X1.550000*%
%ADD20R,1.500000X2.000000*%
%ADD21R,3.800000X2.000000*%
%ADD22RoundRect,0.250000X-0.475000X0.250000X-0.475000X-0.250000X0.475000X-0.250000X0.475000X0.250000X0*%
%ADD23R,1.100000X0.400000*%
%ADD24RoundRect,0.250000X-0.250000X-0.475000X0.250000X-0.475000X0.250000X0.475000X-0.250000X0.475000X0*%
G04 APERTURE END LIST*
D10*
X155980000Y-99719500D03*
X155980000Y-101544500D03*
D11*
X132334000Y-87612000D03*
X132334000Y-85712000D03*
D10*
X147320000Y-60067558D03*
X147320000Y-61892558D03*
X132080000Y-60047500D03*
X132080000Y-61872500D03*
X195580000Y-73763500D03*
X195580000Y-75588500D03*
D12*
X125512500Y-60960000D03*
X128487500Y-60960000D03*
D11*
X191516000Y-85278000D03*
X191516000Y-83378000D03*
D13*
X138896000Y-71460000D03*
X136996000Y-71460000D03*
D14*
X197546000Y-78056500D03*
X195646000Y-78056500D03*
X196596000Y-79931500D03*
D15*
X142380000Y-74246000D03*
X142380000Y-75516000D03*
X142380000Y-76786000D03*
X142380000Y-78056000D03*
X142380000Y-79326000D03*
X142380000Y-80596000D03*
X142380000Y-81866000D03*
X142380000Y-83136000D03*
X142380000Y-84406000D03*
X142380000Y-85676000D03*
X142380000Y-86946000D03*
X142380000Y-88216000D03*
X142380000Y-89486000D03*
X142380000Y-90756000D03*
D16*
X144145000Y-92006000D03*
X145415000Y-92006000D03*
X146685000Y-92006000D03*
X147955000Y-92006000D03*
X149225000Y-92006000D03*
X150495000Y-92006000D03*
X151765000Y-92006000D03*
X153035000Y-92006000D03*
X154305000Y-92006000D03*
X155575000Y-92006000D03*
X156845000Y-92006000D03*
X158115000Y-92006000D03*
D15*
X159880000Y-90756000D03*
X159880000Y-89486000D03*
X159880000Y-88216000D03*
X159880000Y-86946000D03*
X159880000Y-85676000D03*
X159880000Y-84406000D03*
X159880000Y-83136000D03*
X159880000Y-81866000D03*
X159880000Y-80596000D03*
X159880000Y-79326000D03*
X159880000Y-78056000D03*
X159880000Y-76786000D03*
X159880000Y-75516000D03*
X159880000Y-74246000D03*
D17*
X148230000Y-80566000D03*
X148230000Y-81966000D03*
X148230000Y-83366000D03*
X148230000Y-83366000D03*
X149630000Y-80566000D03*
X149630000Y-80566000D03*
X149630000Y-81966000D03*
X149630000Y-83366000D03*
X151030000Y-80566000D03*
X151030000Y-81966000D03*
X151030000Y-83366000D03*
D10*
X186944000Y-74017500D03*
X186944000Y-75842500D03*
D18*
X187960000Y-61872500D03*
X187960000Y-60047500D03*
D10*
X200152000Y-83161500D03*
X200152000Y-84986500D03*
D19*
X201132000Y-88735000D03*
X201132000Y-96685000D03*
X196632000Y-88735000D03*
X196632000Y-96685000D03*
D10*
X175260000Y-60047500D03*
X175260000Y-61872500D03*
D20*
X165813500Y-87938000D03*
X168113500Y-87938000D03*
D21*
X168113500Y-81638000D03*
D20*
X170413500Y-87938000D03*
D18*
X196596000Y-84986500D03*
X196596000Y-83161500D03*
D19*
X192496000Y-88481000D03*
X192496000Y-96431000D03*
X187996000Y-88481000D03*
X187996000Y-96431000D03*
D22*
X133096000Y-96586000D03*
X133096000Y-98486000D03*
D12*
X155992500Y-60960000D03*
X158967500Y-60960000D03*
D22*
X139724000Y-92316000D03*
X139724000Y-94216000D03*
D11*
X202692000Y-85024000D03*
X202692000Y-83124000D03*
D10*
X167156000Y-95147500D03*
X167156000Y-96972500D03*
D18*
X187960000Y-85240500D03*
X187960000Y-83415500D03*
D14*
X188976000Y-78232000D03*
X187076000Y-78232000D03*
X188026000Y-80107000D03*
D10*
X167156000Y-99719500D03*
X167156000Y-101544500D03*
D18*
X185166000Y-90320500D03*
X185166000Y-88495500D03*
D10*
X144526000Y-99719500D03*
X144526000Y-101544500D03*
D12*
X179905000Y-60960000D03*
X182880000Y-60960000D03*
D10*
X185166000Y-93067500D03*
X185166000Y-94892500D03*
D23*
X129676000Y-91529000D03*
X129676000Y-92179000D03*
X129676000Y-92829000D03*
X129676000Y-93479000D03*
X133976000Y-93479000D03*
X133976000Y-92829000D03*
X133976000Y-92179000D03*
X133976000Y-91529000D03*
D12*
X143727500Y-60960000D03*
X140752500Y-60960000D03*
D24*
X168113500Y-78692000D03*
X170013500Y-78692000D03*
D13*
X138896000Y-74470000D03*
X136996000Y-74470000D03*
D10*
X135128000Y-85701500D03*
X135128000Y-87526500D03*
X162560000Y-60047500D03*
X162560000Y-61872500D03*
D24*
X177069500Y-81232000D03*
X178969500Y-81232000D03*
D12*
X168692500Y-60960000D03*
X171667500Y-60960000D03*
D10*
X155980000Y-95401500D03*
X155980000Y-97226500D03*
X144526000Y-95655500D03*
X144526000Y-97480500D03*
M02*
