G04 #@! TF.GenerationSoftware,KiCad,Pcbnew,7.0.10*
G04 #@! TF.CreationDate,2024-03-26T02:27:44-05:00*
G04 #@! TF.ProjectId,JargonJolt,4a617267-6f6e-44a6-9f6c-742e6b696361,rev?*
G04 #@! TF.SameCoordinates,Original*
G04 #@! TF.FileFunction,Soldermask,Top*
G04 #@! TF.FilePolarity,Negative*
%FSLAX46Y46*%
G04 Gerber Fmt 4.6, Leading zero omitted, Abs format (unit mm)*
G04 Created by KiCad (PCBNEW 7.0.10) date 2024-03-26 02:27:44*
%MOMM*%
%LPD*%
G01*
G04 APERTURE LIST*
G04 Aperture macros list*
%AMRoundRect*
0 Rectangle with rounded corners*
0 $1 Rounding radius*
0 $2 $3 $4 $5 $6 $7 $8 $9 X,Y pos of 4 corners*
0 Add a 4 corners polygon primitive as box body*
4,1,4,$2,$3,$4,$5,$6,$7,$8,$9,$2,$3,0*
0 Add four circle primitives for the rounded corners*
1,1,$1+$1,$2,$3*
1,1,$1+$1,$4,$5*
1,1,$1+$1,$6,$7*
1,1,$1+$1,$8,$9*
0 Add four rect primitives between the rounded corners*
20,1,$1+$1,$2,$3,$4,$5,0*
20,1,$1+$1,$4,$5,$6,$7,0*
20,1,$1+$1,$6,$7,$8,$9,0*
20,1,$1+$1,$8,$9,$2,$3,0*%
%AMFreePoly0*
4,1,19,0.550000,-0.750000,0.000000,-0.750000,0.000000,-0.744911,-0.071157,-0.744911,-0.207708,-0.704816,-0.327430,-0.627875,-0.420627,-0.520320,-0.479746,-0.390866,-0.500000,-0.250000,-0.500000,0.250000,-0.479746,0.390866,-0.420627,0.520320,-0.327430,0.627875,-0.207708,0.704816,-0.071157,0.744911,0.000000,0.744911,0.000000,0.750000,0.550000,0.750000,0.550000,-0.750000,0.550000,-0.750000,
$1*%
%AMFreePoly1*
4,1,19,0.000000,0.744911,0.071157,0.744911,0.207708,0.704816,0.327430,0.627875,0.420627,0.520320,0.479746,0.390866,0.500000,0.250000,0.500000,-0.250000,0.479746,-0.390866,0.420627,-0.520320,0.327430,-0.627875,0.207708,-0.704816,0.071157,-0.744911,0.000000,-0.744911,0.000000,-0.750000,-0.550000,-0.750000,-0.550000,0.750000,0.000000,0.750000,0.000000,0.744911,0.000000,0.744911,
$1*%
G04 Aperture macros list end*
%ADD10C,1.500000*%
%ADD11RoundRect,0.250000X-0.450000X0.262500X-0.450000X-0.262500X0.450000X-0.262500X0.450000X0.262500X0*%
%ADD12C,2.200000*%
%ADD13RoundRect,0.250000X0.475000X-0.250000X0.475000X0.250000X-0.475000X0.250000X-0.475000X-0.250000X0*%
%ADD14FreePoly0,270.000000*%
%ADD15R,1.500000X1.000000*%
%ADD16FreePoly1,270.000000*%
%ADD17R,1.700000X1.700000*%
%ADD18O,1.700000X1.700000*%
%ADD19R,3.500000X3.500000*%
%ADD20RoundRect,0.750000X1.000000X-0.750000X1.000000X0.750000X-1.000000X0.750000X-1.000000X-0.750000X0*%
%ADD21RoundRect,0.875000X0.875000X-0.875000X0.875000X0.875000X-0.875000X0.875000X-0.875000X-0.875000X0*%
%ADD22RoundRect,0.250001X-0.462499X-0.624999X0.462499X-0.624999X0.462499X0.624999X-0.462499X0.624999X0*%
%ADD23RoundRect,0.250000X0.250000X0.475000X-0.250000X0.475000X-0.250000X-0.475000X0.250000X-0.475000X0*%
%ADD24RoundRect,0.150000X-0.150000X0.587500X-0.150000X-0.587500X0.150000X-0.587500X0.150000X0.587500X0*%
%ADD25R,1.500000X0.900000*%
%ADD26R,0.900000X1.500000*%
%ADD27R,0.900000X0.900000*%
%ADD28RoundRect,0.250000X0.450000X-0.262500X0.450000X0.262500X-0.450000X0.262500X-0.450000X-0.262500X0*%
%ADD29R,1.300000X1.550000*%
%ADD30R,1.500000X2.000000*%
%ADD31R,3.800000X2.000000*%
%ADD32RoundRect,0.250000X0.620000X0.845000X-0.620000X0.845000X-0.620000X-0.845000X0.620000X-0.845000X0*%
%ADD33O,1.740000X2.190000*%
%ADD34RoundRect,0.250000X-0.475000X0.250000X-0.475000X-0.250000X0.475000X-0.250000X0.475000X0.250000X0*%
%ADD35RoundRect,0.250000X-0.845000X0.620000X-0.845000X-0.620000X0.845000X-0.620000X0.845000X0.620000X0*%
%ADD36O,2.190000X1.740000*%
%ADD37R,1.100000X0.400000*%
%ADD38RoundRect,0.250000X-0.250000X-0.475000X0.250000X-0.475000X0.250000X0.475000X-0.250000X0.475000X0*%
%ADD39RoundRect,0.102000X0.609000X-0.609000X0.609000X0.609000X-0.609000X0.609000X-0.609000X-0.609000X0*%
%ADD40C,1.422000*%
G04 APERTURE END LIST*
D10*
X121158000Y-88406000D03*
D11*
X155980000Y-99719500D03*
X155980000Y-101544500D03*
D12*
X115824000Y-110490000D03*
D10*
X129540000Y-89408000D03*
X117108000Y-92456000D03*
X165608000Y-106426000D03*
D13*
X132334000Y-87612000D03*
X132334000Y-85712000D03*
D10*
X122428000Y-103632000D03*
D14*
X170399500Y-91616000D03*
D15*
X170399500Y-92916000D03*
D16*
X170399500Y-94216000D03*
D10*
X117094000Y-103378000D03*
D17*
X127278000Y-83868000D03*
D18*
X124738000Y-83868000D03*
X122198000Y-83868000D03*
X119658000Y-83868000D03*
X117118000Y-83868000D03*
X114578000Y-83868000D03*
D12*
X115824000Y-60960000D03*
D14*
X137668000Y-79218000D03*
D15*
X137668000Y-80518000D03*
D16*
X137668000Y-81818000D03*
D11*
X147320000Y-60067558D03*
X147320000Y-61892558D03*
D10*
X173228000Y-73406000D03*
D11*
X132080000Y-60047500D03*
X132080000Y-61872500D03*
X195580000Y-73763500D03*
X195580000Y-75588500D03*
D19*
X175030000Y-98854000D03*
D20*
X175030000Y-104854000D03*
D21*
X179730000Y-101854000D03*
D22*
X125512500Y-60960000D03*
X128487500Y-60960000D03*
D13*
X191516000Y-85278000D03*
X191516000Y-83378000D03*
D10*
X142240000Y-94488000D03*
D23*
X138896000Y-71460000D03*
X136996000Y-71460000D03*
D12*
X204216000Y-60960000D03*
D10*
X185420000Y-105918000D03*
D24*
X197546000Y-78056500D03*
X195646000Y-78056500D03*
X196596000Y-79931500D03*
D25*
X142380000Y-74246000D03*
X142380000Y-75516000D03*
X142380000Y-76786000D03*
X142380000Y-78056000D03*
X142380000Y-79326000D03*
X142380000Y-80596000D03*
X142380000Y-81866000D03*
X142380000Y-83136000D03*
X142380000Y-84406000D03*
X142380000Y-85676000D03*
X142380000Y-86946000D03*
X142380000Y-88216000D03*
X142380000Y-89486000D03*
X142380000Y-90756000D03*
D26*
X144145000Y-92006000D03*
X145415000Y-92006000D03*
X146685000Y-92006000D03*
X147955000Y-92006000D03*
X149225000Y-92006000D03*
X150495000Y-92006000D03*
X151765000Y-92006000D03*
X153035000Y-92006000D03*
X154305000Y-92006000D03*
X155575000Y-92006000D03*
X156845000Y-92006000D03*
X158115000Y-92006000D03*
D25*
X159880000Y-90756000D03*
X159880000Y-89486000D03*
X159880000Y-88216000D03*
X159880000Y-86946000D03*
X159880000Y-85676000D03*
X159880000Y-84406000D03*
X159880000Y-83136000D03*
X159880000Y-81866000D03*
X159880000Y-80596000D03*
X159880000Y-79326000D03*
X159880000Y-78056000D03*
X159880000Y-76786000D03*
X159880000Y-75516000D03*
X159880000Y-74246000D03*
D27*
X148230000Y-80566000D03*
X148230000Y-81966000D03*
X148230000Y-83366000D03*
X148230000Y-83366000D03*
X149630000Y-80566000D03*
X149630000Y-80566000D03*
X149630000Y-81966000D03*
X149630000Y-83366000D03*
X151030000Y-80566000D03*
X151030000Y-81966000D03*
X151030000Y-83366000D03*
D17*
X166140000Y-69644000D03*
D18*
X168680000Y-69644000D03*
X171220000Y-69644000D03*
X173760000Y-69644000D03*
X176300000Y-69644000D03*
X178840000Y-69644000D03*
D11*
X186944000Y-74017500D03*
X186944000Y-75842500D03*
D28*
X187960000Y-61872500D03*
X187960000Y-60047500D03*
D11*
X200152000Y-83161500D03*
X200152000Y-84986500D03*
D29*
X201132000Y-88735000D03*
X201132000Y-96685000D03*
X196632000Y-88735000D03*
X196632000Y-96685000D03*
D11*
X175260000Y-60047500D03*
X175260000Y-61872500D03*
D30*
X165813500Y-87938000D03*
X168113500Y-87938000D03*
D31*
X168113500Y-81638000D03*
D30*
X170413500Y-87938000D03*
D28*
X196596000Y-84986500D03*
X196596000Y-83161500D03*
D29*
X192496000Y-88481000D03*
X192496000Y-96431000D03*
X187996000Y-88481000D03*
X187996000Y-96431000D03*
D32*
X152170000Y-99596000D03*
D33*
X149630000Y-99596000D03*
D34*
X133096000Y-96586000D03*
X133096000Y-98486000D03*
D22*
X155992500Y-60960000D03*
X158967500Y-60960000D03*
D10*
X176784000Y-73406000D03*
D34*
X139724000Y-92316000D03*
X139724000Y-94216000D03*
D17*
X127278000Y-68628000D03*
D18*
X124738000Y-68628000D03*
X122198000Y-68628000D03*
X119658000Y-68628000D03*
X117118000Y-68628000D03*
X114578000Y-68628000D03*
D13*
X202692000Y-85024000D03*
X202692000Y-83124000D03*
D11*
X167156000Y-95147500D03*
X167156000Y-96972500D03*
D17*
X160020000Y-111760000D03*
D18*
X157480000Y-111760000D03*
X154940000Y-111760000D03*
X152400000Y-111760000D03*
X149860000Y-111760000D03*
X147320000Y-111760000D03*
X144780000Y-111760000D03*
X142240000Y-111760000D03*
D28*
X187960000Y-85240500D03*
X187960000Y-83415500D03*
D24*
X188976000Y-78232000D03*
X187076000Y-78232000D03*
X188026000Y-80107000D03*
D17*
X196088000Y-69596000D03*
D18*
X193548000Y-69596000D03*
X191008000Y-69596000D03*
X188468000Y-69596000D03*
X185928000Y-69596000D03*
D11*
X167156000Y-99719500D03*
X167156000Y-101544500D03*
D28*
X185166000Y-90320500D03*
X185166000Y-88495500D03*
D11*
X144526000Y-99719500D03*
X144526000Y-101544500D03*
D32*
X163092000Y-99616000D03*
D33*
X160552000Y-99616000D03*
D10*
X121920000Y-73914000D03*
D12*
X204216000Y-110490000D03*
D32*
X140486000Y-99596000D03*
D33*
X137946000Y-99596000D03*
D10*
X185420000Y-101854000D03*
D22*
X179905000Y-60960000D03*
X182880000Y-60960000D03*
D11*
X185166000Y-93067500D03*
X185166000Y-94892500D03*
D10*
X121158000Y-92456000D03*
D35*
X177003500Y-84534000D03*
D36*
X177003500Y-87074000D03*
D37*
X129676000Y-91529000D03*
X129676000Y-92179000D03*
X129676000Y-92829000D03*
X129676000Y-93479000D03*
X133976000Y-93479000D03*
X133976000Y-92829000D03*
X133976000Y-92179000D03*
X133976000Y-91529000D03*
D10*
X117094000Y-99328000D03*
D35*
X176983500Y-91646000D03*
D36*
X176983500Y-94186000D03*
D22*
X143727500Y-60960000D03*
X140752500Y-60960000D03*
D38*
X168113500Y-78692000D03*
X170013500Y-78692000D03*
D10*
X122428000Y-99300000D03*
D17*
X160029000Y-106474000D03*
D18*
X157489000Y-106474000D03*
X154949000Y-106474000D03*
X152409000Y-106474000D03*
X149869000Y-106474000D03*
X147329000Y-106474000D03*
X144789000Y-106474000D03*
X142249000Y-106474000D03*
D23*
X138896000Y-74470000D03*
X136996000Y-74470000D03*
D11*
X135128000Y-85701500D03*
X135128000Y-87526500D03*
X162560000Y-60047500D03*
X162560000Y-61872500D03*
D39*
X132866000Y-78280000D03*
D40*
X132866000Y-75740000D03*
X132866000Y-73200000D03*
D38*
X177069500Y-81232000D03*
X178969500Y-81232000D03*
D22*
X168692500Y-60960000D03*
X171667500Y-60960000D03*
D11*
X155980000Y-95401500D03*
X155980000Y-97226500D03*
D10*
X129794000Y-97028000D03*
D11*
X144526000Y-95655500D03*
X144526000Y-97480500D03*
M02*
