G04 #@! TF.GenerationSoftware,KiCad,Pcbnew,7.0.10*
G04 #@! TF.CreationDate,2024-03-04T21:29:39-06:00*
G04 #@! TF.ProjectId,JargonJolt,4a617267-6f6e-44a6-9f6c-742e6b696361,rev?*
G04 #@! TF.SameCoordinates,Original*
G04 #@! TF.FileFunction,Copper,L2,Bot*
G04 #@! TF.FilePolarity,Positive*
%FSLAX46Y46*%
G04 Gerber Fmt 4.6, Leading zero omitted, Abs format (unit mm)*
G04 Created by KiCad (PCBNEW 7.0.10) date 2024-03-04 21:29:39*
%MOMM*%
%LPD*%
G01*
G04 APERTURE LIST*
G04 Aperture macros list*
%AMRoundRect*
0 Rectangle with rounded corners*
0 $1 Rounding radius*
0 $2 $3 $4 $5 $6 $7 $8 $9 X,Y pos of 4 corners*
0 Add a 4 corners polygon primitive as box body*
4,1,4,$2,$3,$4,$5,$6,$7,$8,$9,$2,$3,0*
0 Add four circle primitives for the rounded corners*
1,1,$1+$1,$2,$3*
1,1,$1+$1,$4,$5*
1,1,$1+$1,$6,$7*
1,1,$1+$1,$8,$9*
0 Add four rect primitives between the rounded corners*
20,1,$1+$1,$2,$3,$4,$5,0*
20,1,$1+$1,$4,$5,$6,$7,0*
20,1,$1+$1,$6,$7,$8,$9,0*
20,1,$1+$1,$8,$9,$2,$3,0*%
G04 Aperture macros list end*
G04 #@! TA.AperFunction,ComponentPad*
%ADD10R,1.700000X1.700000*%
G04 #@! TD*
G04 #@! TA.AperFunction,ComponentPad*
%ADD11O,1.700000X1.700000*%
G04 #@! TD*
G04 #@! TA.AperFunction,ComponentPad*
%ADD12R,3.500000X3.500000*%
G04 #@! TD*
G04 #@! TA.AperFunction,ComponentPad*
%ADD13RoundRect,0.750000X1.000000X-0.750000X1.000000X0.750000X-1.000000X0.750000X-1.000000X-0.750000X0*%
G04 #@! TD*
G04 #@! TA.AperFunction,ComponentPad*
%ADD14RoundRect,0.875000X0.875000X-0.875000X0.875000X0.875000X-0.875000X0.875000X-0.875000X-0.875000X0*%
G04 #@! TD*
G04 #@! TA.AperFunction,ComponentPad*
%ADD15RoundRect,0.250000X0.620000X0.845000X-0.620000X0.845000X-0.620000X-0.845000X0.620000X-0.845000X0*%
G04 #@! TD*
G04 #@! TA.AperFunction,ComponentPad*
%ADD16O,1.740000X2.190000*%
G04 #@! TD*
G04 #@! TA.AperFunction,ComponentPad*
%ADD17RoundRect,0.250000X-0.845000X0.620000X-0.845000X-0.620000X0.845000X-0.620000X0.845000X0.620000X0*%
G04 #@! TD*
G04 #@! TA.AperFunction,ComponentPad*
%ADD18O,2.190000X1.740000*%
G04 #@! TD*
G04 #@! TA.AperFunction,ComponentPad*
%ADD19R,1.218000X1.218000*%
G04 #@! TD*
G04 #@! TA.AperFunction,ComponentPad*
%ADD20C,1.218000*%
G04 #@! TD*
G04 #@! TA.AperFunction,ViaPad*
%ADD21C,0.800000*%
G04 #@! TD*
G04 #@! TA.AperFunction,Conductor*
%ADD22C,0.400000*%
G04 #@! TD*
G04 #@! TA.AperFunction,Conductor*
%ADD23C,0.250000*%
G04 #@! TD*
G04 APERTURE END LIST*
D10*
X127278000Y-83868000D03*
D11*
X124738000Y-83868000D03*
X122198000Y-83868000D03*
X119658000Y-83868000D03*
X117118000Y-83868000D03*
X114578000Y-83868000D03*
D12*
X175030000Y-98854000D03*
D13*
X175030000Y-104854000D03*
D14*
X179730000Y-101854000D03*
D10*
X166140000Y-69644000D03*
D11*
X168680000Y-69644000D03*
X171220000Y-69644000D03*
X173760000Y-69644000D03*
X176300000Y-69644000D03*
X178840000Y-69644000D03*
D15*
X152170000Y-99596000D03*
D16*
X149630000Y-99596000D03*
D10*
X127278000Y-68628000D03*
D11*
X124738000Y-68628000D03*
X122198000Y-68628000D03*
X119658000Y-68628000D03*
X117118000Y-68628000D03*
X114578000Y-68628000D03*
D10*
X160020000Y-111760000D03*
D11*
X157480000Y-111760000D03*
X154940000Y-111760000D03*
X152400000Y-111760000D03*
X149860000Y-111760000D03*
X147320000Y-111760000D03*
X144780000Y-111760000D03*
X142240000Y-111760000D03*
D10*
X196088000Y-69596000D03*
D11*
X193548000Y-69596000D03*
X191008000Y-69596000D03*
X188468000Y-69596000D03*
X185928000Y-69596000D03*
D15*
X163092000Y-99616000D03*
D16*
X160552000Y-99616000D03*
D15*
X140486000Y-99596000D03*
D16*
X137946000Y-99596000D03*
D17*
X177003500Y-84534000D03*
D18*
X177003500Y-87074000D03*
D17*
X176983500Y-91646000D03*
D18*
X176983500Y-94186000D03*
D10*
X160029000Y-106474000D03*
D11*
X157489000Y-106474000D03*
X154949000Y-106474000D03*
X152409000Y-106474000D03*
X149869000Y-106474000D03*
X147329000Y-106474000D03*
X144789000Y-106474000D03*
X142249000Y-106474000D03*
D19*
X132866000Y-78280000D03*
D20*
X132866000Y-75740000D03*
X132866000Y-73200000D03*
D21*
X183134000Y-82042000D03*
X151638000Y-85852000D03*
X195580000Y-106934000D03*
X127000000Y-105664000D03*
X161290000Y-94488000D03*
X148844000Y-94234000D03*
X150876000Y-74422000D03*
X134366000Y-81280000D03*
X162814000Y-87630000D03*
X202692000Y-76200000D03*
X193294000Y-81534000D03*
X157480000Y-78232000D03*
X189738000Y-103124000D03*
X189738000Y-98552000D03*
X197612000Y-76454000D03*
X188214000Y-72644000D03*
X144018000Y-89662000D03*
X139446000Y-87471000D03*
X171450000Y-89916000D03*
X147066000Y-89916000D03*
X137160000Y-88392000D03*
X126492000Y-86614000D03*
X137922000Y-94488000D03*
X145034000Y-93980000D03*
X125984000Y-88392000D03*
X128270000Y-92202000D03*
X131826000Y-90932000D03*
X139700000Y-90678000D03*
X126492000Y-92202000D03*
X140218236Y-85837111D03*
X138751455Y-85784545D03*
X124738000Y-73962000D03*
X140081000Y-89154000D03*
X163576000Y-109220000D03*
X150297851Y-103448149D03*
X151297732Y-103463731D03*
X171196000Y-75909000D03*
X162884052Y-77008701D03*
X162052000Y-76454000D03*
X170180000Y-75184000D03*
X171958000Y-72136000D03*
X137541000Y-83693000D03*
X140462000Y-83312000D03*
X136144000Y-90678000D03*
X162814000Y-91948000D03*
X153162000Y-95504000D03*
X135128000Y-96012000D03*
D22*
X160552000Y-99616000D02*
X159077000Y-101091000D01*
X159077000Y-101091000D02*
X151125000Y-101091000D01*
X146562000Y-102664000D02*
X140486000Y-102664000D01*
X151125000Y-101091000D02*
X149630000Y-99596000D01*
X124738000Y-92226000D02*
X124738000Y-83868000D01*
X150622000Y-78280000D02*
X132866000Y-78280000D01*
X175508500Y-86029000D02*
X175508500Y-88905500D01*
X177003500Y-84534000D02*
X177003500Y-84063500D01*
X167894000Y-96520000D02*
X163648000Y-96520000D01*
X149630000Y-99596000D02*
X146562000Y-102664000D01*
X158496000Y-74168000D02*
X154384000Y-78280000D01*
X160528000Y-74168000D02*
X158496000Y-74168000D01*
X137946000Y-100124000D02*
X137946000Y-99596000D01*
X177003500Y-84534000D02*
X175508500Y-86029000D01*
X154480000Y-78280000D02*
X150622000Y-78280000D01*
X140486000Y-102664000D02*
X137946000Y-100124000D01*
X154384000Y-78280000D02*
X150622000Y-78280000D01*
X160734000Y-84534000D02*
X154480000Y-78280000D01*
X132108000Y-99596000D02*
X124738000Y-92226000D01*
X166140000Y-69644000D02*
X165052000Y-69644000D01*
X175508500Y-88905500D02*
X167894000Y-96520000D01*
X149630000Y-99596000D02*
X149396000Y-99596000D01*
X124738000Y-83868000D02*
X124738000Y-78788000D01*
X165052000Y-69644000D02*
X160528000Y-74168000D01*
X163648000Y-96520000D02*
X160552000Y-99616000D01*
X124738000Y-78788000D02*
X114578000Y-68628000D01*
X177003500Y-84534000D02*
X160734000Y-84534000D01*
X137946000Y-99596000D02*
X132108000Y-99596000D01*
D23*
X189992000Y-78232000D02*
X193294000Y-81534000D01*
X157480000Y-78232000D02*
X189992000Y-78232000D01*
X189738000Y-103124000D02*
X189738000Y-98552000D01*
X194564000Y-77978000D02*
X189230000Y-72644000D01*
X197612000Y-76454000D02*
X196088000Y-77978000D01*
X196088000Y-77978000D02*
X194564000Y-77978000D01*
X189230000Y-72644000D02*
X188214000Y-72644000D01*
X139446000Y-87471000D02*
X141827000Y-87471000D01*
X141827000Y-87471000D02*
X144018000Y-89662000D01*
X171450000Y-89916000D02*
X147066000Y-89916000D01*
X128270000Y-88392000D02*
X126492000Y-86614000D01*
X137160000Y-88392000D02*
X128270000Y-88392000D01*
X138430000Y-93980000D02*
X137922000Y-94488000D01*
X145034000Y-93980000D02*
X138430000Y-93980000D01*
X132080000Y-94488000D02*
X137922000Y-94488000D01*
X125984000Y-88392000D02*
X132080000Y-94488000D01*
X134620000Y-89408000D02*
X138430000Y-89408000D01*
X133350000Y-90678000D02*
X134620000Y-89408000D01*
X132080000Y-90678000D02*
X133350000Y-90678000D01*
X131826000Y-90932000D02*
X132080000Y-90678000D01*
X126492000Y-92202000D02*
X128270000Y-92202000D01*
X138430000Y-89408000D02*
X139700000Y-90678000D01*
X139991000Y-86577000D02*
X137251396Y-86577000D01*
X125463000Y-73661695D02*
X120429305Y-68628000D01*
X140218236Y-85837111D02*
X140218236Y-86349764D01*
X125463000Y-74788604D02*
X125463000Y-73661695D01*
X120429305Y-68628000D02*
X119658000Y-68628000D01*
X137251396Y-86577000D02*
X125463000Y-74788604D01*
X140218236Y-86349764D02*
X139991000Y-86577000D01*
X138684000Y-85852000D02*
X137162792Y-85852000D01*
X122198000Y-69760299D02*
X122198000Y-68628000D01*
X138751455Y-85784545D02*
X138684000Y-85852000D01*
X125913000Y-73475299D02*
X122198000Y-69760299D01*
X137162792Y-85852000D02*
X125913000Y-74602208D01*
X125913000Y-74602208D02*
X125913000Y-73475299D01*
X140081000Y-89154000D02*
X139192000Y-89154000D01*
X139192000Y-89154000D02*
X124738000Y-74700000D01*
X124738000Y-74700000D02*
X124738000Y-73962000D01*
X154949000Y-106474000D02*
X154949000Y-108213000D01*
X154949000Y-108213000D02*
X155448000Y-108712000D01*
X155448000Y-108712000D02*
X155956000Y-109220000D01*
X155956000Y-109220000D02*
X163576000Y-109220000D01*
X150297851Y-106045149D02*
X149869000Y-106474000D01*
X150297851Y-103448149D02*
X150297851Y-106045149D01*
X153584000Y-105749999D02*
X151297732Y-103463731D01*
X149860000Y-111760000D02*
X149860000Y-110816000D01*
X149860000Y-110816000D02*
X153584000Y-107092000D01*
X153584000Y-107092000D02*
X153584000Y-105749999D01*
X169879695Y-75909000D02*
X169662695Y-75692000D01*
X171196000Y-75909000D02*
X169879695Y-75909000D01*
X163704396Y-75692000D02*
X162884052Y-76512344D01*
X169662695Y-75692000D02*
X163704396Y-75692000D01*
X162884052Y-76512344D02*
X162884052Y-77008701D01*
X162052000Y-76454000D02*
X162306000Y-76454000D01*
X162306000Y-76454000D02*
X163576000Y-75184000D01*
X163576000Y-75184000D02*
X170180000Y-75184000D01*
X171220000Y-71398000D02*
X171220000Y-69644000D01*
X171958000Y-72136000D02*
X171220000Y-71398000D01*
X137541000Y-83693000D02*
X140081000Y-83693000D01*
X140081000Y-83693000D02*
X140462000Y-83312000D01*
X137668000Y-91948000D02*
X162814000Y-91948000D01*
X136398000Y-90678000D02*
X137668000Y-91948000D01*
X136144000Y-90678000D02*
X136398000Y-90678000D01*
X152908000Y-95758000D02*
X153162000Y-95504000D01*
X135128000Y-96012000D02*
X135382000Y-95758000D01*
X135382000Y-95758000D02*
X152908000Y-95758000D01*
G04 #@! TA.AperFunction,Conductor*
G36*
X207922539Y-66360185D02*
G01*
X207968294Y-66412989D01*
X207979500Y-66464500D01*
X207979500Y-114129500D01*
X207959815Y-114196539D01*
X207907011Y-114242294D01*
X207855500Y-114253500D01*
X112184500Y-114253500D01*
X112117461Y-114233815D01*
X112071706Y-114181011D01*
X112060500Y-114129500D01*
X112060500Y-110430346D01*
X114419702Y-110430346D01*
X114429819Y-110668528D01*
X114429819Y-110668532D01*
X114480045Y-110901580D01*
X114568935Y-111122788D01*
X114568936Y-111122790D01*
X114693931Y-111325795D01*
X114851436Y-111504755D01*
X115036920Y-111654523D01*
X115245046Y-111770790D01*
X115370951Y-111815275D01*
X115469829Y-111850211D01*
X115704790Y-111890499D01*
X115704798Y-111890499D01*
X115704800Y-111890500D01*
X115704801Y-111890500D01*
X115883496Y-111890500D01*
X115883497Y-111890500D01*
X115883498Y-111890499D01*
X115883515Y-111890499D01*
X116061536Y-111875347D01*
X116061539Y-111875346D01*
X116061541Y-111875346D01*
X116292249Y-111815275D01*
X116414529Y-111760000D01*
X141184417Y-111760000D01*
X141204699Y-111965932D01*
X141204700Y-111965934D01*
X141264768Y-112163954D01*
X141362315Y-112346450D01*
X141362317Y-112346452D01*
X141493589Y-112506410D01*
X141590209Y-112585702D01*
X141653550Y-112637685D01*
X141836046Y-112735232D01*
X142034066Y-112795300D01*
X142034065Y-112795300D01*
X142052529Y-112797118D01*
X142240000Y-112815583D01*
X142445934Y-112795300D01*
X142643954Y-112735232D01*
X142826450Y-112637685D01*
X142986410Y-112506410D01*
X143117685Y-112346450D01*
X143215232Y-112163954D01*
X143275300Y-111965934D01*
X143295583Y-111760000D01*
X143724417Y-111760000D01*
X143744699Y-111965932D01*
X143744700Y-111965934D01*
X143804768Y-112163954D01*
X143902315Y-112346450D01*
X143902317Y-112346452D01*
X144033589Y-112506410D01*
X144130209Y-112585702D01*
X144193550Y-112637685D01*
X144376046Y-112735232D01*
X144574066Y-112795300D01*
X144574065Y-112795300D01*
X144592529Y-112797118D01*
X144780000Y-112815583D01*
X144985934Y-112795300D01*
X145183954Y-112735232D01*
X145366450Y-112637685D01*
X145526410Y-112506410D01*
X145657685Y-112346450D01*
X145755232Y-112163954D01*
X145815300Y-111965934D01*
X145835583Y-111760000D01*
X146264417Y-111760000D01*
X146284699Y-111965932D01*
X146284700Y-111965934D01*
X146344768Y-112163954D01*
X146442315Y-112346450D01*
X146442317Y-112346452D01*
X146573589Y-112506410D01*
X146670209Y-112585702D01*
X146733550Y-112637685D01*
X146916046Y-112735232D01*
X147114066Y-112795300D01*
X147114065Y-112795300D01*
X147132529Y-112797118D01*
X147320000Y-112815583D01*
X147525934Y-112795300D01*
X147723954Y-112735232D01*
X147906450Y-112637685D01*
X148066410Y-112506410D01*
X148197685Y-112346450D01*
X148295232Y-112163954D01*
X148355300Y-111965934D01*
X148375583Y-111760000D01*
X148804417Y-111760000D01*
X148824699Y-111965932D01*
X148824700Y-111965934D01*
X148884768Y-112163954D01*
X148982315Y-112346450D01*
X148982317Y-112346452D01*
X149113589Y-112506410D01*
X149210209Y-112585702D01*
X149273550Y-112637685D01*
X149456046Y-112735232D01*
X149654066Y-112795300D01*
X149654065Y-112795300D01*
X149672529Y-112797118D01*
X149860000Y-112815583D01*
X150065934Y-112795300D01*
X150263954Y-112735232D01*
X150446450Y-112637685D01*
X150606410Y-112506410D01*
X150737685Y-112346450D01*
X150835232Y-112163954D01*
X150895300Y-111965934D01*
X150915583Y-111760000D01*
X151344417Y-111760000D01*
X151364699Y-111965932D01*
X151364700Y-111965934D01*
X151424768Y-112163954D01*
X151522315Y-112346450D01*
X151522317Y-112346452D01*
X151653589Y-112506410D01*
X151750209Y-112585702D01*
X151813550Y-112637685D01*
X151996046Y-112735232D01*
X152194066Y-112795300D01*
X152194065Y-112795300D01*
X152212529Y-112797118D01*
X152400000Y-112815583D01*
X152605934Y-112795300D01*
X152803954Y-112735232D01*
X152986450Y-112637685D01*
X153146410Y-112506410D01*
X153277685Y-112346450D01*
X153375232Y-112163954D01*
X153435300Y-111965934D01*
X153455583Y-111760000D01*
X153884417Y-111760000D01*
X153904699Y-111965932D01*
X153904700Y-111965934D01*
X153964768Y-112163954D01*
X154062315Y-112346450D01*
X154062317Y-112346452D01*
X154193589Y-112506410D01*
X154290209Y-112585702D01*
X154353550Y-112637685D01*
X154536046Y-112735232D01*
X154734066Y-112795300D01*
X154734065Y-112795300D01*
X154752529Y-112797118D01*
X154940000Y-112815583D01*
X155145934Y-112795300D01*
X155343954Y-112735232D01*
X155526450Y-112637685D01*
X155686410Y-112506410D01*
X155817685Y-112346450D01*
X155915232Y-112163954D01*
X155935406Y-112097446D01*
X155973702Y-112039010D01*
X156037514Y-112010553D01*
X156106581Y-112021112D01*
X156158975Y-112067336D01*
X156173841Y-112101349D01*
X156206567Y-112223486D01*
X156206570Y-112223492D01*
X156306399Y-112437578D01*
X156441894Y-112631082D01*
X156608917Y-112798105D01*
X156802421Y-112933600D01*
X157016507Y-113033429D01*
X157016516Y-113033433D01*
X157230000Y-113090634D01*
X157230000Y-112195501D01*
X157337685Y-112244680D01*
X157444237Y-112260000D01*
X157515763Y-112260000D01*
X157622315Y-112244680D01*
X157730000Y-112195501D01*
X157730000Y-113090633D01*
X157943483Y-113033433D01*
X157943492Y-113033429D01*
X158157578Y-112933600D01*
X158351082Y-112798105D01*
X158518105Y-112631082D01*
X158653599Y-112437578D01*
X158733118Y-112267051D01*
X158779290Y-112214612D01*
X158846484Y-112195460D01*
X158913365Y-112215676D01*
X158958699Y-112268841D01*
X158969500Y-112319456D01*
X158969500Y-112629752D01*
X158981131Y-112688229D01*
X158981132Y-112688230D01*
X159025447Y-112754552D01*
X159091769Y-112798867D01*
X159091770Y-112798868D01*
X159150247Y-112810499D01*
X159150250Y-112810500D01*
X159150252Y-112810500D01*
X160889750Y-112810500D01*
X160889751Y-112810499D01*
X160904568Y-112807552D01*
X160948229Y-112798868D01*
X160948229Y-112798867D01*
X160948231Y-112798867D01*
X161014552Y-112754552D01*
X161058867Y-112688231D01*
X161058867Y-112688229D01*
X161058868Y-112688229D01*
X161068922Y-112637682D01*
X161070500Y-112629748D01*
X161070500Y-110890252D01*
X161070500Y-110890249D01*
X161070499Y-110890247D01*
X161058868Y-110831770D01*
X161058867Y-110831769D01*
X161014552Y-110765447D01*
X160948230Y-110721132D01*
X160948229Y-110721131D01*
X160889752Y-110709500D01*
X160889748Y-110709500D01*
X159150252Y-110709500D01*
X159150247Y-110709500D01*
X159091770Y-110721131D01*
X159091769Y-110721132D01*
X159025447Y-110765447D01*
X158981132Y-110831769D01*
X158981131Y-110831770D01*
X158969500Y-110890247D01*
X158969500Y-111200543D01*
X158949815Y-111267582D01*
X158897011Y-111313337D01*
X158827853Y-111323281D01*
X158764297Y-111294256D01*
X158733118Y-111252948D01*
X158653600Y-111082422D01*
X158653599Y-111082420D01*
X158518113Y-110888926D01*
X158518108Y-110888920D01*
X158351082Y-110721894D01*
X158157578Y-110586399D01*
X157943492Y-110486570D01*
X157943486Y-110486567D01*
X157733665Y-110430346D01*
X202811702Y-110430346D01*
X202821819Y-110668528D01*
X202821819Y-110668532D01*
X202872045Y-110901580D01*
X202960935Y-111122788D01*
X202960936Y-111122790D01*
X203085931Y-111325795D01*
X203243436Y-111504755D01*
X203428920Y-111654523D01*
X203637046Y-111770790D01*
X203762951Y-111815275D01*
X203861829Y-111850211D01*
X204096790Y-111890499D01*
X204096798Y-111890499D01*
X204096800Y-111890500D01*
X204096801Y-111890500D01*
X204275496Y-111890500D01*
X204275497Y-111890500D01*
X204275498Y-111890499D01*
X204275515Y-111890499D01*
X204453536Y-111875347D01*
X204453539Y-111875346D01*
X204453541Y-111875346D01*
X204684249Y-111815275D01*
X204816973Y-111755279D01*
X204901480Y-111717080D01*
X204901481Y-111717078D01*
X204901486Y-111717077D01*
X205099003Y-111583579D01*
X205271118Y-111418621D01*
X205412879Y-111226947D01*
X205520207Y-111014074D01*
X205590016Y-110786123D01*
X205620298Y-110549654D01*
X205610180Y-110311468D01*
X205559954Y-110078419D01*
X205471064Y-109857210D01*
X205346069Y-109654205D01*
X205188564Y-109475245D01*
X205003080Y-109325477D01*
X204814271Y-109220001D01*
X204794955Y-109209210D01*
X204570170Y-109129788D01*
X204335209Y-109089500D01*
X204335200Y-109089500D01*
X204156503Y-109089500D01*
X204156484Y-109089500D01*
X203978463Y-109104652D01*
X203747751Y-109164724D01*
X203530519Y-109262919D01*
X203530511Y-109262924D01*
X203333006Y-109396413D01*
X203332997Y-109396421D01*
X203160881Y-109561379D01*
X203019123Y-109753050D01*
X203019120Y-109753054D01*
X202911796Y-109965920D01*
X202911793Y-109965926D01*
X202841983Y-110193878D01*
X202811702Y-110430346D01*
X157733665Y-110430346D01*
X157730000Y-110429364D01*
X157730000Y-111324498D01*
X157622315Y-111275320D01*
X157515763Y-111260000D01*
X157444237Y-111260000D01*
X157337685Y-111275320D01*
X157230000Y-111324498D01*
X157230000Y-110429364D01*
X157229999Y-110429364D01*
X157016513Y-110486567D01*
X157016507Y-110486570D01*
X156802422Y-110586399D01*
X156802420Y-110586400D01*
X156608926Y-110721886D01*
X156608920Y-110721891D01*
X156441891Y-110888920D01*
X156441886Y-110888926D01*
X156306400Y-111082420D01*
X156306399Y-111082422D01*
X156206570Y-111296507D01*
X156206567Y-111296514D01*
X156173841Y-111418650D01*
X156137476Y-111478310D01*
X156074629Y-111508839D01*
X156005253Y-111500544D01*
X155951375Y-111456059D01*
X155935406Y-111422553D01*
X155915232Y-111356046D01*
X155817685Y-111173550D01*
X155742897Y-111082420D01*
X155686410Y-111013589D01*
X155549926Y-110901581D01*
X155526450Y-110882315D01*
X155343954Y-110784768D01*
X155145934Y-110724700D01*
X155145932Y-110724699D01*
X155145934Y-110724699D01*
X154940000Y-110704417D01*
X154734067Y-110724699D01*
X154599736Y-110765448D01*
X154536050Y-110784767D01*
X154536043Y-110784769D01*
X154448114Y-110831769D01*
X154353550Y-110882315D01*
X154353548Y-110882316D01*
X154353547Y-110882317D01*
X154193589Y-111013589D01*
X154103972Y-111122790D01*
X154062315Y-111173550D01*
X154033772Y-111226949D01*
X153964769Y-111356043D01*
X153904699Y-111554067D01*
X153884417Y-111760000D01*
X153455583Y-111760000D01*
X153435300Y-111554066D01*
X153375232Y-111356046D01*
X153277685Y-111173550D01*
X153202897Y-111082420D01*
X153146410Y-111013589D01*
X153009926Y-110901581D01*
X152986450Y-110882315D01*
X152803954Y-110784768D01*
X152605934Y-110724700D01*
X152605932Y-110724699D01*
X152605934Y-110724699D01*
X152400000Y-110704417D01*
X152194067Y-110724699D01*
X152059736Y-110765448D01*
X151996050Y-110784767D01*
X151996043Y-110784769D01*
X151908114Y-110831769D01*
X151813550Y-110882315D01*
X151813548Y-110882316D01*
X151813547Y-110882317D01*
X151653589Y-111013589D01*
X151563972Y-111122790D01*
X151522315Y-111173550D01*
X151493772Y-111226949D01*
X151424769Y-111356043D01*
X151364699Y-111554067D01*
X151344417Y-111760000D01*
X150915583Y-111760000D01*
X150895300Y-111554066D01*
X150835232Y-111356046D01*
X150737685Y-111173550D01*
X150606410Y-111013590D01*
X150606409Y-111013589D01*
X150446511Y-110882364D01*
X150407177Y-110824619D01*
X150405306Y-110754774D01*
X150437493Y-110698832D01*
X153800296Y-107336029D01*
X153808249Y-107328741D01*
X153837194Y-107304455D01*
X153856082Y-107271738D01*
X153861881Y-107262635D01*
X153883554Y-107231684D01*
X153883554Y-107231681D01*
X153885819Y-107226824D01*
X153892747Y-107210099D01*
X153894587Y-107205046D01*
X153894588Y-107205045D01*
X153899988Y-107174416D01*
X153931010Y-107111817D01*
X153990956Y-107075925D01*
X154060791Y-107078139D01*
X154117956Y-107117284D01*
X154189980Y-107205045D01*
X154202590Y-107220410D01*
X154362550Y-107351685D01*
X154545046Y-107449232D01*
X154545051Y-107449233D01*
X154546951Y-107450021D01*
X154547796Y-107450701D01*
X154550419Y-107452104D01*
X154550153Y-107452601D01*
X154601355Y-107493862D01*
X154623421Y-107560156D01*
X154623500Y-107564583D01*
X154623500Y-108193372D01*
X154623028Y-108204181D01*
X154619735Y-108241808D01*
X154629512Y-108278298D01*
X154631852Y-108288852D01*
X154638411Y-108326042D01*
X154640235Y-108331055D01*
X154647197Y-108347861D01*
X154649446Y-108352684D01*
X154671104Y-108383616D01*
X154676914Y-108392734D01*
X154695806Y-108425455D01*
X154724743Y-108449736D01*
X154732718Y-108457044D01*
X155197702Y-108922028D01*
X155711955Y-109436282D01*
X155719262Y-109444256D01*
X155743542Y-109473190D01*
X155743545Y-109473194D01*
X155776261Y-109492082D01*
X155785366Y-109497882D01*
X155816316Y-109519553D01*
X155816318Y-109519553D01*
X155816319Y-109519554D01*
X155821168Y-109521815D01*
X155837947Y-109528765D01*
X155842952Y-109530587D01*
X155842953Y-109530587D01*
X155842955Y-109530588D01*
X155880162Y-109537148D01*
X155890701Y-109539484D01*
X155927193Y-109549263D01*
X155964811Y-109545971D01*
X155975618Y-109545500D01*
X163007701Y-109545500D01*
X163074740Y-109565185D01*
X163106076Y-109594013D01*
X163147718Y-109648282D01*
X163273159Y-109744536D01*
X163419238Y-109805044D01*
X163497619Y-109815363D01*
X163575999Y-109825682D01*
X163576000Y-109825682D01*
X163576001Y-109825682D01*
X163628254Y-109818802D01*
X163732762Y-109805044D01*
X163878841Y-109744536D01*
X164004282Y-109648282D01*
X164100536Y-109522841D01*
X164161044Y-109376762D01*
X164181682Y-109220000D01*
X164180261Y-109209210D01*
X164161044Y-109063239D01*
X164161044Y-109063238D01*
X164100536Y-108917159D01*
X164004282Y-108791718D01*
X163878841Y-108695464D01*
X163732762Y-108634956D01*
X163732760Y-108634955D01*
X163576001Y-108614318D01*
X163575999Y-108614318D01*
X163419239Y-108634955D01*
X163419237Y-108634956D01*
X163273160Y-108695463D01*
X163147716Y-108791719D01*
X163106077Y-108845986D01*
X163049649Y-108887189D01*
X163007701Y-108894500D01*
X156142189Y-108894500D01*
X156075150Y-108874815D01*
X156054508Y-108858181D01*
X155658028Y-108461702D01*
X155310819Y-108114493D01*
X155277334Y-108053170D01*
X155274500Y-108026812D01*
X155274500Y-107564583D01*
X155294185Y-107497544D01*
X155346989Y-107451789D01*
X155351049Y-107450021D01*
X155352945Y-107449234D01*
X155352954Y-107449232D01*
X155535450Y-107351685D01*
X155695410Y-107220410D01*
X155826685Y-107060450D01*
X155924232Y-106877954D01*
X155944406Y-106811446D01*
X155982702Y-106753010D01*
X156046514Y-106724553D01*
X156115581Y-106735112D01*
X156167975Y-106781336D01*
X156182841Y-106815349D01*
X156215567Y-106937486D01*
X156215570Y-106937492D01*
X156315399Y-107151578D01*
X156450894Y-107345082D01*
X156617917Y-107512105D01*
X156811421Y-107647600D01*
X157025507Y-107747429D01*
X157025516Y-107747433D01*
X157239000Y-107804634D01*
X157239000Y-106909501D01*
X157346685Y-106958680D01*
X157453237Y-106974000D01*
X157524763Y-106974000D01*
X157631315Y-106958680D01*
X157739000Y-106909501D01*
X157739000Y-107804633D01*
X157952483Y-107747433D01*
X157952492Y-107747429D01*
X158166578Y-107647600D01*
X158360082Y-107512105D01*
X158527105Y-107345082D01*
X158662599Y-107151578D01*
X158742118Y-106981051D01*
X158788290Y-106928612D01*
X158855484Y-106909460D01*
X158922365Y-106929676D01*
X158967699Y-106982841D01*
X158978500Y-107033456D01*
X158978500Y-107343752D01*
X158990131Y-107402229D01*
X158990132Y-107402230D01*
X159034447Y-107468552D01*
X159100769Y-107512867D01*
X159100770Y-107512868D01*
X159159247Y-107524499D01*
X159159250Y-107524500D01*
X159159252Y-107524500D01*
X160898750Y-107524500D01*
X160898751Y-107524499D01*
X160913568Y-107521552D01*
X160957229Y-107512868D01*
X160957229Y-107512867D01*
X160957231Y-107512867D01*
X161023552Y-107468552D01*
X161067867Y-107402231D01*
X161067867Y-107402229D01*
X161067868Y-107402229D01*
X161077922Y-107351682D01*
X161079500Y-107343748D01*
X161079500Y-105659138D01*
X173079500Y-105659138D01*
X173081680Y-105683662D01*
X173089582Y-105772548D01*
X173142762Y-105958405D01*
X173154869Y-105981582D01*
X173232266Y-106129751D01*
X173234630Y-106132650D01*
X173354428Y-106279571D01*
X173392615Y-106310708D01*
X173504249Y-106401734D01*
X173675594Y-106491237D01*
X173861448Y-106544417D01*
X173974862Y-106554500D01*
X173974870Y-106554500D01*
X176085130Y-106554500D01*
X176085138Y-106554500D01*
X176198552Y-106544417D01*
X176384406Y-106491237D01*
X176555751Y-106401734D01*
X176705571Y-106279571D01*
X176827734Y-106129751D01*
X176917237Y-105958406D01*
X176970417Y-105772552D01*
X176980500Y-105659138D01*
X176980500Y-104048862D01*
X176970417Y-103935448D01*
X176917237Y-103749594D01*
X176827734Y-103578249D01*
X176766652Y-103503339D01*
X176705571Y-103428428D01*
X176556614Y-103306970D01*
X176555751Y-103306266D01*
X176541082Y-103298604D01*
X176384405Y-103216762D01*
X176229845Y-103172537D01*
X176198552Y-103163583D01*
X176198551Y-103163582D01*
X176198548Y-103163582D01*
X176109662Y-103155680D01*
X176085138Y-103153500D01*
X173974862Y-103153500D01*
X173962599Y-103154590D01*
X173861451Y-103163582D01*
X173675594Y-103216762D01*
X173504250Y-103306265D01*
X173354428Y-103428428D01*
X173232265Y-103578250D01*
X173142762Y-103749594D01*
X173089582Y-103935451D01*
X173087818Y-103955298D01*
X173079500Y-104048862D01*
X173079500Y-105659138D01*
X161079500Y-105659138D01*
X161079500Y-105604252D01*
X161079500Y-105604249D01*
X161079499Y-105604247D01*
X161067868Y-105545770D01*
X161067867Y-105545769D01*
X161023552Y-105479447D01*
X160957230Y-105435132D01*
X160957229Y-105435131D01*
X160898752Y-105423500D01*
X160898748Y-105423500D01*
X159159252Y-105423500D01*
X159159247Y-105423500D01*
X159100770Y-105435131D01*
X159100769Y-105435132D01*
X159034447Y-105479447D01*
X158990132Y-105545769D01*
X158990131Y-105545770D01*
X158978500Y-105604247D01*
X158978500Y-105914543D01*
X158958815Y-105981582D01*
X158906011Y-106027337D01*
X158836853Y-106037281D01*
X158773297Y-106008256D01*
X158742118Y-105966948D01*
X158662600Y-105796422D01*
X158662599Y-105796420D01*
X158527113Y-105602926D01*
X158527108Y-105602920D01*
X158360082Y-105435894D01*
X158166578Y-105300399D01*
X157952492Y-105200570D01*
X157952486Y-105200567D01*
X157739000Y-105143364D01*
X157739000Y-106038498D01*
X157631315Y-105989320D01*
X157524763Y-105974000D01*
X157453237Y-105974000D01*
X157346685Y-105989320D01*
X157239000Y-106038498D01*
X157239000Y-105143364D01*
X157238999Y-105143364D01*
X157025513Y-105200567D01*
X157025507Y-105200570D01*
X156811422Y-105300399D01*
X156811420Y-105300400D01*
X156617926Y-105435886D01*
X156617920Y-105435891D01*
X156450891Y-105602920D01*
X156450886Y-105602926D01*
X156315400Y-105796420D01*
X156315399Y-105796422D01*
X156215570Y-106010507D01*
X156215567Y-106010514D01*
X156182841Y-106132650D01*
X156146476Y-106192310D01*
X156083629Y-106222839D01*
X156014253Y-106214544D01*
X155960375Y-106170059D01*
X155944406Y-106136553D01*
X155924232Y-106070046D01*
X155826685Y-105887550D01*
X155751897Y-105796420D01*
X155695410Y-105727589D01*
X155545121Y-105604252D01*
X155535450Y-105596315D01*
X155352954Y-105498768D01*
X155154934Y-105438700D01*
X155154932Y-105438699D01*
X155154934Y-105438699D01*
X154949000Y-105418417D01*
X154743067Y-105438699D01*
X154545043Y-105498769D01*
X154457114Y-105545769D01*
X154362550Y-105596315D01*
X154362548Y-105596316D01*
X154362547Y-105596317D01*
X154202589Y-105727590D01*
X154132433Y-105813076D01*
X154074688Y-105852410D01*
X154004843Y-105854281D01*
X153945075Y-105818094D01*
X153914359Y-105755338D01*
X153913052Y-105723600D01*
X153913263Y-105721192D01*
X153909528Y-105707252D01*
X153903486Y-105684703D01*
X153901144Y-105674138D01*
X153898498Y-105659130D01*
X153894588Y-105636954D01*
X153894586Y-105636951D01*
X153892760Y-105631932D01*
X153885820Y-105615175D01*
X153883554Y-105610318D01*
X153883554Y-105610315D01*
X153861890Y-105579375D01*
X153856078Y-105570252D01*
X153841943Y-105545770D01*
X153837194Y-105537544D01*
X153808261Y-105513266D01*
X153800286Y-105505958D01*
X151929743Y-103635416D01*
X151896258Y-103574093D01*
X151894485Y-103531549D01*
X151903414Y-103463731D01*
X151903414Y-103463729D01*
X151882776Y-103306970D01*
X151882776Y-103306969D01*
X151822268Y-103160890D01*
X151726014Y-103035449D01*
X151600573Y-102939195D01*
X151562952Y-102923612D01*
X151454494Y-102878687D01*
X151454492Y-102878686D01*
X151297733Y-102858049D01*
X151297731Y-102858049D01*
X151140971Y-102878686D01*
X151140969Y-102878687D01*
X150994889Y-102939195D01*
X150883430Y-103024721D01*
X150818261Y-103049915D01*
X150749816Y-103035876D01*
X150732457Y-103024721D01*
X150726135Y-103019870D01*
X150726133Y-103019867D01*
X150600692Y-102923613D01*
X150549339Y-102902342D01*
X150454613Y-102863105D01*
X150454611Y-102863104D01*
X150297852Y-102842467D01*
X150297850Y-102842467D01*
X150141090Y-102863104D01*
X150141088Y-102863105D01*
X149995011Y-102923612D01*
X149869569Y-103019867D01*
X149773314Y-103145309D01*
X149712807Y-103291386D01*
X149712806Y-103291388D01*
X149692169Y-103448147D01*
X149692169Y-103448150D01*
X149712806Y-103604909D01*
X149712807Y-103604911D01*
X149773315Y-103750990D01*
X149869569Y-103876431D01*
X149923838Y-103918073D01*
X149965040Y-103974498D01*
X149972351Y-104016447D01*
X149972351Y-105295850D01*
X149952666Y-105362889D01*
X149899862Y-105408644D01*
X149860506Y-105419253D01*
X149663067Y-105438699D01*
X149465043Y-105498769D01*
X149377114Y-105545769D01*
X149282550Y-105596315D01*
X149282548Y-105596316D01*
X149282547Y-105596317D01*
X149122589Y-105727589D01*
X148991317Y-105887547D01*
X148893769Y-106070043D01*
X148833699Y-106268067D01*
X148813417Y-106474000D01*
X148833699Y-106679932D01*
X148833700Y-106679934D01*
X148893768Y-106877954D01*
X148991315Y-107060450D01*
X148991317Y-107060452D01*
X149122589Y-107220410D01*
X149185152Y-107271753D01*
X149282550Y-107351685D01*
X149465046Y-107449232D01*
X149663066Y-107509300D01*
X149663065Y-107509300D01*
X149681529Y-107511118D01*
X149869000Y-107529583D01*
X150074934Y-107509300D01*
X150272954Y-107449232D01*
X150455450Y-107351685D01*
X150615410Y-107220410D01*
X150746685Y-107060450D01*
X150844232Y-106877954D01*
X150904300Y-106679934D01*
X150924583Y-106474000D01*
X150904300Y-106268066D01*
X150844232Y-106070046D01*
X150746685Y-105887550D01*
X150651497Y-105771562D01*
X150624185Y-105707252D01*
X150623351Y-105692898D01*
X150623351Y-104016447D01*
X150643036Y-103949408D01*
X150671861Y-103918074D01*
X150712154Y-103887157D01*
X150777321Y-103861964D01*
X150845766Y-103876003D01*
X150863125Y-103887158D01*
X150869446Y-103892009D01*
X150869450Y-103892013D01*
X150994891Y-103988267D01*
X151140970Y-104048775D01*
X151169280Y-104052502D01*
X151297731Y-104069413D01*
X151297732Y-104069413D01*
X151297733Y-104069413D01*
X151333440Y-104064711D01*
X151365550Y-104060484D01*
X151434585Y-104071249D01*
X151469417Y-104095742D01*
X152588892Y-105215218D01*
X152622377Y-105276541D01*
X152617393Y-105346233D01*
X152575521Y-105402166D01*
X152510057Y-105426583D01*
X152489057Y-105426302D01*
X152409000Y-105418417D01*
X152203067Y-105438699D01*
X152005043Y-105498769D01*
X151917114Y-105545769D01*
X151822550Y-105596315D01*
X151822548Y-105596316D01*
X151822547Y-105596317D01*
X151662589Y-105727589D01*
X151531317Y-105887547D01*
X151433769Y-106070043D01*
X151373699Y-106268067D01*
X151353417Y-106474000D01*
X151373699Y-106679932D01*
X151373700Y-106679934D01*
X151433768Y-106877954D01*
X151531315Y-107060450D01*
X151531317Y-107060452D01*
X151662589Y-107220410D01*
X151725152Y-107271753D01*
X151822550Y-107351685D01*
X152005046Y-107449232D01*
X152203066Y-107509300D01*
X152203065Y-107509300D01*
X152239292Y-107512868D01*
X152400331Y-107528729D01*
X152465118Y-107554890D01*
X152505477Y-107611924D01*
X152508594Y-107681724D01*
X152475858Y-107739813D01*
X149643715Y-110571957D01*
X149635742Y-110579264D01*
X149606805Y-110603545D01*
X149587914Y-110636264D01*
X149582105Y-110645381D01*
X149560446Y-110676313D01*
X149558206Y-110681117D01*
X149551228Y-110697965D01*
X149548725Y-110704841D01*
X149546864Y-110707367D01*
X149543995Y-110712339D01*
X149543439Y-110712018D01*
X149507293Y-110761101D01*
X149468208Y-110781078D01*
X149456045Y-110784767D01*
X149311016Y-110862288D01*
X149273550Y-110882315D01*
X149273548Y-110882316D01*
X149273547Y-110882317D01*
X149113589Y-111013589D01*
X149023972Y-111122790D01*
X148982315Y-111173550D01*
X148953772Y-111226949D01*
X148884769Y-111356043D01*
X148824699Y-111554067D01*
X148804417Y-111760000D01*
X148375583Y-111760000D01*
X148355300Y-111554066D01*
X148295232Y-111356046D01*
X148197685Y-111173550D01*
X148122897Y-111082420D01*
X148066410Y-111013589D01*
X147929926Y-110901581D01*
X147906450Y-110882315D01*
X147723954Y-110784768D01*
X147525934Y-110724700D01*
X147525932Y-110724699D01*
X147525934Y-110724699D01*
X147320000Y-110704417D01*
X147114067Y-110724699D01*
X146979736Y-110765448D01*
X146916050Y-110784767D01*
X146916043Y-110784769D01*
X146828114Y-110831769D01*
X146733550Y-110882315D01*
X146733548Y-110882316D01*
X146733547Y-110882317D01*
X146573589Y-111013589D01*
X146483972Y-111122790D01*
X146442315Y-111173550D01*
X146413772Y-111226949D01*
X146344769Y-111356043D01*
X146284699Y-111554067D01*
X146264417Y-111760000D01*
X145835583Y-111760000D01*
X145815300Y-111554066D01*
X145755232Y-111356046D01*
X145657685Y-111173550D01*
X145582897Y-111082420D01*
X145526410Y-111013589D01*
X145389926Y-110901581D01*
X145366450Y-110882315D01*
X145183954Y-110784768D01*
X144985934Y-110724700D01*
X144985932Y-110724699D01*
X144985934Y-110724699D01*
X144780000Y-110704417D01*
X144574067Y-110724699D01*
X144439736Y-110765448D01*
X144376050Y-110784767D01*
X144376043Y-110784769D01*
X144288114Y-110831769D01*
X144193550Y-110882315D01*
X144193548Y-110882316D01*
X144193547Y-110882317D01*
X144033589Y-111013589D01*
X143943972Y-111122790D01*
X143902315Y-111173550D01*
X143873772Y-111226949D01*
X143804769Y-111356043D01*
X143744699Y-111554067D01*
X143724417Y-111760000D01*
X143295583Y-111760000D01*
X143275300Y-111554066D01*
X143215232Y-111356046D01*
X143117685Y-111173550D01*
X143042897Y-111082420D01*
X142986410Y-111013589D01*
X142849926Y-110901581D01*
X142826450Y-110882315D01*
X142643954Y-110784768D01*
X142445934Y-110724700D01*
X142445932Y-110724699D01*
X142445934Y-110724699D01*
X142240000Y-110704417D01*
X142034067Y-110724699D01*
X141899736Y-110765448D01*
X141836050Y-110784767D01*
X141836043Y-110784769D01*
X141748114Y-110831769D01*
X141653550Y-110882315D01*
X141653548Y-110882316D01*
X141653547Y-110882317D01*
X141493589Y-111013589D01*
X141403972Y-111122790D01*
X141362315Y-111173550D01*
X141333772Y-111226949D01*
X141264769Y-111356043D01*
X141204699Y-111554067D01*
X141184417Y-111760000D01*
X116414529Y-111760000D01*
X116424973Y-111755279D01*
X116509480Y-111717080D01*
X116509481Y-111717078D01*
X116509486Y-111717077D01*
X116707003Y-111583579D01*
X116879118Y-111418621D01*
X117020879Y-111226947D01*
X117128207Y-111014074D01*
X117198016Y-110786123D01*
X117228298Y-110549654D01*
X117218180Y-110311468D01*
X117167954Y-110078419D01*
X117079064Y-109857210D01*
X116954069Y-109654205D01*
X116796564Y-109475245D01*
X116611080Y-109325477D01*
X116422271Y-109220001D01*
X116402955Y-109209210D01*
X116178170Y-109129788D01*
X115943209Y-109089500D01*
X115943200Y-109089500D01*
X115764503Y-109089500D01*
X115764484Y-109089500D01*
X115586463Y-109104652D01*
X115355751Y-109164724D01*
X115138519Y-109262919D01*
X115138511Y-109262924D01*
X114941006Y-109396413D01*
X114940997Y-109396421D01*
X114768881Y-109561379D01*
X114627123Y-109753050D01*
X114627120Y-109753054D01*
X114519796Y-109965920D01*
X114519793Y-109965926D01*
X114449983Y-110193878D01*
X114419702Y-110430346D01*
X112060500Y-110430346D01*
X112060500Y-106474000D01*
X141193417Y-106474000D01*
X141213699Y-106679932D01*
X141213700Y-106679934D01*
X141273768Y-106877954D01*
X141371315Y-107060450D01*
X141371317Y-107060452D01*
X141502589Y-107220410D01*
X141565152Y-107271753D01*
X141662550Y-107351685D01*
X141845046Y-107449232D01*
X142043066Y-107509300D01*
X142043065Y-107509300D01*
X142061529Y-107511118D01*
X142249000Y-107529583D01*
X142454934Y-107509300D01*
X142652954Y-107449232D01*
X142835450Y-107351685D01*
X142995410Y-107220410D01*
X143126685Y-107060450D01*
X143224232Y-106877954D01*
X143284300Y-106679934D01*
X143304583Y-106474000D01*
X143733417Y-106474000D01*
X143753699Y-106679932D01*
X143753700Y-106679934D01*
X143813768Y-106877954D01*
X143911315Y-107060450D01*
X143911317Y-107060452D01*
X144042589Y-107220410D01*
X144105152Y-107271753D01*
X144202550Y-107351685D01*
X144385046Y-107449232D01*
X144583066Y-107509300D01*
X144583065Y-107509300D01*
X144601529Y-107511118D01*
X144789000Y-107529583D01*
X144994934Y-107509300D01*
X145192954Y-107449232D01*
X145375450Y-107351685D01*
X145535410Y-107220410D01*
X145666685Y-107060450D01*
X145764232Y-106877954D01*
X145824300Y-106679934D01*
X145844583Y-106474000D01*
X146273417Y-106474000D01*
X146293699Y-106679932D01*
X146293700Y-106679934D01*
X146353768Y-106877954D01*
X146451315Y-107060450D01*
X146451317Y-107060452D01*
X146582589Y-107220410D01*
X146645152Y-107271753D01*
X146742550Y-107351685D01*
X146925046Y-107449232D01*
X147123066Y-107509300D01*
X147123065Y-107509300D01*
X147141529Y-107511118D01*
X147329000Y-107529583D01*
X147534934Y-107509300D01*
X147732954Y-107449232D01*
X147915450Y-107351685D01*
X148075410Y-107220410D01*
X148206685Y-107060450D01*
X148304232Y-106877954D01*
X148364300Y-106679934D01*
X148384583Y-106474000D01*
X148364300Y-106268066D01*
X148304232Y-106070046D01*
X148206685Y-105887550D01*
X148131897Y-105796420D01*
X148075410Y-105727589D01*
X147925121Y-105604252D01*
X147915450Y-105596315D01*
X147732954Y-105498768D01*
X147534934Y-105438700D01*
X147534932Y-105438699D01*
X147534934Y-105438699D01*
X147329000Y-105418417D01*
X147123067Y-105438699D01*
X146925043Y-105498769D01*
X146837114Y-105545769D01*
X146742550Y-105596315D01*
X146742548Y-105596316D01*
X146742547Y-105596317D01*
X146582589Y-105727589D01*
X146451317Y-105887547D01*
X146353769Y-106070043D01*
X146293699Y-106268067D01*
X146273417Y-106474000D01*
X145844583Y-106474000D01*
X145824300Y-106268066D01*
X145764232Y-106070046D01*
X145666685Y-105887550D01*
X145591897Y-105796420D01*
X145535410Y-105727589D01*
X145385121Y-105604252D01*
X145375450Y-105596315D01*
X145192954Y-105498768D01*
X144994934Y-105438700D01*
X144994932Y-105438699D01*
X144994934Y-105438699D01*
X144789000Y-105418417D01*
X144583067Y-105438699D01*
X144385043Y-105498769D01*
X144297114Y-105545769D01*
X144202550Y-105596315D01*
X144202548Y-105596316D01*
X144202547Y-105596317D01*
X144042589Y-105727589D01*
X143911317Y-105887547D01*
X143813769Y-106070043D01*
X143753699Y-106268067D01*
X143733417Y-106474000D01*
X143304583Y-106474000D01*
X143284300Y-106268066D01*
X143224232Y-106070046D01*
X143126685Y-105887550D01*
X143051897Y-105796420D01*
X142995410Y-105727589D01*
X142845121Y-105604252D01*
X142835450Y-105596315D01*
X142652954Y-105498768D01*
X142454934Y-105438700D01*
X142454932Y-105438699D01*
X142454934Y-105438699D01*
X142249000Y-105418417D01*
X142043067Y-105438699D01*
X141845043Y-105498769D01*
X141757114Y-105545769D01*
X141662550Y-105596315D01*
X141662548Y-105596316D01*
X141662547Y-105596317D01*
X141502589Y-105727589D01*
X141371317Y-105887547D01*
X141273769Y-106070043D01*
X141213699Y-106268067D01*
X141193417Y-106474000D01*
X112060500Y-106474000D01*
X112060500Y-83868000D01*
X113522417Y-83868000D01*
X113542699Y-84073932D01*
X113558935Y-84127454D01*
X113602768Y-84271954D01*
X113700315Y-84454450D01*
X113700317Y-84454452D01*
X113831589Y-84614410D01*
X113928209Y-84693702D01*
X113991550Y-84745685D01*
X114174046Y-84843232D01*
X114372066Y-84903300D01*
X114372065Y-84903300D01*
X114390529Y-84905118D01*
X114578000Y-84923583D01*
X114783934Y-84903300D01*
X114981954Y-84843232D01*
X115164450Y-84745685D01*
X115324410Y-84614410D01*
X115455685Y-84454450D01*
X115553232Y-84271954D01*
X115613300Y-84073934D01*
X115633583Y-83868000D01*
X116062417Y-83868000D01*
X116082699Y-84073932D01*
X116098935Y-84127454D01*
X116142768Y-84271954D01*
X116240315Y-84454450D01*
X116240317Y-84454452D01*
X116371589Y-84614410D01*
X116468209Y-84693702D01*
X116531550Y-84745685D01*
X116714046Y-84843232D01*
X116912066Y-84903300D01*
X116912065Y-84903300D01*
X116930529Y-84905118D01*
X117118000Y-84923583D01*
X117323934Y-84903300D01*
X117521954Y-84843232D01*
X117704450Y-84745685D01*
X117864410Y-84614410D01*
X117995685Y-84454450D01*
X118093232Y-84271954D01*
X118153300Y-84073934D01*
X118173583Y-83868000D01*
X118153300Y-83662066D01*
X118093232Y-83464046D01*
X117995685Y-83281550D01*
X117920897Y-83190420D01*
X117864410Y-83121589D01*
X117727413Y-83009160D01*
X117704450Y-82990315D01*
X117521954Y-82892768D01*
X117323934Y-82832700D01*
X117323932Y-82832699D01*
X117323934Y-82832699D01*
X117118000Y-82812417D01*
X116912067Y-82832699D01*
X116714043Y-82892769D01*
X116651954Y-82925957D01*
X116531550Y-82990315D01*
X116531548Y-82990316D01*
X116531547Y-82990317D01*
X116371589Y-83121589D01*
X116240317Y-83281547D01*
X116240315Y-83281550D01*
X116220305Y-83318986D01*
X116142769Y-83464043D01*
X116142769Y-83464044D01*
X116142768Y-83464046D01*
X116135898Y-83486692D01*
X116082699Y-83662067D01*
X116062417Y-83868000D01*
X115633583Y-83868000D01*
X115613300Y-83662066D01*
X115553232Y-83464046D01*
X115455685Y-83281550D01*
X115380897Y-83190420D01*
X115324410Y-83121589D01*
X115187413Y-83009160D01*
X115164450Y-82990315D01*
X114981954Y-82892768D01*
X114783934Y-82832700D01*
X114783932Y-82832699D01*
X114783934Y-82832699D01*
X114578000Y-82812417D01*
X114372067Y-82832699D01*
X114174043Y-82892769D01*
X114111954Y-82925957D01*
X113991550Y-82990315D01*
X113991548Y-82990316D01*
X113991547Y-82990317D01*
X113831589Y-83121589D01*
X113700317Y-83281547D01*
X113700315Y-83281550D01*
X113680305Y-83318986D01*
X113602769Y-83464043D01*
X113602769Y-83464044D01*
X113602768Y-83464046D01*
X113595898Y-83486692D01*
X113542699Y-83662067D01*
X113522417Y-83868000D01*
X112060500Y-83868000D01*
X112060500Y-68628000D01*
X113522417Y-68628000D01*
X113542699Y-68833932D01*
X113565680Y-68909690D01*
X113602768Y-69031954D01*
X113700315Y-69214450D01*
X113716688Y-69234401D01*
X113831589Y-69374410D01*
X113909157Y-69438067D01*
X113991550Y-69505685D01*
X114174046Y-69603232D01*
X114372066Y-69663300D01*
X114372065Y-69663300D01*
X114390529Y-69665118D01*
X114578000Y-69683583D01*
X114783934Y-69663300D01*
X114914581Y-69623668D01*
X114984447Y-69623046D01*
X115038256Y-69654649D01*
X124301181Y-78917574D01*
X124334666Y-78978897D01*
X124337500Y-79005255D01*
X124337500Y-82816599D01*
X124317815Y-82883638D01*
X124271953Y-82925957D01*
X124151550Y-82990315D01*
X124151548Y-82990316D01*
X124151547Y-82990317D01*
X123991589Y-83121589D01*
X123860317Y-83281547D01*
X123860315Y-83281550D01*
X123840305Y-83318986D01*
X123762767Y-83464046D01*
X123742593Y-83530552D01*
X123704296Y-83588990D01*
X123640483Y-83617447D01*
X123571416Y-83606886D01*
X123519023Y-83560661D01*
X123504158Y-83526649D01*
X123471433Y-83404516D01*
X123471429Y-83404507D01*
X123371600Y-83190422D01*
X123371599Y-83190420D01*
X123236113Y-82996926D01*
X123236108Y-82996920D01*
X123069082Y-82829894D01*
X122875578Y-82694399D01*
X122661492Y-82594570D01*
X122661486Y-82594567D01*
X122448000Y-82537364D01*
X122448000Y-83432498D01*
X122340315Y-83383320D01*
X122233763Y-83368000D01*
X122162237Y-83368000D01*
X122055685Y-83383320D01*
X121948000Y-83432498D01*
X121948000Y-82537364D01*
X121947999Y-82537364D01*
X121734513Y-82594567D01*
X121734507Y-82594570D01*
X121520422Y-82694399D01*
X121520420Y-82694400D01*
X121326926Y-82829886D01*
X121326920Y-82829891D01*
X121159891Y-82996920D01*
X121159886Y-82996926D01*
X121024400Y-83190420D01*
X121024399Y-83190422D01*
X120924570Y-83404507D01*
X120924567Y-83404514D01*
X120891841Y-83526650D01*
X120855476Y-83586310D01*
X120792629Y-83616839D01*
X120723253Y-83608544D01*
X120669375Y-83564059D01*
X120653406Y-83530552D01*
X120633232Y-83464046D01*
X120535685Y-83281550D01*
X120460897Y-83190420D01*
X120404410Y-83121589D01*
X120267413Y-83009160D01*
X120244450Y-82990315D01*
X120061954Y-82892768D01*
X119863934Y-82832700D01*
X119863932Y-82832699D01*
X119863934Y-82832699D01*
X119658000Y-82812417D01*
X119452067Y-82832699D01*
X119254043Y-82892769D01*
X119191954Y-82925957D01*
X119071550Y-82990315D01*
X119071548Y-82990316D01*
X119071547Y-82990317D01*
X118911589Y-83121589D01*
X118780317Y-83281547D01*
X118780315Y-83281550D01*
X118760305Y-83318986D01*
X118682769Y-83464043D01*
X118682769Y-83464044D01*
X118682768Y-83464046D01*
X118675898Y-83486692D01*
X118622699Y-83662067D01*
X118602417Y-83868000D01*
X118622699Y-84073932D01*
X118638935Y-84127454D01*
X118682768Y-84271954D01*
X118780315Y-84454450D01*
X118780317Y-84454452D01*
X118911589Y-84614410D01*
X119008209Y-84693702D01*
X119071550Y-84745685D01*
X119254046Y-84843232D01*
X119452066Y-84903300D01*
X119452065Y-84903300D01*
X119470529Y-84905118D01*
X119658000Y-84923583D01*
X119863934Y-84903300D01*
X120061954Y-84843232D01*
X120244450Y-84745685D01*
X120404410Y-84614410D01*
X120535685Y-84454450D01*
X120633232Y-84271954D01*
X120653406Y-84205446D01*
X120691702Y-84147010D01*
X120755514Y-84118553D01*
X120824581Y-84129112D01*
X120876975Y-84175336D01*
X120891841Y-84209349D01*
X120924567Y-84331486D01*
X120924570Y-84331492D01*
X121024399Y-84545578D01*
X121159894Y-84739082D01*
X121326917Y-84906105D01*
X121520421Y-85041600D01*
X121734507Y-85141429D01*
X121734516Y-85141433D01*
X121948000Y-85198634D01*
X121948000Y-84303501D01*
X122055685Y-84352680D01*
X122162237Y-84368000D01*
X122233763Y-84368000D01*
X122340315Y-84352680D01*
X122448000Y-84303501D01*
X122448000Y-85198633D01*
X122661483Y-85141433D01*
X122661492Y-85141429D01*
X122875578Y-85041600D01*
X123069082Y-84906105D01*
X123236105Y-84739082D01*
X123371600Y-84545578D01*
X123471429Y-84331492D01*
X123471433Y-84331483D01*
X123504158Y-84209350D01*
X123540522Y-84149690D01*
X123603369Y-84119160D01*
X123672745Y-84127454D01*
X123726623Y-84171939D01*
X123742593Y-84205447D01*
X123762768Y-84271954D01*
X123860315Y-84454450D01*
X123860317Y-84454452D01*
X123991589Y-84614410D01*
X124151548Y-84745684D01*
X124151550Y-84745685D01*
X124271953Y-84810042D01*
X124321798Y-84859004D01*
X124337500Y-84919400D01*
X124337500Y-92289429D01*
X124337501Y-92289439D01*
X124344346Y-92310507D01*
X124348887Y-92329418D01*
X124352354Y-92351304D01*
X124352355Y-92351307D01*
X124362412Y-92371045D01*
X124369857Y-92389018D01*
X124376704Y-92410090D01*
X124389726Y-92428014D01*
X124399890Y-92444600D01*
X124409949Y-92464340D01*
X124409950Y-92464342D01*
X124429390Y-92483782D01*
X124429419Y-92483813D01*
X131851413Y-99905807D01*
X131851433Y-99905825D01*
X131869656Y-99924049D01*
X131889394Y-99934106D01*
X131905982Y-99944271D01*
X131923910Y-99957296D01*
X131944979Y-99964141D01*
X131962958Y-99971588D01*
X131982696Y-99981646D01*
X132004578Y-99985111D01*
X132023491Y-99989652D01*
X132044567Y-99996500D01*
X132076481Y-99996500D01*
X136788603Y-99996500D01*
X136855642Y-100016185D01*
X136901397Y-100068989D01*
X136907261Y-100084497D01*
X136939430Y-100190547D01*
X136952202Y-100232649D01*
X137051600Y-100418610D01*
X137051605Y-100418616D01*
X137185378Y-100581621D01*
X137297800Y-100673882D01*
X137343490Y-100711379D01*
X137348383Y-100715394D01*
X137348389Y-100715399D01*
X137534350Y-100814797D01*
X137534352Y-100814797D01*
X137534355Y-100814799D01*
X137736145Y-100876011D01*
X137736144Y-100876011D01*
X137756813Y-100878046D01*
X137946000Y-100896680D01*
X138075427Y-100883932D01*
X138144071Y-100896951D01*
X138175261Y-100919654D01*
X140157950Y-102902342D01*
X140247658Y-102992050D01*
X140267395Y-103002106D01*
X140283981Y-103012269D01*
X140301910Y-103025296D01*
X140301912Y-103025296D01*
X140301913Y-103025297D01*
X140322974Y-103032140D01*
X140340953Y-103039586D01*
X140360696Y-103049646D01*
X140382585Y-103053112D01*
X140401501Y-103057653D01*
X140422567Y-103064499D01*
X140449346Y-103064499D01*
X140449370Y-103064500D01*
X140454481Y-103064500D01*
X146625431Y-103064500D01*
X146625433Y-103064500D01*
X146646501Y-103057654D01*
X146665417Y-103053112D01*
X146687304Y-103049646D01*
X146707044Y-103039586D01*
X146725011Y-103032144D01*
X146746090Y-103025296D01*
X146764026Y-103012263D01*
X146780588Y-103002114D01*
X146800342Y-102992050D01*
X146815834Y-102976557D01*
X146815841Y-102976552D01*
X146981275Y-102811118D01*
X177779500Y-102811118D01*
X177782249Y-102857263D01*
X177782249Y-102857267D01*
X177782250Y-102857268D01*
X177825907Y-103057961D01*
X177825909Y-103057968D01*
X177893910Y-103216763D01*
X177906763Y-103246777D01*
X177906766Y-103246781D01*
X178021882Y-103416868D01*
X178021890Y-103416877D01*
X178167122Y-103562109D01*
X178167131Y-103562117D01*
X178269849Y-103631637D01*
X178337223Y-103677237D01*
X178337228Y-103677239D01*
X178526031Y-103758090D01*
X178526038Y-103758092D01*
X178592935Y-103772644D01*
X178726737Y-103801751D01*
X178772882Y-103804500D01*
X178772893Y-103804500D01*
X180687107Y-103804500D01*
X180687118Y-103804500D01*
X180733263Y-103801751D01*
X180908954Y-103763531D01*
X180933961Y-103758092D01*
X180933968Y-103758090D01*
X181000306Y-103729682D01*
X181122777Y-103677237D01*
X181269031Y-103578250D01*
X181292868Y-103562117D01*
X181292869Y-103562115D01*
X181292875Y-103562112D01*
X181438112Y-103416875D01*
X181553237Y-103246777D01*
X181605813Y-103124001D01*
X189132318Y-103124001D01*
X189152955Y-103280760D01*
X189152956Y-103280762D01*
X189213464Y-103426841D01*
X189309718Y-103552282D01*
X189435159Y-103648536D01*
X189581238Y-103709044D01*
X189659619Y-103719363D01*
X189737999Y-103729682D01*
X189738000Y-103729682D01*
X189738001Y-103729682D01*
X189790254Y-103722802D01*
X189894762Y-103709044D01*
X190040841Y-103648536D01*
X190166282Y-103552282D01*
X190262536Y-103426841D01*
X190323044Y-103280762D01*
X190343682Y-103124000D01*
X190335848Y-103064498D01*
X190327634Y-103002104D01*
X190323044Y-102967238D01*
X190262536Y-102821159D01*
X190166282Y-102695718D01*
X190166280Y-102695716D01*
X190166279Y-102695715D01*
X190112012Y-102654074D01*
X190070810Y-102597646D01*
X190063500Y-102555699D01*
X190063500Y-99120298D01*
X190083185Y-99053259D01*
X190112010Y-99021925D01*
X190166282Y-98980282D01*
X190262536Y-98854841D01*
X190323044Y-98708762D01*
X190336836Y-98604000D01*
X190343682Y-98552001D01*
X190343682Y-98551998D01*
X190325782Y-98416035D01*
X190323044Y-98395238D01*
X190262536Y-98249159D01*
X190166282Y-98123718D01*
X190040841Y-98027464D01*
X189894762Y-97966956D01*
X189894760Y-97966955D01*
X189738001Y-97946318D01*
X189737999Y-97946318D01*
X189581239Y-97966955D01*
X189581237Y-97966956D01*
X189435160Y-98027463D01*
X189309718Y-98123718D01*
X189213463Y-98249160D01*
X189152956Y-98395237D01*
X189152955Y-98395239D01*
X189132318Y-98551998D01*
X189132318Y-98552001D01*
X189152955Y-98708760D01*
X189152956Y-98708762D01*
X189213464Y-98854841D01*
X189309718Y-98980282D01*
X189363987Y-99021924D01*
X189405189Y-99078349D01*
X189412500Y-99120298D01*
X189412500Y-102555699D01*
X189392815Y-102622738D01*
X189363988Y-102654074D01*
X189309720Y-102695715D01*
X189213463Y-102821160D01*
X189152956Y-102967237D01*
X189152955Y-102967239D01*
X189132318Y-103123998D01*
X189132318Y-103124001D01*
X181605813Y-103124001D01*
X181631293Y-103064499D01*
X181634090Y-103057968D01*
X181634092Y-103057961D01*
X181648430Y-102992050D01*
X181677751Y-102857263D01*
X181680500Y-102811118D01*
X181680500Y-100896882D01*
X181677751Y-100850737D01*
X181639278Y-100673880D01*
X181634092Y-100650038D01*
X181634090Y-100650031D01*
X181553239Y-100461228D01*
X181553237Y-100461223D01*
X181507637Y-100393849D01*
X181438117Y-100291131D01*
X181438109Y-100291122D01*
X181292877Y-100145890D01*
X181292868Y-100145882D01*
X181138542Y-100041433D01*
X181122777Y-100030763D01*
X181122773Y-100030761D01*
X181122771Y-100030760D01*
X180933968Y-99949909D01*
X180933961Y-99949907D01*
X180733268Y-99906250D01*
X180733267Y-99906249D01*
X180733263Y-99906249D01*
X180687118Y-99903500D01*
X178772882Y-99903500D01*
X178726737Y-99906249D01*
X178726732Y-99906249D01*
X178726731Y-99906250D01*
X178526038Y-99949907D01*
X178526031Y-99949909D01*
X178337228Y-100030760D01*
X178337218Y-100030766D01*
X178167131Y-100145882D01*
X178167122Y-100145890D01*
X178021890Y-100291122D01*
X178021882Y-100291131D01*
X177906766Y-100461218D01*
X177906760Y-100461228D01*
X177825909Y-100650031D01*
X177825907Y-100650038D01*
X177783259Y-100846093D01*
X177782249Y-100850737D01*
X177779500Y-100896882D01*
X177779500Y-102811118D01*
X146981275Y-102811118D01*
X147236694Y-102555699D01*
X148996430Y-100795961D01*
X149057751Y-100762478D01*
X149127443Y-100767462D01*
X149142555Y-100774283D01*
X149179980Y-100794287D01*
X149218350Y-100814797D01*
X149218352Y-100814797D01*
X149218355Y-100814799D01*
X149420145Y-100876011D01*
X149420144Y-100876011D01*
X149438959Y-100877864D01*
X149630000Y-100896680D01*
X149839855Y-100876011D01*
X150041645Y-100814799D01*
X150117437Y-100774286D01*
X150185838Y-100760045D01*
X150251083Y-100785044D01*
X150263571Y-100795964D01*
X150565204Y-101097596D01*
X150796950Y-101329342D01*
X150886658Y-101419050D01*
X150906395Y-101429106D01*
X150922981Y-101439269D01*
X150940910Y-101452296D01*
X150940912Y-101452296D01*
X150940913Y-101452297D01*
X150961974Y-101459140D01*
X150979953Y-101466586D01*
X150999696Y-101476646D01*
X151021585Y-101480112D01*
X151040501Y-101484653D01*
X151061567Y-101491499D01*
X151088346Y-101491499D01*
X151088370Y-101491500D01*
X151093481Y-101491500D01*
X159140431Y-101491500D01*
X159140433Y-101491500D01*
X159161501Y-101484654D01*
X159180417Y-101480112D01*
X159202304Y-101476646D01*
X159222044Y-101466586D01*
X159240011Y-101459144D01*
X159261090Y-101452296D01*
X159279026Y-101439263D01*
X159295588Y-101429114D01*
X159315342Y-101419050D01*
X159330834Y-101403557D01*
X159330841Y-101403552D01*
X159405051Y-101329342D01*
X159918428Y-100815963D01*
X159979751Y-100782479D01*
X160049442Y-100787463D01*
X160064560Y-100794285D01*
X160140355Y-100834799D01*
X160342145Y-100896011D01*
X160342144Y-100896011D01*
X160360959Y-100897864D01*
X160552000Y-100916680D01*
X160761855Y-100896011D01*
X160963645Y-100834799D01*
X160998883Y-100815964D01*
X161149610Y-100735399D01*
X161149612Y-100735396D01*
X161149616Y-100735395D01*
X161312621Y-100601621D01*
X161446395Y-100438616D01*
X161446396Y-100438612D01*
X161446399Y-100438610D01*
X161545797Y-100252649D01*
X161545797Y-100252648D01*
X161545799Y-100252645D01*
X161607011Y-100050855D01*
X161622500Y-99893593D01*
X161622500Y-99338407D01*
X161607938Y-99190562D01*
X161620957Y-99121919D01*
X161643654Y-99090736D01*
X161809822Y-98924569D01*
X161871142Y-98891087D01*
X161940834Y-98896071D01*
X161996767Y-98937943D01*
X162021184Y-99003407D01*
X162021500Y-99012253D01*
X162021500Y-100515269D01*
X162024353Y-100545699D01*
X162024353Y-100545701D01*
X162069206Y-100673880D01*
X162069207Y-100673882D01*
X162149850Y-100783150D01*
X162259118Y-100863793D01*
X162294035Y-100876011D01*
X162387299Y-100908646D01*
X162417730Y-100911500D01*
X162417734Y-100911500D01*
X163766270Y-100911500D01*
X163796699Y-100908646D01*
X163796701Y-100908646D01*
X163867328Y-100883932D01*
X163924882Y-100863793D01*
X164034150Y-100783150D01*
X164114793Y-100673882D01*
X164122504Y-100651844D01*
X172780000Y-100651844D01*
X172786401Y-100711372D01*
X172786403Y-100711379D01*
X172836645Y-100846086D01*
X172836649Y-100846093D01*
X172922809Y-100961187D01*
X172922812Y-100961190D01*
X173037906Y-101047350D01*
X173037913Y-101047354D01*
X173172620Y-101097596D01*
X173172627Y-101097598D01*
X173232155Y-101103999D01*
X173232172Y-101104000D01*
X174780000Y-101104000D01*
X174780000Y-99354000D01*
X175280000Y-99354000D01*
X175280000Y-101104000D01*
X176827828Y-101104000D01*
X176827844Y-101103999D01*
X176887372Y-101097598D01*
X176887379Y-101097596D01*
X177022086Y-101047354D01*
X177022093Y-101047350D01*
X177137187Y-100961190D01*
X177137190Y-100961187D01*
X177223350Y-100846093D01*
X177223354Y-100846086D01*
X177273596Y-100711379D01*
X177273598Y-100711372D01*
X177279999Y-100651844D01*
X177280000Y-100651827D01*
X177280000Y-99104000D01*
X176463686Y-99104000D01*
X176489493Y-99063844D01*
X176530000Y-98925889D01*
X176530000Y-98782111D01*
X176489493Y-98644156D01*
X176463686Y-98604000D01*
X177280000Y-98604000D01*
X177280000Y-97056172D01*
X177279999Y-97056155D01*
X177273598Y-96996627D01*
X177273596Y-96996620D01*
X177223354Y-96861913D01*
X177223350Y-96861906D01*
X177137190Y-96746812D01*
X177137187Y-96746809D01*
X177022093Y-96660649D01*
X177022086Y-96660645D01*
X176887379Y-96610403D01*
X176887372Y-96610401D01*
X176827844Y-96604000D01*
X175280000Y-96604000D01*
X175280000Y-98354000D01*
X174780000Y-98354000D01*
X174780000Y-96604000D01*
X173232155Y-96604000D01*
X173172627Y-96610401D01*
X173172620Y-96610403D01*
X173037913Y-96660645D01*
X173037906Y-96660649D01*
X172922812Y-96746809D01*
X172922809Y-96746812D01*
X172836649Y-96861906D01*
X172836645Y-96861913D01*
X172786403Y-96996620D01*
X172786401Y-96996627D01*
X172780000Y-97056155D01*
X172780000Y-98604000D01*
X173596314Y-98604000D01*
X173570507Y-98644156D01*
X173530000Y-98782111D01*
X173530000Y-98925889D01*
X173570507Y-99063844D01*
X173596314Y-99104000D01*
X172780000Y-99104000D01*
X172780000Y-100651844D01*
X164122504Y-100651844D01*
X164140078Y-100601621D01*
X164159646Y-100545701D01*
X164159646Y-100545699D01*
X164162500Y-100515269D01*
X164162500Y-98716730D01*
X164159646Y-98686300D01*
X164159646Y-98686298D01*
X164114793Y-98558119D01*
X164114792Y-98558117D01*
X164110278Y-98552001D01*
X164034150Y-98448850D01*
X163924882Y-98368207D01*
X163924880Y-98368206D01*
X163796700Y-98323353D01*
X163766270Y-98320500D01*
X163766266Y-98320500D01*
X162713253Y-98320500D01*
X162646214Y-98300815D01*
X162600459Y-98248011D01*
X162590515Y-98178853D01*
X162619540Y-98115297D01*
X162625572Y-98108819D01*
X163777573Y-96956819D01*
X163838896Y-96923334D01*
X163865254Y-96920500D01*
X167957431Y-96920500D01*
X167957433Y-96920500D01*
X167978501Y-96913654D01*
X167997417Y-96909112D01*
X168019304Y-96905646D01*
X168039044Y-96895586D01*
X168057011Y-96888144D01*
X168078090Y-96881296D01*
X168096026Y-96868263D01*
X168112588Y-96858114D01*
X168132342Y-96848050D01*
X168147834Y-96832557D01*
X168147841Y-96832552D01*
X171044394Y-93935999D01*
X175409326Y-93935999D01*
X175409327Y-93936000D01*
X176443030Y-93936000D01*
X176403815Y-94030674D01*
X176383366Y-94186000D01*
X176403815Y-94341326D01*
X176443030Y-94436000D01*
X175410924Y-94436000D01*
X175443816Y-94588619D01*
X175443816Y-94588620D01*
X175530767Y-94805005D01*
X175653041Y-95003592D01*
X175807117Y-95178656D01*
X175807121Y-95178660D01*
X175988554Y-95325157D01*
X175988560Y-95325161D01*
X176192153Y-95438895D01*
X176412038Y-95516585D01*
X176412046Y-95516587D01*
X176641887Y-95555999D01*
X176641896Y-95556000D01*
X176733500Y-95556000D01*
X176733500Y-94726469D01*
X176828174Y-94765685D01*
X176944503Y-94781000D01*
X177022497Y-94781000D01*
X177138826Y-94765685D01*
X177233500Y-94726469D01*
X177233500Y-95556000D01*
X177266695Y-95556000D01*
X177266712Y-95555999D01*
X177440863Y-95541177D01*
X177666551Y-95482412D01*
X177879052Y-95386356D01*
X177879060Y-95386351D01*
X178072271Y-95255764D01*
X178240639Y-95094396D01*
X178240640Y-95094395D01*
X178379310Y-94906902D01*
X178484303Y-94698661D01*
X178552593Y-94475670D01*
X178557673Y-94436000D01*
X177523970Y-94436000D01*
X177563185Y-94341326D01*
X177583634Y-94186000D01*
X177563185Y-94030674D01*
X177523970Y-93936000D01*
X178556076Y-93936000D01*
X178556075Y-93935999D01*
X178523183Y-93783380D01*
X178523183Y-93783379D01*
X178436232Y-93566994D01*
X178313958Y-93368407D01*
X178159882Y-93193343D01*
X178159878Y-93193339D01*
X177978445Y-93046842D01*
X177978439Y-93046838D01*
X177802860Y-92948754D01*
X177753934Y-92898874D01*
X177739741Y-92830461D01*
X177764788Y-92765235D01*
X177821123Y-92723906D01*
X177863334Y-92716500D01*
X177882770Y-92716500D01*
X177913199Y-92713646D01*
X177913201Y-92713646D01*
X177977290Y-92691219D01*
X178041382Y-92668793D01*
X178150650Y-92588150D01*
X178231293Y-92478882D01*
X178265985Y-92379738D01*
X178276146Y-92350701D01*
X178276146Y-92350699D01*
X178279000Y-92320269D01*
X178279000Y-90971730D01*
X178276146Y-90941300D01*
X178276146Y-90941298D01*
X178242506Y-90845163D01*
X178231293Y-90813118D01*
X178150650Y-90703850D01*
X178041382Y-90623207D01*
X178041380Y-90623206D01*
X177913200Y-90578353D01*
X177882770Y-90575500D01*
X177882766Y-90575500D01*
X176084234Y-90575500D01*
X176084230Y-90575500D01*
X176053800Y-90578353D01*
X176053798Y-90578353D01*
X175925619Y-90623206D01*
X175925617Y-90623207D01*
X175816350Y-90703850D01*
X175735707Y-90813117D01*
X175735706Y-90813119D01*
X175690853Y-90941298D01*
X175690853Y-90941300D01*
X175688000Y-90971730D01*
X175688000Y-92320269D01*
X175690853Y-92350699D01*
X175690853Y-92350701D01*
X175730619Y-92464342D01*
X175735707Y-92478882D01*
X175816350Y-92588150D01*
X175925618Y-92668793D01*
X175968345Y-92683744D01*
X176053799Y-92713646D01*
X176084230Y-92716500D01*
X176107999Y-92716500D01*
X176175038Y-92736185D01*
X176220793Y-92788989D01*
X176230737Y-92858147D01*
X176201712Y-92921703D01*
X176159075Y-92953492D01*
X176087947Y-92985643D01*
X176087939Y-92985648D01*
X175894728Y-93116235D01*
X175726360Y-93277603D01*
X175726359Y-93277604D01*
X175587689Y-93465097D01*
X175482696Y-93673338D01*
X175414406Y-93896329D01*
X175409326Y-93935999D01*
X171044394Y-93935999D01*
X175813983Y-89166409D01*
X175836550Y-89143842D01*
X175846607Y-89124101D01*
X175856777Y-89107507D01*
X175869796Y-89089590D01*
X175876642Y-89068516D01*
X175884085Y-89050547D01*
X175894146Y-89030804D01*
X175897612Y-89008917D01*
X175902155Y-88989998D01*
X175906364Y-88977044D01*
X175909000Y-88968933D01*
X175909000Y-88842067D01*
X175909000Y-88007442D01*
X175928685Y-87940403D01*
X175981489Y-87894648D01*
X176050647Y-87884704D01*
X176111665Y-87911589D01*
X176175186Y-87963719D01*
X176180882Y-87968393D01*
X176180889Y-87968399D01*
X176366850Y-88067797D01*
X176366852Y-88067797D01*
X176366855Y-88067799D01*
X176568645Y-88129011D01*
X176568644Y-88129011D01*
X176607960Y-88132883D01*
X176725907Y-88144500D01*
X176725910Y-88144500D01*
X177281090Y-88144500D01*
X177281093Y-88144500D01*
X177438355Y-88129011D01*
X177640145Y-88067799D01*
X177640149Y-88067797D01*
X177826110Y-87968399D01*
X177826112Y-87968396D01*
X177826116Y-87968395D01*
X177989121Y-87834621D01*
X178122895Y-87671616D01*
X178122896Y-87671612D01*
X178122899Y-87671610D01*
X178222297Y-87485649D01*
X178222297Y-87485648D01*
X178222299Y-87485645D01*
X178283511Y-87283855D01*
X178304180Y-87074000D01*
X178283511Y-86864145D01*
X178222299Y-86662355D01*
X178222297Y-86662352D01*
X178222297Y-86662350D01*
X178122899Y-86476389D01*
X178122894Y-86476383D01*
X178107181Y-86457237D01*
X178072558Y-86415048D01*
X177989121Y-86313378D01*
X177826116Y-86179605D01*
X177826110Y-86179600D01*
X177640149Y-86080202D01*
X177539250Y-86049595D01*
X177438355Y-86018989D01*
X177438353Y-86018988D01*
X177438355Y-86018988D01*
X177316959Y-86007032D01*
X177281093Y-86003500D01*
X176725907Y-86003500D01*
X176687089Y-86007323D01*
X176568646Y-86018988D01*
X176366844Y-86080204D01*
X176361223Y-86082533D01*
X176360779Y-86081462D01*
X176298452Y-86094428D01*
X176233213Y-86069417D01*
X176191852Y-86013105D01*
X176187502Y-85943371D01*
X176220738Y-85883153D01*
X176463076Y-85640816D01*
X176524397Y-85607334D01*
X176550755Y-85604500D01*
X177902770Y-85604500D01*
X177933199Y-85601646D01*
X177933201Y-85601646D01*
X177997290Y-85579219D01*
X178061382Y-85556793D01*
X178170650Y-85476150D01*
X178251293Y-85366882D01*
X178283798Y-85273988D01*
X178296146Y-85238701D01*
X178296146Y-85238699D01*
X178299000Y-85208269D01*
X178299000Y-83859730D01*
X178296146Y-83829300D01*
X178296146Y-83829298D01*
X178251293Y-83701119D01*
X178251292Y-83701117D01*
X178245302Y-83693001D01*
X178170650Y-83591850D01*
X178061382Y-83511207D01*
X178061380Y-83511206D01*
X177933200Y-83466353D01*
X177902770Y-83463500D01*
X177902766Y-83463500D01*
X176104234Y-83463500D01*
X176104230Y-83463500D01*
X176073800Y-83466353D01*
X176073798Y-83466353D01*
X175945619Y-83511206D01*
X175945617Y-83511207D01*
X175836350Y-83591850D01*
X175755707Y-83701117D01*
X175755706Y-83701119D01*
X175710853Y-83829298D01*
X175710853Y-83829300D01*
X175708000Y-83859730D01*
X175708000Y-84009500D01*
X175688315Y-84076539D01*
X175635511Y-84122294D01*
X175584000Y-84133500D01*
X160951255Y-84133500D01*
X160884216Y-84113815D01*
X160863574Y-84097181D01*
X155086073Y-78319680D01*
X155052588Y-78258357D01*
X155054473Y-78232001D01*
X156874318Y-78232001D01*
X156894955Y-78388760D01*
X156894956Y-78388762D01*
X156955464Y-78534841D01*
X157051718Y-78660282D01*
X157177159Y-78756536D01*
X157323238Y-78817044D01*
X157401619Y-78827363D01*
X157479999Y-78837682D01*
X157480000Y-78837682D01*
X157480001Y-78837682D01*
X157532254Y-78830802D01*
X157636762Y-78817044D01*
X157782841Y-78756536D01*
X157908282Y-78660282D01*
X157949923Y-78606013D01*
X158006351Y-78564811D01*
X158048299Y-78557500D01*
X189805812Y-78557500D01*
X189872851Y-78577185D01*
X189893493Y-78593819D01*
X192661988Y-81362314D01*
X192695473Y-81423637D01*
X192697246Y-81466179D01*
X192688318Y-81533997D01*
X192688318Y-81534001D01*
X192708955Y-81690760D01*
X192708956Y-81690762D01*
X192769464Y-81836841D01*
X192865718Y-81962282D01*
X192991159Y-82058536D01*
X193137238Y-82119044D01*
X193215619Y-82129363D01*
X193293999Y-82139682D01*
X193294000Y-82139682D01*
X193294001Y-82139682D01*
X193346254Y-82132802D01*
X193450762Y-82119044D01*
X193596841Y-82058536D01*
X193722282Y-81962282D01*
X193818536Y-81836841D01*
X193879044Y-81690762D01*
X193899682Y-81534000D01*
X193879044Y-81377238D01*
X193818536Y-81231159D01*
X193722282Y-81105718D01*
X193596841Y-81009464D01*
X193450762Y-80948956D01*
X193450760Y-80948955D01*
X193294001Y-80928318D01*
X193293997Y-80928318D01*
X193226179Y-80937246D01*
X193157144Y-80926480D01*
X193122314Y-80901988D01*
X190236044Y-78015718D01*
X190228734Y-78007741D01*
X190204456Y-77978807D01*
X190204455Y-77978806D01*
X190171734Y-77959914D01*
X190162616Y-77954104D01*
X190131684Y-77932446D01*
X190126861Y-77930197D01*
X190110055Y-77923235D01*
X190105042Y-77921411D01*
X190067852Y-77914852D01*
X190057298Y-77912512D01*
X190020808Y-77902735D01*
X189983181Y-77906028D01*
X189972372Y-77906500D01*
X158048299Y-77906500D01*
X157981260Y-77886815D01*
X157949923Y-77857986D01*
X157908283Y-77803719D01*
X157908282Y-77803718D01*
X157782841Y-77707464D01*
X157636762Y-77646956D01*
X157636760Y-77646955D01*
X157480001Y-77626318D01*
X157479999Y-77626318D01*
X157323239Y-77646955D01*
X157323237Y-77646956D01*
X157177160Y-77707463D01*
X157051718Y-77803718D01*
X156955463Y-77929160D01*
X156894956Y-78075237D01*
X156894955Y-78075239D01*
X156874318Y-78231998D01*
X156874318Y-78232001D01*
X155054473Y-78232001D01*
X155057572Y-78188665D01*
X155086073Y-78144318D01*
X156776391Y-76454001D01*
X161446318Y-76454001D01*
X161466955Y-76610760D01*
X161466956Y-76610762D01*
X161527464Y-76756841D01*
X161623718Y-76882282D01*
X161749159Y-76978536D01*
X161895238Y-77039044D01*
X161923548Y-77042771D01*
X162051999Y-77059682D01*
X162052000Y-77059682D01*
X162158171Y-77045704D01*
X162227206Y-77056469D01*
X162279462Y-77102849D01*
X162297294Y-77152452D01*
X162299006Y-77165457D01*
X162299008Y-77165463D01*
X162359516Y-77311542D01*
X162455770Y-77436983D01*
X162581211Y-77533237D01*
X162727290Y-77593745D01*
X162805671Y-77604064D01*
X162884051Y-77614383D01*
X162884052Y-77614383D01*
X162884053Y-77614383D01*
X162936306Y-77607503D01*
X163040814Y-77593745D01*
X163186893Y-77533237D01*
X163312334Y-77436983D01*
X163408588Y-77311542D01*
X163469096Y-77165463D01*
X163484198Y-77050753D01*
X163489734Y-77008702D01*
X163489734Y-77008699D01*
X163469096Y-76851940D01*
X163469096Y-76851939D01*
X163408588Y-76705860D01*
X163408587Y-76705859D01*
X163408587Y-76705858D01*
X163362889Y-76646303D01*
X163337695Y-76581134D01*
X163351734Y-76512689D01*
X163373580Y-76483140D01*
X163802903Y-76053819D01*
X163864226Y-76020334D01*
X163890584Y-76017500D01*
X169476506Y-76017500D01*
X169543545Y-76037185D01*
X169564188Y-76053819D01*
X169635661Y-76125293D01*
X169642968Y-76133268D01*
X169657980Y-76151159D01*
X169667240Y-76162194D01*
X169667241Y-76162195D01*
X169667243Y-76162196D01*
X169699948Y-76181078D01*
X169709071Y-76186890D01*
X169740011Y-76208554D01*
X169740014Y-76208554D01*
X169744871Y-76210820D01*
X169761628Y-76217760D01*
X169766647Y-76219586D01*
X169766650Y-76219588D01*
X169803836Y-76226144D01*
X169814399Y-76228486D01*
X169832628Y-76233370D01*
X169850888Y-76238263D01*
X169888506Y-76234971D01*
X169899313Y-76234500D01*
X170627701Y-76234500D01*
X170694740Y-76254185D01*
X170726077Y-76283014D01*
X170736990Y-76297237D01*
X170767718Y-76337282D01*
X170893159Y-76433536D01*
X171039238Y-76494044D01*
X171117619Y-76504363D01*
X171195999Y-76514682D01*
X171196000Y-76514682D01*
X171196001Y-76514682D01*
X171248254Y-76507802D01*
X171352762Y-76494044D01*
X171498841Y-76433536D01*
X171624282Y-76337282D01*
X171720536Y-76211841D01*
X171781044Y-76065762D01*
X171794802Y-75961254D01*
X171801682Y-75909001D01*
X171801682Y-75908998D01*
X171781044Y-75752239D01*
X171781044Y-75752238D01*
X171720536Y-75606159D01*
X171624282Y-75480718D01*
X171498841Y-75384464D01*
X171352762Y-75323956D01*
X171352760Y-75323955D01*
X171196001Y-75303318D01*
X171195999Y-75303318D01*
X171039239Y-75323955D01*
X171039238Y-75323956D01*
X170949992Y-75360922D01*
X170880523Y-75368390D01*
X170818044Y-75337114D01*
X170782392Y-75277025D01*
X170779602Y-75230179D01*
X170785682Y-75184000D01*
X170765044Y-75027238D01*
X170704536Y-74881159D01*
X170608282Y-74755718D01*
X170482841Y-74659464D01*
X170336762Y-74598956D01*
X170336760Y-74598955D01*
X170180001Y-74578318D01*
X170179999Y-74578318D01*
X170023239Y-74598955D01*
X170023237Y-74598956D01*
X169877160Y-74659463D01*
X169751716Y-74755719D01*
X169710077Y-74809986D01*
X169653649Y-74851189D01*
X169611701Y-74858500D01*
X163595619Y-74858500D01*
X163584812Y-74858028D01*
X163582524Y-74857827D01*
X163547192Y-74854736D01*
X163547191Y-74854736D01*
X163510711Y-74864511D01*
X163500156Y-74866852D01*
X163462954Y-74873412D01*
X163457962Y-74875229D01*
X163441117Y-74882206D01*
X163436313Y-74884446D01*
X163405378Y-74906107D01*
X163396261Y-74911916D01*
X163372946Y-74925378D01*
X163363545Y-74930806D01*
X163363543Y-74930807D01*
X163363542Y-74930809D01*
X163339261Y-74959744D01*
X163331956Y-74967715D01*
X162424294Y-75875378D01*
X162362971Y-75908863D01*
X162293280Y-75903879D01*
X162289161Y-75902258D01*
X162208765Y-75868957D01*
X162208760Y-75868955D01*
X162052001Y-75848318D01*
X162051999Y-75848318D01*
X161895239Y-75868955D01*
X161895237Y-75868956D01*
X161749160Y-75929463D01*
X161623718Y-76025718D01*
X161527463Y-76151160D01*
X161466956Y-76297237D01*
X161466955Y-76297239D01*
X161446318Y-76453998D01*
X161446318Y-76454001D01*
X156776391Y-76454001D01*
X156853495Y-76376897D01*
X158625573Y-74604819D01*
X158686896Y-74571334D01*
X158713254Y-74568500D01*
X160591431Y-74568500D01*
X160591433Y-74568500D01*
X160612501Y-74561654D01*
X160631417Y-74557112D01*
X160653304Y-74553646D01*
X160673044Y-74543586D01*
X160691011Y-74536144D01*
X160712090Y-74529296D01*
X160730026Y-74516263D01*
X160746588Y-74506114D01*
X160766342Y-74496050D01*
X160781834Y-74480557D01*
X160781841Y-74480552D01*
X162823554Y-72438839D01*
X164877819Y-70384572D01*
X164939142Y-70351088D01*
X165008834Y-70356072D01*
X165064767Y-70397944D01*
X165089184Y-70463408D01*
X165089500Y-70472254D01*
X165089500Y-70513752D01*
X165101131Y-70572229D01*
X165101132Y-70572230D01*
X165145447Y-70638552D01*
X165211769Y-70682867D01*
X165211770Y-70682868D01*
X165270247Y-70694499D01*
X165270250Y-70694500D01*
X165270252Y-70694500D01*
X167009750Y-70694500D01*
X167009751Y-70694499D01*
X167024568Y-70691552D01*
X167068229Y-70682868D01*
X167068229Y-70682867D01*
X167068231Y-70682867D01*
X167134552Y-70638552D01*
X167178867Y-70572231D01*
X167178867Y-70572229D01*
X167178868Y-70572229D01*
X167190135Y-70515581D01*
X167190500Y-70513748D01*
X167190500Y-69644000D01*
X167624417Y-69644000D01*
X167644699Y-69849932D01*
X167660322Y-69901433D01*
X167704768Y-70047954D01*
X167802315Y-70230450D01*
X167802317Y-70230452D01*
X167933589Y-70390410D01*
X167945425Y-70400123D01*
X168093550Y-70521685D01*
X168276046Y-70619232D01*
X168474066Y-70679300D01*
X168474065Y-70679300D01*
X168492529Y-70681118D01*
X168680000Y-70699583D01*
X168885934Y-70679300D01*
X169083954Y-70619232D01*
X169266450Y-70521685D01*
X169426410Y-70390410D01*
X169557685Y-70230450D01*
X169655232Y-70047954D01*
X169715300Y-69849934D01*
X169735583Y-69644000D01*
X170164417Y-69644000D01*
X170184699Y-69849932D01*
X170200322Y-69901433D01*
X170244768Y-70047954D01*
X170342315Y-70230450D01*
X170342317Y-70230452D01*
X170473589Y-70390410D01*
X170485425Y-70400123D01*
X170633550Y-70521685D01*
X170816046Y-70619232D01*
X170816051Y-70619233D01*
X170817951Y-70620021D01*
X170818796Y-70620701D01*
X170821419Y-70622104D01*
X170821153Y-70622601D01*
X170872355Y-70663862D01*
X170894421Y-70730156D01*
X170894500Y-70734583D01*
X170894500Y-71378372D01*
X170894028Y-71389181D01*
X170890735Y-71426808D01*
X170900512Y-71463298D01*
X170902852Y-71473852D01*
X170909411Y-71511042D01*
X170911235Y-71516055D01*
X170918197Y-71532861D01*
X170920446Y-71537684D01*
X170942104Y-71568616D01*
X170947914Y-71577734D01*
X170966806Y-71610455D01*
X170995743Y-71634736D01*
X171003718Y-71642044D01*
X171325988Y-71964314D01*
X171359473Y-72025637D01*
X171361246Y-72068179D01*
X171352318Y-72135997D01*
X171352318Y-72136001D01*
X171372955Y-72292760D01*
X171372956Y-72292762D01*
X171425552Y-72419741D01*
X171433464Y-72438841D01*
X171529718Y-72564282D01*
X171655159Y-72660536D01*
X171801238Y-72721044D01*
X171879619Y-72731363D01*
X171957999Y-72741682D01*
X171958000Y-72741682D01*
X171958001Y-72741682D01*
X172010254Y-72734802D01*
X172114762Y-72721044D01*
X172260841Y-72660536D01*
X172282390Y-72644001D01*
X187608318Y-72644001D01*
X187628955Y-72800760D01*
X187628956Y-72800762D01*
X187689464Y-72946841D01*
X187785718Y-73072282D01*
X187911159Y-73168536D01*
X188057238Y-73229044D01*
X188103147Y-73235088D01*
X188213999Y-73249682D01*
X188214000Y-73249682D01*
X188214001Y-73249682D01*
X188298427Y-73238567D01*
X188370762Y-73229044D01*
X188516841Y-73168536D01*
X188642282Y-73072282D01*
X188683923Y-73018013D01*
X188740351Y-72976811D01*
X188782299Y-72969500D01*
X189043812Y-72969500D01*
X189110851Y-72989185D01*
X189131493Y-73005819D01*
X194319950Y-78194276D01*
X194327257Y-78202250D01*
X194351541Y-78231190D01*
X194351543Y-78231191D01*
X194351545Y-78231194D01*
X194351547Y-78231195D01*
X194351548Y-78231196D01*
X194384256Y-78250080D01*
X194393379Y-78255892D01*
X194424313Y-78277552D01*
X194424316Y-78277554D01*
X194424319Y-78277554D01*
X194429176Y-78279820D01*
X194445933Y-78286760D01*
X194450952Y-78288586D01*
X194450955Y-78288588D01*
X194488141Y-78295144D01*
X194498704Y-78297486D01*
X194516933Y-78302370D01*
X194535193Y-78307263D01*
X194572811Y-78303971D01*
X194583618Y-78303500D01*
X196068372Y-78303500D01*
X196079180Y-78303971D01*
X196116807Y-78307264D01*
X196153319Y-78297479D01*
X196163830Y-78295149D01*
X196201045Y-78288588D01*
X196201050Y-78288584D01*
X196206099Y-78286747D01*
X196222824Y-78279819D01*
X196227681Y-78277554D01*
X196227684Y-78277554D01*
X196258625Y-78255887D01*
X196267739Y-78250082D01*
X196300455Y-78231194D01*
X196300459Y-78231190D01*
X196324736Y-78202256D01*
X196332036Y-78194288D01*
X197440315Y-77086009D01*
X197501636Y-77052526D01*
X197544180Y-77050753D01*
X197611999Y-77059682D01*
X197612000Y-77059682D01*
X197612001Y-77059682D01*
X197664254Y-77052802D01*
X197768762Y-77039044D01*
X197914841Y-76978536D01*
X198040282Y-76882282D01*
X198136536Y-76756841D01*
X198197044Y-76610762D01*
X198217682Y-76454000D01*
X198197044Y-76297238D01*
X198136536Y-76151159D01*
X198040282Y-76025718D01*
X197914841Y-75929464D01*
X197895037Y-75921261D01*
X197768762Y-75868956D01*
X197768760Y-75868955D01*
X197612001Y-75848318D01*
X197611999Y-75848318D01*
X197455239Y-75868955D01*
X197455237Y-75868956D01*
X197309160Y-75929463D01*
X197183718Y-76025718D01*
X197087463Y-76151160D01*
X197026956Y-76297237D01*
X197026955Y-76297239D01*
X197006318Y-76453998D01*
X197006318Y-76454001D01*
X197015246Y-76521818D01*
X197004480Y-76590853D01*
X196979988Y-76625684D01*
X195989493Y-77616181D01*
X195928170Y-77649666D01*
X195901812Y-77652500D01*
X194750188Y-77652500D01*
X194683149Y-77632815D01*
X194662507Y-77616181D01*
X189474044Y-72427718D01*
X189466734Y-72419741D01*
X189442456Y-72390807D01*
X189442455Y-72390806D01*
X189409734Y-72371914D01*
X189400616Y-72366104D01*
X189369684Y-72344446D01*
X189364861Y-72342197D01*
X189348055Y-72335235D01*
X189343042Y-72333411D01*
X189305852Y-72326852D01*
X189295298Y-72324512D01*
X189258808Y-72314735D01*
X189221181Y-72318028D01*
X189210372Y-72318500D01*
X188782299Y-72318500D01*
X188715260Y-72298815D01*
X188683923Y-72269986D01*
X188642283Y-72215719D01*
X188642282Y-72215718D01*
X188516841Y-72119464D01*
X188370762Y-72058956D01*
X188370760Y-72058955D01*
X188214001Y-72038318D01*
X188213999Y-72038318D01*
X188057239Y-72058955D01*
X188057237Y-72058956D01*
X187911160Y-72119463D01*
X187785718Y-72215718D01*
X187689463Y-72341160D01*
X187628956Y-72487237D01*
X187628955Y-72487239D01*
X187608318Y-72643998D01*
X187608318Y-72644001D01*
X172282390Y-72644001D01*
X172386282Y-72564282D01*
X172482536Y-72438841D01*
X172543044Y-72292762D01*
X172563682Y-72136000D01*
X172543044Y-71979238D01*
X172482536Y-71833159D01*
X172386282Y-71707718D01*
X172260841Y-71611464D01*
X172114762Y-71550956D01*
X172114760Y-71550955D01*
X171958001Y-71530318D01*
X171957997Y-71530318D01*
X171890179Y-71539246D01*
X171821144Y-71528480D01*
X171786314Y-71503988D01*
X171581819Y-71299493D01*
X171548334Y-71238170D01*
X171545500Y-71211812D01*
X171545500Y-70734583D01*
X171565185Y-70667544D01*
X171617989Y-70621789D01*
X171622049Y-70620021D01*
X171623945Y-70619234D01*
X171623954Y-70619232D01*
X171806450Y-70521685D01*
X171966410Y-70390410D01*
X172097685Y-70230450D01*
X172195232Y-70047954D01*
X172255300Y-69849934D01*
X172275583Y-69644000D01*
X172704417Y-69644000D01*
X172724699Y-69849932D01*
X172740322Y-69901433D01*
X172784768Y-70047954D01*
X172882315Y-70230450D01*
X172882317Y-70230452D01*
X173013589Y-70390410D01*
X173025425Y-70400123D01*
X173173550Y-70521685D01*
X173356046Y-70619232D01*
X173554066Y-70679300D01*
X173554065Y-70679300D01*
X173572529Y-70681118D01*
X173760000Y-70699583D01*
X173965934Y-70679300D01*
X174163954Y-70619232D01*
X174346450Y-70521685D01*
X174506410Y-70390410D01*
X174637685Y-70230450D01*
X174735232Y-70047954D01*
X174795300Y-69849934D01*
X174815583Y-69644000D01*
X175244417Y-69644000D01*
X175264699Y-69849932D01*
X175280322Y-69901433D01*
X175324768Y-70047954D01*
X175422315Y-70230450D01*
X175422317Y-70230452D01*
X175553589Y-70390410D01*
X175565425Y-70400123D01*
X175713550Y-70521685D01*
X175896046Y-70619232D01*
X176094066Y-70679300D01*
X176094065Y-70679300D01*
X176112529Y-70681118D01*
X176300000Y-70699583D01*
X176505934Y-70679300D01*
X176703954Y-70619232D01*
X176886450Y-70521685D01*
X177046410Y-70390410D01*
X177177685Y-70230450D01*
X177275232Y-70047954D01*
X177295406Y-69981446D01*
X177333702Y-69923010D01*
X177397514Y-69894553D01*
X177466581Y-69905112D01*
X177518975Y-69951336D01*
X177533841Y-69985349D01*
X177566567Y-70107486D01*
X177566570Y-70107492D01*
X177666399Y-70321578D01*
X177801894Y-70515082D01*
X177968917Y-70682105D01*
X178162421Y-70817600D01*
X178376507Y-70917429D01*
X178376516Y-70917433D01*
X178590000Y-70974634D01*
X178590000Y-70079501D01*
X178697685Y-70128680D01*
X178804237Y-70144000D01*
X178875763Y-70144000D01*
X178982315Y-70128680D01*
X179090000Y-70079501D01*
X179090000Y-70974633D01*
X179303483Y-70917433D01*
X179303492Y-70917429D01*
X179517578Y-70817600D01*
X179711082Y-70682105D01*
X179878105Y-70515082D01*
X180013600Y-70321578D01*
X180113429Y-70107492D01*
X180113432Y-70107486D01*
X180170636Y-69894000D01*
X179273686Y-69894000D01*
X179299493Y-69853844D01*
X179301796Y-69846000D01*
X184597364Y-69846000D01*
X184654567Y-70059486D01*
X184654570Y-70059492D01*
X184754399Y-70273578D01*
X184889894Y-70467082D01*
X185056917Y-70634105D01*
X185250421Y-70769600D01*
X185464507Y-70869429D01*
X185464516Y-70869433D01*
X185678000Y-70926634D01*
X185678000Y-70031501D01*
X185785685Y-70080680D01*
X185892237Y-70096000D01*
X185963763Y-70096000D01*
X186070315Y-70080680D01*
X186178000Y-70031501D01*
X186178000Y-70926633D01*
X186391483Y-70869433D01*
X186391492Y-70869429D01*
X186605578Y-70769600D01*
X186799082Y-70634105D01*
X186966105Y-70467082D01*
X187101600Y-70273578D01*
X187201429Y-70059492D01*
X187201433Y-70059483D01*
X187234158Y-69937350D01*
X187270522Y-69877690D01*
X187333369Y-69847160D01*
X187402745Y-69855454D01*
X187456623Y-69899939D01*
X187472593Y-69933447D01*
X187492768Y-69999954D01*
X187590315Y-70182450D01*
X187590317Y-70182452D01*
X187721589Y-70342410D01*
X187791911Y-70400121D01*
X187881550Y-70473685D01*
X188064046Y-70571232D01*
X188262066Y-70631300D01*
X188262065Y-70631300D01*
X188280529Y-70633118D01*
X188468000Y-70651583D01*
X188673934Y-70631300D01*
X188871954Y-70571232D01*
X189054450Y-70473685D01*
X189214410Y-70342410D01*
X189345685Y-70182450D01*
X189443232Y-69999954D01*
X189503300Y-69801934D01*
X189523583Y-69596000D01*
X189952417Y-69596000D01*
X189972699Y-69801932D01*
X189988935Y-69855454D01*
X190032768Y-69999954D01*
X190130315Y-70182450D01*
X190130317Y-70182452D01*
X190261589Y-70342410D01*
X190331911Y-70400121D01*
X190421550Y-70473685D01*
X190604046Y-70571232D01*
X190802066Y-70631300D01*
X190802065Y-70631300D01*
X190820529Y-70633118D01*
X191008000Y-70651583D01*
X191213934Y-70631300D01*
X191411954Y-70571232D01*
X191594450Y-70473685D01*
X191754410Y-70342410D01*
X191885685Y-70182450D01*
X191983232Y-69999954D01*
X192043300Y-69801934D01*
X192063583Y-69596000D01*
X192492417Y-69596000D01*
X192512699Y-69801932D01*
X192528935Y-69855454D01*
X192572768Y-69999954D01*
X192670315Y-70182450D01*
X192670317Y-70182452D01*
X192801589Y-70342410D01*
X192871911Y-70400121D01*
X192961550Y-70473685D01*
X193144046Y-70571232D01*
X193342066Y-70631300D01*
X193342065Y-70631300D01*
X193360529Y-70633118D01*
X193548000Y-70651583D01*
X193753934Y-70631300D01*
X193951954Y-70571232D01*
X194134450Y-70473685D01*
X194144116Y-70465752D01*
X195037500Y-70465752D01*
X195049131Y-70524229D01*
X195049132Y-70524230D01*
X195093447Y-70590552D01*
X195159769Y-70634867D01*
X195159770Y-70634868D01*
X195218247Y-70646499D01*
X195218250Y-70646500D01*
X195218252Y-70646500D01*
X196957750Y-70646500D01*
X196957751Y-70646499D01*
X196975193Y-70643030D01*
X197016229Y-70634868D01*
X197016229Y-70634867D01*
X197016231Y-70634867D01*
X197082552Y-70590552D01*
X197126867Y-70524231D01*
X197126867Y-70524229D01*
X197126868Y-70524229D01*
X197137206Y-70472254D01*
X197138500Y-70465748D01*
X197138500Y-70044346D01*
X202811702Y-70044346D01*
X202821819Y-70282528D01*
X202821819Y-70282532D01*
X202872045Y-70515580D01*
X202939268Y-70682868D01*
X202960936Y-70736790D01*
X203085931Y-70939795D01*
X203243436Y-71118755D01*
X203428920Y-71268523D01*
X203637046Y-71384790D01*
X203762951Y-71429275D01*
X203861829Y-71464211D01*
X204096790Y-71504499D01*
X204096798Y-71504499D01*
X204096800Y-71504500D01*
X204096801Y-71504500D01*
X204275496Y-71504500D01*
X204275497Y-71504500D01*
X204275498Y-71504499D01*
X204275515Y-71504499D01*
X204453536Y-71489347D01*
X204453539Y-71489346D01*
X204453541Y-71489346D01*
X204684249Y-71429275D01*
X204816973Y-71369279D01*
X204901480Y-71331080D01*
X204901481Y-71331078D01*
X204901486Y-71331077D01*
X205099003Y-71197579D01*
X205271118Y-71032621D01*
X205412879Y-70840947D01*
X205520207Y-70628074D01*
X205590016Y-70400123D01*
X205620298Y-70163654D01*
X205610180Y-69925468D01*
X205559954Y-69692419D01*
X205471064Y-69471210D01*
X205346069Y-69268205D01*
X205188564Y-69089245D01*
X205003080Y-68939477D01*
X204889130Y-68875820D01*
X204794955Y-68823210D01*
X204570170Y-68743788D01*
X204335209Y-68703500D01*
X204335200Y-68703500D01*
X204156503Y-68703500D01*
X204156484Y-68703500D01*
X203978463Y-68718652D01*
X203747751Y-68778724D01*
X203530519Y-68876919D01*
X203530511Y-68876924D01*
X203333006Y-69010413D01*
X203332997Y-69010421D01*
X203160881Y-69175379D01*
X203019123Y-69367050D01*
X203019120Y-69367054D01*
X202911796Y-69579920D01*
X202911793Y-69579926D01*
X202841983Y-69807878D01*
X202811702Y-70044346D01*
X197138500Y-70044346D01*
X197138500Y-68726252D01*
X197138500Y-68726249D01*
X197138499Y-68726247D01*
X197126868Y-68667770D01*
X197126867Y-68667769D01*
X197082552Y-68601447D01*
X197016230Y-68557132D01*
X197016229Y-68557131D01*
X196957752Y-68545500D01*
X196957748Y-68545500D01*
X195218252Y-68545500D01*
X195218247Y-68545500D01*
X195159770Y-68557131D01*
X195159769Y-68557132D01*
X195093447Y-68601447D01*
X195049132Y-68667769D01*
X195049131Y-68667770D01*
X195037500Y-68726247D01*
X195037500Y-70465752D01*
X194144116Y-70465752D01*
X194294410Y-70342410D01*
X194425685Y-70182450D01*
X194523232Y-69999954D01*
X194583300Y-69801934D01*
X194603583Y-69596000D01*
X194583300Y-69390066D01*
X194523232Y-69192046D01*
X194425685Y-69009550D01*
X194361992Y-68931939D01*
X194294410Y-68849589D01*
X194144121Y-68726252D01*
X194134450Y-68718315D01*
X193951954Y-68620768D01*
X193753934Y-68560700D01*
X193753932Y-68560699D01*
X193753934Y-68560699D01*
X193548000Y-68540417D01*
X193342067Y-68560699D01*
X193144043Y-68620769D01*
X193066916Y-68661995D01*
X192961550Y-68718315D01*
X192961548Y-68718316D01*
X192961547Y-68718317D01*
X192801589Y-68849589D01*
X192670317Y-69009547D01*
X192670315Y-69009550D01*
X192647116Y-69052952D01*
X192572769Y-69192043D01*
X192512699Y-69390067D01*
X192492417Y-69596000D01*
X192063583Y-69596000D01*
X192043300Y-69390066D01*
X191983232Y-69192046D01*
X191885685Y-69009550D01*
X191821992Y-68931939D01*
X191754410Y-68849589D01*
X191604121Y-68726252D01*
X191594450Y-68718315D01*
X191411954Y-68620768D01*
X191213934Y-68560700D01*
X191213932Y-68560699D01*
X191213934Y-68560699D01*
X191008000Y-68540417D01*
X190802067Y-68560699D01*
X190604043Y-68620769D01*
X190526916Y-68661995D01*
X190421550Y-68718315D01*
X190421548Y-68718316D01*
X190421547Y-68718317D01*
X190261589Y-68849589D01*
X190130317Y-69009547D01*
X190130315Y-69009550D01*
X190107116Y-69052952D01*
X190032769Y-69192043D01*
X189972699Y-69390067D01*
X189952417Y-69596000D01*
X189523583Y-69596000D01*
X189503300Y-69390066D01*
X189443232Y-69192046D01*
X189345685Y-69009550D01*
X189281992Y-68931939D01*
X189214410Y-68849589D01*
X189064121Y-68726252D01*
X189054450Y-68718315D01*
X188871954Y-68620768D01*
X188673934Y-68560700D01*
X188673932Y-68560699D01*
X188673934Y-68560699D01*
X188468000Y-68540417D01*
X188262067Y-68560699D01*
X188064043Y-68620769D01*
X187986916Y-68661995D01*
X187881550Y-68718315D01*
X187881548Y-68718316D01*
X187881547Y-68718317D01*
X187721589Y-68849589D01*
X187590317Y-69009547D01*
X187590315Y-69009550D01*
X187567116Y-69052952D01*
X187492767Y-69192046D01*
X187472593Y-69258552D01*
X187434296Y-69316990D01*
X187370483Y-69345447D01*
X187301416Y-69334886D01*
X187249023Y-69288661D01*
X187234158Y-69254649D01*
X187201433Y-69132516D01*
X187201429Y-69132507D01*
X187101600Y-68918422D01*
X187101599Y-68918420D01*
X186966113Y-68724926D01*
X186966108Y-68724920D01*
X186799082Y-68557894D01*
X186605578Y-68422399D01*
X186391492Y-68322570D01*
X186391486Y-68322567D01*
X186178000Y-68265364D01*
X186178000Y-69160498D01*
X186070315Y-69111320D01*
X185963763Y-69096000D01*
X185892237Y-69096000D01*
X185785685Y-69111320D01*
X185678000Y-69160498D01*
X185678000Y-68265364D01*
X185677999Y-68265364D01*
X185464513Y-68322567D01*
X185464507Y-68322570D01*
X185250422Y-68422399D01*
X185250420Y-68422400D01*
X185056926Y-68557886D01*
X185056920Y-68557891D01*
X184889891Y-68724920D01*
X184889886Y-68724926D01*
X184754400Y-68918420D01*
X184754399Y-68918422D01*
X184654570Y-69132507D01*
X184654567Y-69132513D01*
X184597364Y-69345999D01*
X184597364Y-69346000D01*
X185494314Y-69346000D01*
X185468507Y-69386156D01*
X185428000Y-69524111D01*
X185428000Y-69667889D01*
X185468507Y-69805844D01*
X185494314Y-69846000D01*
X184597364Y-69846000D01*
X179301796Y-69846000D01*
X179340000Y-69715889D01*
X179340000Y-69572111D01*
X179299493Y-69434156D01*
X179273686Y-69394000D01*
X180170636Y-69394000D01*
X180170635Y-69393999D01*
X180113432Y-69180513D01*
X180113429Y-69180507D01*
X180013600Y-68966422D01*
X180013599Y-68966420D01*
X179878113Y-68772926D01*
X179878108Y-68772920D01*
X179711082Y-68605894D01*
X179517578Y-68470399D01*
X179303492Y-68370570D01*
X179303486Y-68370567D01*
X179090000Y-68313364D01*
X179090000Y-69208498D01*
X178982315Y-69159320D01*
X178875763Y-69144000D01*
X178804237Y-69144000D01*
X178697685Y-69159320D01*
X178590000Y-69208498D01*
X178590000Y-68313364D01*
X178589999Y-68313364D01*
X178376513Y-68370567D01*
X178376507Y-68370570D01*
X178162422Y-68470399D01*
X178162420Y-68470400D01*
X177968926Y-68605886D01*
X177968920Y-68605891D01*
X177801891Y-68772920D01*
X177801886Y-68772926D01*
X177666400Y-68966420D01*
X177666399Y-68966422D01*
X177566570Y-69180507D01*
X177566567Y-69180514D01*
X177533841Y-69302650D01*
X177497476Y-69362310D01*
X177434629Y-69392839D01*
X177365253Y-69384544D01*
X177311375Y-69340059D01*
X177295406Y-69306553D01*
X177275232Y-69240046D01*
X177177685Y-69057550D01*
X177102897Y-68966420D01*
X177046410Y-68897589D01*
X176928677Y-68800969D01*
X176886450Y-68766315D01*
X176703954Y-68668768D01*
X176505934Y-68608700D01*
X176505932Y-68608699D01*
X176505934Y-68608699D01*
X176300000Y-68588417D01*
X176094067Y-68608699D01*
X175959736Y-68649448D01*
X175899340Y-68667769D01*
X175896043Y-68668769D01*
X175827382Y-68705470D01*
X175713550Y-68766315D01*
X175713548Y-68766316D01*
X175713547Y-68766317D01*
X175553589Y-68897589D01*
X175426088Y-69052952D01*
X175422315Y-69057550D01*
X175401763Y-69096000D01*
X175324769Y-69240043D01*
X175324769Y-69240044D01*
X175324768Y-69240046D01*
X175324635Y-69240486D01*
X175264699Y-69438067D01*
X175244417Y-69644000D01*
X174815583Y-69644000D01*
X174795300Y-69438066D01*
X174735232Y-69240046D01*
X174637685Y-69057550D01*
X174562897Y-68966420D01*
X174506410Y-68897589D01*
X174388677Y-68800969D01*
X174346450Y-68766315D01*
X174163954Y-68668768D01*
X173965934Y-68608700D01*
X173965932Y-68608699D01*
X173965934Y-68608699D01*
X173760000Y-68588417D01*
X173554067Y-68608699D01*
X173419736Y-68649448D01*
X173359340Y-68667769D01*
X173356043Y-68668769D01*
X173287382Y-68705470D01*
X173173550Y-68766315D01*
X173173548Y-68766316D01*
X173173547Y-68766317D01*
X173013589Y-68897589D01*
X172886088Y-69052952D01*
X172882315Y-69057550D01*
X172861763Y-69096000D01*
X172784769Y-69240043D01*
X172784769Y-69240044D01*
X172784768Y-69240046D01*
X172784635Y-69240486D01*
X172724699Y-69438067D01*
X172704417Y-69644000D01*
X172275583Y-69644000D01*
X172255300Y-69438066D01*
X172195232Y-69240046D01*
X172097685Y-69057550D01*
X172022897Y-68966420D01*
X171966410Y-68897589D01*
X171848677Y-68800969D01*
X171806450Y-68766315D01*
X171623954Y-68668768D01*
X171425934Y-68608700D01*
X171425932Y-68608699D01*
X171425934Y-68608699D01*
X171220000Y-68588417D01*
X171014067Y-68608699D01*
X170879736Y-68649448D01*
X170819340Y-68667769D01*
X170816043Y-68668769D01*
X170747382Y-68705470D01*
X170633550Y-68766315D01*
X170633548Y-68766316D01*
X170633547Y-68766317D01*
X170473589Y-68897589D01*
X170346088Y-69052952D01*
X170342315Y-69057550D01*
X170321763Y-69096000D01*
X170244769Y-69240043D01*
X170244769Y-69240044D01*
X170244768Y-69240046D01*
X170244635Y-69240486D01*
X170184699Y-69438067D01*
X170164417Y-69644000D01*
X169735583Y-69644000D01*
X169715300Y-69438066D01*
X169655232Y-69240046D01*
X169557685Y-69057550D01*
X169482897Y-68966420D01*
X169426410Y-68897589D01*
X169308677Y-68800969D01*
X169266450Y-68766315D01*
X169083954Y-68668768D01*
X168885934Y-68608700D01*
X168885932Y-68608699D01*
X168885934Y-68608699D01*
X168680000Y-68588417D01*
X168474067Y-68608699D01*
X168339736Y-68649448D01*
X168279340Y-68667769D01*
X168276043Y-68668769D01*
X168207382Y-68705470D01*
X168093550Y-68766315D01*
X168093548Y-68766316D01*
X168093547Y-68766317D01*
X167933589Y-68897589D01*
X167806088Y-69052952D01*
X167802315Y-69057550D01*
X167781763Y-69096000D01*
X167704769Y-69240043D01*
X167704769Y-69240044D01*
X167704768Y-69240046D01*
X167704635Y-69240486D01*
X167644699Y-69438067D01*
X167624417Y-69644000D01*
X167190500Y-69644000D01*
X167190500Y-68774252D01*
X167190500Y-68774249D01*
X167190499Y-68774247D01*
X167178868Y-68715770D01*
X167178867Y-68715769D01*
X167134552Y-68649447D01*
X167068230Y-68605132D01*
X167068229Y-68605131D01*
X167009752Y-68593500D01*
X167009748Y-68593500D01*
X165270252Y-68593500D01*
X165270247Y-68593500D01*
X165211770Y-68605131D01*
X165211769Y-68605132D01*
X165145447Y-68649447D01*
X165101132Y-68715769D01*
X165101131Y-68715770D01*
X165089500Y-68774247D01*
X165089500Y-69121607D01*
X165069815Y-69188646D01*
X165017011Y-69234401D01*
X164997754Y-69240206D01*
X164997845Y-69240486D01*
X164967491Y-69250347D01*
X164948582Y-69254887D01*
X164926696Y-69258354D01*
X164906955Y-69268412D01*
X164888987Y-69275854D01*
X164867912Y-69282702D01*
X164867909Y-69282704D01*
X164849984Y-69295727D01*
X164833399Y-69305890D01*
X164813659Y-69315948D01*
X164802376Y-69327232D01*
X164791091Y-69338517D01*
X160398426Y-73731181D01*
X160337103Y-73764666D01*
X160310745Y-73767500D01*
X158432567Y-73767500D01*
X158411491Y-73774347D01*
X158392582Y-73778887D01*
X158370696Y-73782354D01*
X158350955Y-73792412D01*
X158332987Y-73799854D01*
X158311912Y-73806702D01*
X158311909Y-73806704D01*
X158293984Y-73819727D01*
X158277399Y-73829890D01*
X158257659Y-73839948D01*
X158246376Y-73851232D01*
X158235091Y-73862517D01*
X154254426Y-77843181D01*
X154193103Y-77876666D01*
X154166745Y-77879500D01*
X133799500Y-77879500D01*
X133732461Y-77859815D01*
X133686706Y-77807011D01*
X133675500Y-77755500D01*
X133675500Y-77651249D01*
X133675499Y-77651247D01*
X133663868Y-77592770D01*
X133663867Y-77592769D01*
X133619552Y-77526447D01*
X133553230Y-77482132D01*
X133553229Y-77482131D01*
X133494752Y-77470500D01*
X133494748Y-77470500D01*
X132237252Y-77470500D01*
X132237247Y-77470500D01*
X132178770Y-77482131D01*
X132178769Y-77482132D01*
X132112447Y-77526447D01*
X132068132Y-77592769D01*
X132068131Y-77592770D01*
X132056500Y-77651247D01*
X132056500Y-78908752D01*
X132068131Y-78967229D01*
X132068132Y-78967230D01*
X132112447Y-79033552D01*
X132178769Y-79077867D01*
X132178770Y-79077868D01*
X132237247Y-79089499D01*
X132237250Y-79089500D01*
X132237252Y-79089500D01*
X133494750Y-79089500D01*
X133494751Y-79089499D01*
X133509568Y-79086552D01*
X133553229Y-79077868D01*
X133553229Y-79077867D01*
X133553231Y-79077867D01*
X133619552Y-79033552D01*
X133663867Y-78967231D01*
X133663867Y-78967229D01*
X133663868Y-78967229D01*
X133675499Y-78908752D01*
X133675500Y-78908750D01*
X133675500Y-78804500D01*
X133695185Y-78737461D01*
X133747989Y-78691706D01*
X133799500Y-78680500D01*
X150590481Y-78680500D01*
X154262745Y-78680500D01*
X154329784Y-78700185D01*
X154350426Y-78716819D01*
X160477413Y-84843807D01*
X160477433Y-84843825D01*
X160495658Y-84862050D01*
X160515398Y-84872108D01*
X160531987Y-84882274D01*
X160549909Y-84895295D01*
X160549910Y-84895295D01*
X160549911Y-84895296D01*
X160570980Y-84902142D01*
X160588949Y-84909584D01*
X160608696Y-84919646D01*
X160630582Y-84923112D01*
X160649497Y-84927653D01*
X160670567Y-84934500D01*
X160702481Y-84934500D01*
X175584000Y-84934500D01*
X175651039Y-84954185D01*
X175696794Y-85006989D01*
X175708000Y-85058500D01*
X175708000Y-85211165D01*
X175706664Y-85211165D01*
X175691257Y-85273988D01*
X175671706Y-85299400D01*
X175203016Y-85768091D01*
X175203013Y-85768093D01*
X175203013Y-85768094D01*
X175191731Y-85779376D01*
X175180448Y-85790659D01*
X175180448Y-85790660D01*
X175170391Y-85810397D01*
X175160231Y-85826977D01*
X175147206Y-85844905D01*
X175147203Y-85844910D01*
X175140354Y-85865988D01*
X175132913Y-85883952D01*
X175122854Y-85903695D01*
X175119387Y-85925582D01*
X175114847Y-85944491D01*
X175108000Y-85965567D01*
X175108000Y-88688245D01*
X175088315Y-88755284D01*
X175071681Y-88775926D01*
X167764426Y-96083181D01*
X167703103Y-96116666D01*
X167676745Y-96119500D01*
X163611370Y-96119500D01*
X163611346Y-96119501D01*
X163584564Y-96119501D01*
X163563499Y-96126346D01*
X163544582Y-96130887D01*
X163522700Y-96134352D01*
X163522695Y-96134354D01*
X163502950Y-96144414D01*
X163484986Y-96151855D01*
X163463907Y-96158705D01*
X163445984Y-96171727D01*
X163429399Y-96181890D01*
X163409659Y-96191948D01*
X163398376Y-96203232D01*
X163387091Y-96214517D01*
X161185570Y-98416035D01*
X161124247Y-98449520D01*
X161054555Y-98444536D01*
X161039440Y-98437714D01*
X160963645Y-98397201D01*
X160761855Y-98335989D01*
X160761853Y-98335988D01*
X160761855Y-98335988D01*
X160552000Y-98315320D01*
X160342146Y-98335988D01*
X160140350Y-98397202D01*
X159954389Y-98496600D01*
X159954383Y-98496605D01*
X159791378Y-98630378D01*
X159657605Y-98793383D01*
X159657600Y-98793389D01*
X159558202Y-98979350D01*
X159496988Y-99181146D01*
X159487356Y-99278952D01*
X159481500Y-99338407D01*
X159481500Y-99893593D01*
X159482476Y-99903500D01*
X159496060Y-100041433D01*
X159483041Y-100110079D01*
X159460338Y-100141267D01*
X158947426Y-100654181D01*
X158886103Y-100687666D01*
X158859745Y-100690500D01*
X153354742Y-100690500D01*
X153287703Y-100670815D01*
X153241948Y-100618011D01*
X153232004Y-100548853D01*
X153237513Y-100526307D01*
X153237646Y-100525699D01*
X153240500Y-100495269D01*
X153240500Y-98696730D01*
X153237646Y-98666300D01*
X153237646Y-98666298D01*
X153204006Y-98570163D01*
X153192793Y-98538118D01*
X153112150Y-98428850D01*
X153002882Y-98348207D01*
X153002880Y-98348206D01*
X152874700Y-98303353D01*
X152844270Y-98300500D01*
X152844266Y-98300500D01*
X151495734Y-98300500D01*
X151495730Y-98300500D01*
X151465300Y-98303353D01*
X151465298Y-98303353D01*
X151337119Y-98348206D01*
X151337117Y-98348207D01*
X151227850Y-98428850D01*
X151147207Y-98538117D01*
X151147206Y-98538119D01*
X151102353Y-98666298D01*
X151102353Y-98666300D01*
X151099500Y-98696730D01*
X151099500Y-100199746D01*
X151079815Y-100266785D01*
X151027011Y-100312540D01*
X150957853Y-100322484D01*
X150894297Y-100293459D01*
X150887819Y-100287427D01*
X150721661Y-100121269D01*
X150688176Y-100059946D01*
X150685939Y-100021434D01*
X150689366Y-99986638D01*
X150700500Y-99873593D01*
X150700500Y-99318407D01*
X150685011Y-99161145D01*
X150623799Y-98959355D01*
X150623797Y-98959352D01*
X150623797Y-98959350D01*
X150524399Y-98773389D01*
X150524394Y-98773383D01*
X150390621Y-98610378D01*
X150227616Y-98476605D01*
X150227610Y-98476600D01*
X150041649Y-98377202D01*
X149940750Y-98346595D01*
X149839855Y-98315989D01*
X149839853Y-98315988D01*
X149839855Y-98315988D01*
X149630000Y-98295320D01*
X149420146Y-98315988D01*
X149218350Y-98377202D01*
X149032389Y-98476600D01*
X149032383Y-98476605D01*
X148869378Y-98610378D01*
X148735605Y-98773383D01*
X148735600Y-98773389D01*
X148636202Y-98959350D01*
X148574988Y-99161146D01*
X148571605Y-99195500D01*
X148559500Y-99318407D01*
X148559500Y-99873593D01*
X148561470Y-99893590D01*
X148574060Y-100021434D01*
X148561041Y-100090080D01*
X148538338Y-100121268D01*
X146432426Y-102227181D01*
X146371103Y-102260666D01*
X146344745Y-102263500D01*
X140703254Y-102263500D01*
X140636215Y-102243815D01*
X140615573Y-102227181D01*
X138893794Y-100505401D01*
X138888261Y-100495269D01*
X139415500Y-100495269D01*
X139418353Y-100525699D01*
X139418353Y-100525701D01*
X139450655Y-100618011D01*
X139463207Y-100653882D01*
X139543850Y-100763150D01*
X139653118Y-100843793D01*
X139672946Y-100850731D01*
X139781299Y-100888646D01*
X139811730Y-100891500D01*
X139811734Y-100891500D01*
X141160270Y-100891500D01*
X141190699Y-100888646D01*
X141190701Y-100888646D01*
X141261728Y-100863792D01*
X141318882Y-100843793D01*
X141428150Y-100763150D01*
X141508793Y-100653882D01*
X141534078Y-100581621D01*
X141553646Y-100525701D01*
X141553646Y-100525699D01*
X141556500Y-100495269D01*
X141556500Y-98696730D01*
X141553646Y-98666300D01*
X141553646Y-98666298D01*
X141520006Y-98570163D01*
X141508793Y-98538118D01*
X141428150Y-98428850D01*
X141318882Y-98348207D01*
X141318880Y-98348206D01*
X141190700Y-98303353D01*
X141160270Y-98300500D01*
X141160266Y-98300500D01*
X139811734Y-98300500D01*
X139811730Y-98300500D01*
X139781300Y-98303353D01*
X139781298Y-98303353D01*
X139653119Y-98348206D01*
X139653117Y-98348207D01*
X139543850Y-98428850D01*
X139463207Y-98538117D01*
X139463206Y-98538119D01*
X139418353Y-98666298D01*
X139418353Y-98666300D01*
X139415500Y-98696730D01*
X139415500Y-100495269D01*
X138888261Y-100495269D01*
X138860309Y-100444078D01*
X138865293Y-100374386D01*
X138872109Y-100359282D01*
X138939799Y-100232645D01*
X139001011Y-100030855D01*
X139016500Y-99873593D01*
X139016500Y-99318407D01*
X139001011Y-99161145D01*
X138939799Y-98959355D01*
X138939797Y-98959352D01*
X138939797Y-98959350D01*
X138840399Y-98773389D01*
X138840394Y-98773383D01*
X138706621Y-98610378D01*
X138543616Y-98476605D01*
X138543610Y-98476600D01*
X138357649Y-98377202D01*
X138256750Y-98346595D01*
X138155855Y-98315989D01*
X138155853Y-98315988D01*
X138155855Y-98315988D01*
X137946000Y-98295320D01*
X137736146Y-98315988D01*
X137534350Y-98377202D01*
X137348389Y-98476600D01*
X137348383Y-98476605D01*
X137185378Y-98610378D01*
X137051605Y-98773383D01*
X137051600Y-98773389D01*
X136952202Y-98959350D01*
X136946134Y-98979355D01*
X136907262Y-99107496D01*
X136868966Y-99165934D01*
X136805154Y-99194390D01*
X136788603Y-99195500D01*
X132325255Y-99195500D01*
X132258216Y-99175815D01*
X132237574Y-99159181D01*
X129090394Y-96012001D01*
X134522318Y-96012001D01*
X134542955Y-96168760D01*
X134542956Y-96168762D01*
X134603464Y-96314841D01*
X134699718Y-96440282D01*
X134825159Y-96536536D01*
X134971238Y-96597044D01*
X135049619Y-96607363D01*
X135127999Y-96617682D01*
X135128000Y-96617682D01*
X135128001Y-96617682D01*
X135183305Y-96610401D01*
X135284762Y-96597044D01*
X135430841Y-96536536D01*
X135556282Y-96440282D01*
X135652536Y-96314841D01*
X135713044Y-96168762D01*
X135713044Y-96168760D01*
X135716154Y-96161253D01*
X135719139Y-96162489D01*
X135747618Y-96115755D01*
X135810461Y-96085219D01*
X135831038Y-96083500D01*
X152888372Y-96083500D01*
X152899180Y-96083971D01*
X152936807Y-96087264D01*
X152936814Y-96087261D01*
X152947611Y-96086318D01*
X152947721Y-96087585D01*
X152999790Y-96087584D01*
X153005236Y-96089043D01*
X153005238Y-96089044D01*
X153083619Y-96099363D01*
X153161999Y-96109682D01*
X153162000Y-96109682D01*
X153162001Y-96109682D01*
X153214254Y-96102802D01*
X153318762Y-96089044D01*
X153464841Y-96028536D01*
X153590282Y-95932282D01*
X153686536Y-95806841D01*
X153747044Y-95660762D01*
X153767682Y-95504000D01*
X153757773Y-95428737D01*
X153752193Y-95386351D01*
X153747044Y-95347238D01*
X153686536Y-95201159D01*
X153590282Y-95075718D01*
X153464841Y-94979464D01*
X153318762Y-94918956D01*
X153318760Y-94918955D01*
X153162001Y-94898318D01*
X153161999Y-94898318D01*
X153005239Y-94918955D01*
X153005237Y-94918956D01*
X152859160Y-94979463D01*
X152733718Y-95075718D01*
X152637463Y-95201160D01*
X152614846Y-95255764D01*
X152576957Y-95347237D01*
X152573846Y-95354747D01*
X152570860Y-95353510D01*
X152542382Y-95400245D01*
X152479539Y-95430781D01*
X152458962Y-95432500D01*
X135401619Y-95432500D01*
X135390812Y-95432028D01*
X135388524Y-95431827D01*
X135353192Y-95428736D01*
X135342386Y-95429682D01*
X135342275Y-95428416D01*
X135290210Y-95428416D01*
X135284760Y-95426955D01*
X135128001Y-95406318D01*
X135127999Y-95406318D01*
X134971239Y-95426955D01*
X134971237Y-95426956D01*
X134825160Y-95487463D01*
X134699718Y-95583718D01*
X134603463Y-95709160D01*
X134542956Y-95855237D01*
X134542955Y-95855239D01*
X134522318Y-96011998D01*
X134522318Y-96012001D01*
X129090394Y-96012001D01*
X125174819Y-92096426D01*
X125141334Y-92035103D01*
X125138500Y-92008745D01*
X125138500Y-88462274D01*
X125158185Y-88395235D01*
X125159000Y-88394529D01*
X125360392Y-88394529D01*
X125381477Y-88427339D01*
X125385439Y-88446089D01*
X125398955Y-88548760D01*
X125398956Y-88548762D01*
X125458101Y-88691552D01*
X125459464Y-88694841D01*
X125555718Y-88820282D01*
X125681159Y-88916536D01*
X125827238Y-88977044D01*
X125855548Y-88980771D01*
X125983999Y-88997682D01*
X125984000Y-88997682D01*
X125984001Y-88997682D01*
X126019708Y-88992980D01*
X126051818Y-88988753D01*
X126120853Y-88999518D01*
X126155685Y-89024011D01*
X128539211Y-91407537D01*
X128572696Y-91468860D01*
X128567712Y-91538552D01*
X128525840Y-91594485D01*
X128460376Y-91618902D01*
X128435020Y-91616496D01*
X128434820Y-91618017D01*
X128426762Y-91616956D01*
X128319350Y-91602815D01*
X128270001Y-91596318D01*
X128269999Y-91596318D01*
X128113239Y-91616955D01*
X128113237Y-91616956D01*
X127967160Y-91677463D01*
X127841716Y-91773719D01*
X127800077Y-91827986D01*
X127743649Y-91869189D01*
X127701701Y-91876500D01*
X127060299Y-91876500D01*
X126993260Y-91856815D01*
X126961923Y-91827986D01*
X126920283Y-91773719D01*
X126920282Y-91773718D01*
X126794841Y-91677464D01*
X126716852Y-91645160D01*
X126648762Y-91616956D01*
X126648760Y-91616955D01*
X126492001Y-91596318D01*
X126491999Y-91596318D01*
X126335239Y-91616955D01*
X126335237Y-91616956D01*
X126189160Y-91677463D01*
X126063718Y-91773718D01*
X125967463Y-91899160D01*
X125906956Y-92045237D01*
X125906955Y-92045239D01*
X125886318Y-92201998D01*
X125886318Y-92202001D01*
X125906955Y-92358760D01*
X125906956Y-92358762D01*
X125956710Y-92478880D01*
X125967464Y-92504841D01*
X126063718Y-92630282D01*
X126189159Y-92726536D01*
X126335238Y-92787044D01*
X126413619Y-92797363D01*
X126491999Y-92807682D01*
X126492000Y-92807682D01*
X126492001Y-92807682D01*
X126544254Y-92800802D01*
X126648762Y-92787044D01*
X126794841Y-92726536D01*
X126920282Y-92630282D01*
X126961923Y-92576013D01*
X127018351Y-92534811D01*
X127060299Y-92527500D01*
X127701701Y-92527500D01*
X127768740Y-92547185D01*
X127800076Y-92576013D01*
X127841718Y-92630282D01*
X127967159Y-92726536D01*
X128113238Y-92787044D01*
X128191619Y-92797363D01*
X128269999Y-92807682D01*
X128270000Y-92807682D01*
X128270001Y-92807682D01*
X128322254Y-92800802D01*
X128426762Y-92787044D01*
X128572841Y-92726536D01*
X128698282Y-92630282D01*
X128794536Y-92504841D01*
X128855044Y-92358762D01*
X128875682Y-92202000D01*
X128875575Y-92201190D01*
X128861783Y-92096426D01*
X128855044Y-92045238D01*
X128855043Y-92045237D01*
X128853983Y-92037180D01*
X128857385Y-92036732D01*
X128858665Y-91982725D01*
X128897821Y-91924858D01*
X128962047Y-91897347D01*
X129030951Y-91908927D01*
X129064462Y-91932788D01*
X131835950Y-94704276D01*
X131843257Y-94712250D01*
X131867541Y-94741190D01*
X131867543Y-94741191D01*
X131867545Y-94741194D01*
X131867547Y-94741195D01*
X131867548Y-94741196D01*
X131900256Y-94760080D01*
X131909379Y-94765892D01*
X131940316Y-94787554D01*
X131940319Y-94787554D01*
X131945176Y-94789820D01*
X131961933Y-94796760D01*
X131966953Y-94798587D01*
X131966955Y-94798588D01*
X132003349Y-94805005D01*
X132004143Y-94805145D01*
X132014706Y-94807487D01*
X132051193Y-94817264D01*
X132088823Y-94813971D01*
X132099630Y-94813500D01*
X137353701Y-94813500D01*
X137420740Y-94833185D01*
X137452077Y-94862014D01*
X137486520Y-94906902D01*
X137493718Y-94916282D01*
X137619159Y-95012536D01*
X137765238Y-95073044D01*
X137843619Y-95083363D01*
X137921999Y-95093682D01*
X137922000Y-95093682D01*
X137922001Y-95093682D01*
X137974254Y-95086802D01*
X138078762Y-95073044D01*
X138224841Y-95012536D01*
X138350282Y-94916282D01*
X138446536Y-94790841D01*
X138507044Y-94644762D01*
X138527682Y-94488000D01*
X138522111Y-94445685D01*
X138532876Y-94376651D01*
X138579256Y-94324395D01*
X138645050Y-94305500D01*
X144465701Y-94305500D01*
X144532740Y-94325185D01*
X144564076Y-94354013D01*
X144605718Y-94408282D01*
X144731159Y-94504536D01*
X144877238Y-94565044D01*
X144955619Y-94575363D01*
X145033999Y-94585682D01*
X145034000Y-94585682D01*
X145034001Y-94585682D01*
X145086254Y-94578802D01*
X145190762Y-94565044D01*
X145336841Y-94504536D01*
X145462282Y-94408282D01*
X145558536Y-94282841D01*
X145619044Y-94136762D01*
X145639682Y-93980000D01*
X145619044Y-93823238D01*
X145558536Y-93677159D01*
X145462282Y-93551718D01*
X145336841Y-93455464D01*
X145190762Y-93394956D01*
X145190760Y-93394955D01*
X145034001Y-93374318D01*
X145033999Y-93374318D01*
X144877239Y-93394955D01*
X144877237Y-93394956D01*
X144731160Y-93455463D01*
X144605716Y-93551719D01*
X144564077Y-93605986D01*
X144507649Y-93647189D01*
X144465701Y-93654500D01*
X138449616Y-93654500D01*
X138438807Y-93654028D01*
X138401192Y-93650736D01*
X138364717Y-93660510D01*
X138354161Y-93662850D01*
X138316958Y-93669411D01*
X138311983Y-93671221D01*
X138295118Y-93678207D01*
X138290313Y-93680447D01*
X138259376Y-93702108D01*
X138250262Y-93707915D01*
X138217545Y-93726805D01*
X138193266Y-93755738D01*
X138185962Y-93763709D01*
X138093684Y-93855988D01*
X138032361Y-93889473D01*
X137989817Y-93891246D01*
X137922001Y-93882318D01*
X137921999Y-93882318D01*
X137765239Y-93902955D01*
X137765237Y-93902956D01*
X137619160Y-93963463D01*
X137493716Y-94059719D01*
X137452077Y-94113986D01*
X137395649Y-94155189D01*
X137353701Y-94162500D01*
X132266188Y-94162500D01*
X132199149Y-94142815D01*
X132178507Y-94126181D01*
X126616011Y-88563685D01*
X126582526Y-88502362D01*
X126580753Y-88459818D01*
X126589682Y-88392000D01*
X126589682Y-88391998D01*
X126569044Y-88235239D01*
X126569044Y-88235238D01*
X126508536Y-88089159D01*
X126412282Y-87963718D01*
X126286841Y-87867464D01*
X126140762Y-87806956D01*
X126140760Y-87806955D01*
X125984001Y-87786318D01*
X125983999Y-87786318D01*
X125827239Y-87806955D01*
X125827237Y-87806956D01*
X125681160Y-87867463D01*
X125555718Y-87963718D01*
X125459463Y-88089160D01*
X125398956Y-88235237D01*
X125398955Y-88235239D01*
X125385439Y-88337910D01*
X125360392Y-88394529D01*
X125159000Y-88394529D01*
X125163459Y-88390664D01*
X125139981Y-88340831D01*
X125138500Y-88321725D01*
X125138500Y-84919400D01*
X125158185Y-84852361D01*
X125204046Y-84810042D01*
X125324450Y-84745685D01*
X125334116Y-84737752D01*
X126227500Y-84737752D01*
X126239131Y-84796229D01*
X126239132Y-84796230D01*
X126283447Y-84862552D01*
X126349769Y-84906867D01*
X126349770Y-84906868D01*
X126408247Y-84918499D01*
X126408250Y-84918500D01*
X126408252Y-84918500D01*
X128147750Y-84918500D01*
X128147751Y-84918499D01*
X128162568Y-84915552D01*
X128206229Y-84906868D01*
X128206229Y-84906867D01*
X128206231Y-84906867D01*
X128272552Y-84862552D01*
X128316867Y-84796231D01*
X128316867Y-84796229D01*
X128316868Y-84796229D01*
X128326922Y-84745682D01*
X128328500Y-84737748D01*
X128328500Y-82998252D01*
X128328500Y-82998249D01*
X128328499Y-82998247D01*
X128316868Y-82939770D01*
X128316867Y-82939769D01*
X128272552Y-82873447D01*
X128206230Y-82829132D01*
X128206229Y-82829131D01*
X128147752Y-82817500D01*
X128147748Y-82817500D01*
X126408252Y-82817500D01*
X126408247Y-82817500D01*
X126349770Y-82829131D01*
X126349769Y-82829132D01*
X126283447Y-82873447D01*
X126239132Y-82939769D01*
X126239131Y-82939770D01*
X126227500Y-82998247D01*
X126227500Y-84737752D01*
X125334116Y-84737752D01*
X125484410Y-84614410D01*
X125615685Y-84454450D01*
X125713232Y-84271954D01*
X125773300Y-84073934D01*
X125793583Y-83868000D01*
X125773300Y-83662066D01*
X125713232Y-83464046D01*
X125615685Y-83281550D01*
X125540897Y-83190420D01*
X125484410Y-83121589D01*
X125347413Y-83009160D01*
X125324450Y-82990315D01*
X125204046Y-82925957D01*
X125154202Y-82876994D01*
X125138500Y-82816599D01*
X125138500Y-78724569D01*
X125138500Y-78724567D01*
X125131653Y-78703497D01*
X125127111Y-78684577D01*
X125123646Y-78662696D01*
X125113584Y-78642949D01*
X125106140Y-78624976D01*
X125099295Y-78603909D01*
X125086274Y-78585987D01*
X125076108Y-78569398D01*
X125073771Y-78564811D01*
X125066050Y-78549658D01*
X125047825Y-78531433D01*
X125047807Y-78531413D01*
X116658421Y-70142028D01*
X116624936Y-70080705D01*
X116629920Y-70011013D01*
X116671792Y-69955080D01*
X116737256Y-69930663D01*
X116778195Y-69934572D01*
X116868000Y-69958634D01*
X116868000Y-69063501D01*
X116975685Y-69112680D01*
X117082237Y-69128000D01*
X117153763Y-69128000D01*
X117260315Y-69112680D01*
X117368000Y-69063501D01*
X117368000Y-69958633D01*
X117581483Y-69901433D01*
X117581492Y-69901429D01*
X117795578Y-69801600D01*
X117989082Y-69666105D01*
X118156105Y-69499082D01*
X118291600Y-69305578D01*
X118391429Y-69091492D01*
X118391433Y-69091483D01*
X118424158Y-68969350D01*
X118460522Y-68909690D01*
X118523369Y-68879160D01*
X118592745Y-68887454D01*
X118646623Y-68931939D01*
X118662593Y-68965447D01*
X118682768Y-69031954D01*
X118780315Y-69214450D01*
X118796688Y-69234401D01*
X118911589Y-69374410D01*
X118989157Y-69438067D01*
X119071550Y-69505685D01*
X119254046Y-69603232D01*
X119452066Y-69663300D01*
X119452065Y-69663300D01*
X119470529Y-69665118D01*
X119658000Y-69683583D01*
X119863934Y-69663300D01*
X120061954Y-69603232D01*
X120244450Y-69505685D01*
X120404410Y-69374410D01*
X120457792Y-69309363D01*
X120515536Y-69270029D01*
X120585381Y-69268158D01*
X120641326Y-69300347D01*
X124546673Y-73205694D01*
X124580158Y-73267017D01*
X124575174Y-73336709D01*
X124533302Y-73392642D01*
X124506445Y-73407936D01*
X124435160Y-73437463D01*
X124309718Y-73533718D01*
X124213463Y-73659160D01*
X124152956Y-73805237D01*
X124152955Y-73805239D01*
X124132318Y-73961998D01*
X124132318Y-73962001D01*
X124152955Y-74118760D01*
X124152956Y-74118762D01*
X124213464Y-74264841D01*
X124309718Y-74390282D01*
X124363987Y-74431924D01*
X124405189Y-74488349D01*
X124412500Y-74530298D01*
X124412500Y-74680372D01*
X124412028Y-74691181D01*
X124408735Y-74728808D01*
X124418512Y-74765298D01*
X124420852Y-74775852D01*
X124427411Y-74813042D01*
X124429235Y-74818055D01*
X124436197Y-74834861D01*
X124438446Y-74839684D01*
X124460104Y-74870616D01*
X124465914Y-74879734D01*
X124484806Y-74912455D01*
X124513743Y-74936736D01*
X124521718Y-74944044D01*
X137162460Y-87584786D01*
X137195945Y-87646109D01*
X137190961Y-87715801D01*
X137149089Y-87771734D01*
X137090965Y-87795406D01*
X137019416Y-87804826D01*
X137003238Y-87806956D01*
X137003237Y-87806956D01*
X136857160Y-87867463D01*
X136731716Y-87963719D01*
X136690077Y-88017986D01*
X136633649Y-88059189D01*
X136591701Y-88066500D01*
X128456188Y-88066500D01*
X128389149Y-88046815D01*
X128368507Y-88030181D01*
X127124011Y-86785685D01*
X127090526Y-86724362D01*
X127088753Y-86681818D01*
X127097682Y-86614000D01*
X127097682Y-86613998D01*
X127083923Y-86509492D01*
X127077044Y-86457238D01*
X127016536Y-86311159D01*
X126920282Y-86185718D01*
X126794841Y-86089464D01*
X126789824Y-86087386D01*
X126648762Y-86028956D01*
X126648760Y-86028955D01*
X126492001Y-86008318D01*
X126491999Y-86008318D01*
X126335239Y-86028955D01*
X126335237Y-86028956D01*
X126189160Y-86089463D01*
X126063718Y-86185718D01*
X125967463Y-86311160D01*
X125906956Y-86457237D01*
X125906955Y-86457239D01*
X125886318Y-86613998D01*
X125886318Y-86614001D01*
X125906955Y-86770760D01*
X125906956Y-86770762D01*
X125961654Y-86902816D01*
X125967464Y-86916841D01*
X126063718Y-87042282D01*
X126189159Y-87138536D01*
X126335238Y-87199044D01*
X126363548Y-87202771D01*
X126491999Y-87219682D01*
X126492000Y-87219682D01*
X126492001Y-87219682D01*
X126527708Y-87214980D01*
X126559818Y-87210753D01*
X126628853Y-87221518D01*
X126663685Y-87246011D01*
X128025950Y-88608276D01*
X128033257Y-88616250D01*
X128057541Y-88645190D01*
X128057543Y-88645191D01*
X128057545Y-88645194D01*
X128057547Y-88645195D01*
X128057548Y-88645196D01*
X128090256Y-88664080D01*
X128099379Y-88669892D01*
X128130316Y-88691554D01*
X128130319Y-88691554D01*
X128135176Y-88693820D01*
X128151933Y-88700760D01*
X128156953Y-88702587D01*
X128156955Y-88702588D01*
X128194143Y-88709145D01*
X128204706Y-88711487D01*
X128241193Y-88721264D01*
X128278823Y-88717971D01*
X128289630Y-88717500D01*
X136591701Y-88717500D01*
X136658740Y-88737185D01*
X136690076Y-88766013D01*
X136731718Y-88820282D01*
X136783642Y-88860125D01*
X136824844Y-88916552D01*
X136828999Y-88986299D01*
X136794786Y-89047219D01*
X136733069Y-89079971D01*
X136708155Y-89082500D01*
X134639619Y-89082500D01*
X134628812Y-89082028D01*
X134626524Y-89081827D01*
X134591192Y-89078736D01*
X134591191Y-89078736D01*
X134554711Y-89088511D01*
X134544156Y-89090852D01*
X134506954Y-89097412D01*
X134501962Y-89099229D01*
X134485117Y-89106206D01*
X134480313Y-89108446D01*
X134449378Y-89130107D01*
X134440261Y-89135916D01*
X134408939Y-89154001D01*
X134407545Y-89154806D01*
X134407543Y-89154807D01*
X134407542Y-89154809D01*
X134383261Y-89183744D01*
X134375956Y-89191715D01*
X133251493Y-90316181D01*
X133190170Y-90349666D01*
X133163812Y-90352500D01*
X132099619Y-90352500D01*
X132088812Y-90352028D01*
X132086524Y-90351827D01*
X132051192Y-90348736D01*
X132040386Y-90349682D01*
X132040275Y-90348416D01*
X131988210Y-90348416D01*
X131982760Y-90346955D01*
X131826001Y-90326318D01*
X131825999Y-90326318D01*
X131669239Y-90346955D01*
X131669237Y-90346956D01*
X131523160Y-90407463D01*
X131397718Y-90503718D01*
X131301463Y-90629160D01*
X131240956Y-90775237D01*
X131240955Y-90775239D01*
X131220318Y-90931998D01*
X131220318Y-90932001D01*
X131240955Y-91088760D01*
X131240956Y-91088762D01*
X131299351Y-91229741D01*
X131301464Y-91234841D01*
X131397718Y-91360282D01*
X131523159Y-91456536D01*
X131669238Y-91517044D01*
X131689557Y-91519719D01*
X131825999Y-91537682D01*
X131826000Y-91537682D01*
X131826001Y-91537682D01*
X131878254Y-91530802D01*
X131982762Y-91517044D01*
X132128841Y-91456536D01*
X132254282Y-91360282D01*
X132350536Y-91234841D01*
X132411044Y-91088762D01*
X132411044Y-91088760D01*
X132414154Y-91081253D01*
X132417139Y-91082489D01*
X132445618Y-91035755D01*
X132508461Y-91005219D01*
X132529038Y-91003500D01*
X133330372Y-91003500D01*
X133341180Y-91003971D01*
X133378807Y-91007264D01*
X133415319Y-90997479D01*
X133425830Y-90995149D01*
X133463045Y-90988588D01*
X133463050Y-90988584D01*
X133468099Y-90986747D01*
X133484824Y-90979819D01*
X133489681Y-90977554D01*
X133489684Y-90977554D01*
X133520625Y-90955887D01*
X133529744Y-90950079D01*
X133544951Y-90941300D01*
X133562455Y-90931194D01*
X133586738Y-90902253D01*
X133594035Y-90894289D01*
X133810324Y-90678001D01*
X135538318Y-90678001D01*
X135558955Y-90834760D01*
X135558956Y-90834762D01*
X135609130Y-90955894D01*
X135619464Y-90980841D01*
X135715718Y-91106282D01*
X135841159Y-91202536D01*
X135987238Y-91263044D01*
X136065619Y-91273363D01*
X136143999Y-91283682D01*
X136144000Y-91283682D01*
X136144001Y-91283682D01*
X136196254Y-91276802D01*
X136300762Y-91263044D01*
X136381162Y-91229740D01*
X136450630Y-91222272D01*
X136513110Y-91253547D01*
X136516295Y-91256621D01*
X137423955Y-92164282D01*
X137431262Y-92172256D01*
X137455541Y-92201190D01*
X137455543Y-92201191D01*
X137455545Y-92201194D01*
X137455547Y-92201195D01*
X137455548Y-92201196D01*
X137488253Y-92220078D01*
X137497376Y-92225890D01*
X137528316Y-92247554D01*
X137528319Y-92247554D01*
X137533176Y-92249820D01*
X137549933Y-92256760D01*
X137554952Y-92258586D01*
X137554955Y-92258588D01*
X137592141Y-92265144D01*
X137602704Y-92267486D01*
X137620933Y-92272370D01*
X137639193Y-92277263D01*
X137676811Y-92273971D01*
X137687618Y-92273500D01*
X162245701Y-92273500D01*
X162312740Y-92293185D01*
X162344077Y-92322014D01*
X162381699Y-92371045D01*
X162385718Y-92376282D01*
X162511159Y-92472536D01*
X162657238Y-92533044D01*
X162735619Y-92543363D01*
X162813999Y-92553682D01*
X162814000Y-92553682D01*
X162814001Y-92553682D01*
X162866254Y-92546802D01*
X162970762Y-92533044D01*
X163116841Y-92472536D01*
X163242282Y-92376282D01*
X163338536Y-92250841D01*
X163399044Y-92104762D01*
X163419682Y-91948000D01*
X163417679Y-91932788D01*
X163399044Y-91791239D01*
X163399044Y-91791238D01*
X163338536Y-91645159D01*
X163242282Y-91519718D01*
X163116841Y-91423464D01*
X162970762Y-91362956D01*
X162970760Y-91362955D01*
X162814001Y-91342318D01*
X162813999Y-91342318D01*
X162657239Y-91362955D01*
X162657237Y-91362956D01*
X162511160Y-91423463D01*
X162385716Y-91519719D01*
X162344077Y-91573986D01*
X162287649Y-91615189D01*
X162245701Y-91622500D01*
X137854189Y-91622500D01*
X137787150Y-91602815D01*
X137766508Y-91586181D01*
X136762596Y-90582270D01*
X136730501Y-90526679D01*
X136729045Y-90521246D01*
X136729044Y-90521238D01*
X136668536Y-90375159D01*
X136572282Y-90249718D01*
X136446841Y-90153464D01*
X136300762Y-90092956D01*
X136300760Y-90092955D01*
X136144001Y-90072318D01*
X136143999Y-90072318D01*
X135987239Y-90092955D01*
X135987237Y-90092956D01*
X135841160Y-90153463D01*
X135715718Y-90249718D01*
X135619463Y-90375160D01*
X135558956Y-90521237D01*
X135558955Y-90521239D01*
X135538318Y-90677998D01*
X135538318Y-90678001D01*
X133810324Y-90678001D01*
X134718508Y-89769819D01*
X134779831Y-89736334D01*
X134806189Y-89733500D01*
X138243812Y-89733500D01*
X138310851Y-89753185D01*
X138331493Y-89769819D01*
X139067988Y-90506314D01*
X139101473Y-90567637D01*
X139103246Y-90610179D01*
X139094318Y-90677997D01*
X139094318Y-90678001D01*
X139114955Y-90834760D01*
X139114956Y-90834762D01*
X139165130Y-90955894D01*
X139175464Y-90980841D01*
X139271718Y-91106282D01*
X139397159Y-91202536D01*
X139543238Y-91263044D01*
X139621619Y-91273363D01*
X139699999Y-91283682D01*
X139700000Y-91283682D01*
X139700001Y-91283682D01*
X139752254Y-91276802D01*
X139856762Y-91263044D01*
X140002841Y-91202536D01*
X140128282Y-91106282D01*
X140224536Y-90980841D01*
X140285044Y-90834762D01*
X140305682Y-90678000D01*
X140298468Y-90623207D01*
X140291923Y-90573492D01*
X140285044Y-90521238D01*
X140224536Y-90375159D01*
X140128282Y-90249718D01*
X140002841Y-90153464D01*
X139856762Y-90092956D01*
X139856760Y-90092955D01*
X139700001Y-90072318D01*
X139699997Y-90072318D01*
X139632179Y-90081246D01*
X139563144Y-90070480D01*
X139528314Y-90045988D01*
X139173507Y-89691181D01*
X139140022Y-89629858D01*
X139145006Y-89560166D01*
X139186878Y-89504233D01*
X139252342Y-89479816D01*
X139261188Y-89479500D01*
X139512701Y-89479500D01*
X139579740Y-89499185D01*
X139611076Y-89528013D01*
X139652718Y-89582282D01*
X139778159Y-89678536D01*
X139924238Y-89739044D01*
X140002619Y-89749363D01*
X140080999Y-89759682D01*
X140081000Y-89759682D01*
X140081001Y-89759682D01*
X140133254Y-89752802D01*
X140237762Y-89739044D01*
X140383841Y-89678536D01*
X140509282Y-89582282D01*
X140605536Y-89456841D01*
X140666044Y-89310762D01*
X140685049Y-89166407D01*
X140686682Y-89154001D01*
X140686682Y-89153998D01*
X140669569Y-89024011D01*
X140666044Y-88997238D01*
X140605536Y-88851159D01*
X140509282Y-88725718D01*
X140383841Y-88629464D01*
X140237762Y-88568956D01*
X140237760Y-88568955D01*
X140081001Y-88548318D01*
X140080999Y-88548318D01*
X139924239Y-88568955D01*
X139924237Y-88568956D01*
X139778160Y-88629463D01*
X139652716Y-88725719D01*
X139611077Y-88779986D01*
X139554649Y-88821189D01*
X139512701Y-88828500D01*
X139378188Y-88828500D01*
X139311149Y-88808815D01*
X139290507Y-88792181D01*
X137612507Y-87114181D01*
X137579022Y-87052858D01*
X137584006Y-86983166D01*
X137625878Y-86927233D01*
X137691342Y-86902816D01*
X137700188Y-86902500D01*
X138873864Y-86902500D01*
X138940903Y-86922185D01*
X138986658Y-86974989D01*
X138996602Y-87044147D01*
X138972240Y-87101986D01*
X138921464Y-87168157D01*
X138860956Y-87314237D01*
X138860955Y-87314239D01*
X138840318Y-87470998D01*
X138840318Y-87471001D01*
X138860955Y-87627760D01*
X138860956Y-87627762D01*
X138921464Y-87773841D01*
X139017718Y-87899282D01*
X139143159Y-87995536D01*
X139289238Y-88056044D01*
X139313127Y-88059189D01*
X139445999Y-88076682D01*
X139446000Y-88076682D01*
X139446001Y-88076682D01*
X139513473Y-88067799D01*
X139602762Y-88056044D01*
X139748841Y-87995536D01*
X139874282Y-87899282D01*
X139915923Y-87845013D01*
X139972351Y-87803811D01*
X140014299Y-87796500D01*
X141640812Y-87796500D01*
X141707851Y-87816185D01*
X141728493Y-87832819D01*
X143385988Y-89490314D01*
X143419473Y-89551637D01*
X143421246Y-89594179D01*
X143412318Y-89661997D01*
X143412318Y-89662001D01*
X143432955Y-89818760D01*
X143432956Y-89818762D01*
X143473232Y-89915998D01*
X143493464Y-89964841D01*
X143589718Y-90090282D01*
X143715159Y-90186536D01*
X143861238Y-90247044D01*
X143939619Y-90257363D01*
X144017999Y-90267682D01*
X144018000Y-90267682D01*
X144018001Y-90267682D01*
X144070254Y-90260802D01*
X144174762Y-90247044D01*
X144320841Y-90186536D01*
X144446282Y-90090282D01*
X144542536Y-89964841D01*
X144562766Y-89916001D01*
X146460318Y-89916001D01*
X146480955Y-90072760D01*
X146480956Y-90072762D01*
X146514383Y-90153463D01*
X146541464Y-90218841D01*
X146637718Y-90344282D01*
X146763159Y-90440536D01*
X146909238Y-90501044D01*
X146949268Y-90506314D01*
X147065999Y-90521682D01*
X147066000Y-90521682D01*
X147066001Y-90521682D01*
X147118254Y-90514802D01*
X147222762Y-90501044D01*
X147368841Y-90440536D01*
X147494282Y-90344282D01*
X147535923Y-90290013D01*
X147592351Y-90248811D01*
X147634299Y-90241500D01*
X170881701Y-90241500D01*
X170948740Y-90261185D01*
X170980076Y-90290013D01*
X171021718Y-90344282D01*
X171147159Y-90440536D01*
X171293238Y-90501044D01*
X171333268Y-90506314D01*
X171449999Y-90521682D01*
X171450000Y-90521682D01*
X171450001Y-90521682D01*
X171502254Y-90514802D01*
X171606762Y-90501044D01*
X171752841Y-90440536D01*
X171878282Y-90344282D01*
X171974536Y-90218841D01*
X172035044Y-90072762D01*
X172055682Y-89916000D01*
X172035044Y-89759238D01*
X171974536Y-89613159D01*
X171878282Y-89487718D01*
X171752841Y-89391464D01*
X171674852Y-89359160D01*
X171606762Y-89330956D01*
X171606760Y-89330955D01*
X171450001Y-89310318D01*
X171449999Y-89310318D01*
X171293239Y-89330955D01*
X171293237Y-89330956D01*
X171147160Y-89391463D01*
X171021716Y-89487719D01*
X170980077Y-89541986D01*
X170923649Y-89583189D01*
X170881701Y-89590500D01*
X147634299Y-89590500D01*
X147567260Y-89570815D01*
X147535923Y-89541986D01*
X147494283Y-89487719D01*
X147483572Y-89479500D01*
X147368841Y-89391464D01*
X147290852Y-89359160D01*
X147222762Y-89330956D01*
X147222760Y-89330955D01*
X147066001Y-89310318D01*
X147065999Y-89310318D01*
X146909239Y-89330955D01*
X146909237Y-89330956D01*
X146763160Y-89391463D01*
X146637718Y-89487718D01*
X146541463Y-89613160D01*
X146480956Y-89759237D01*
X146480955Y-89759239D01*
X146460318Y-89915998D01*
X146460318Y-89916001D01*
X144562766Y-89916001D01*
X144603044Y-89818762D01*
X144623682Y-89662000D01*
X144619450Y-89629858D01*
X144609923Y-89557492D01*
X144603044Y-89505238D01*
X144542536Y-89359159D01*
X144446282Y-89233718D01*
X144320841Y-89137464D01*
X144288594Y-89124107D01*
X144174762Y-89076956D01*
X144174760Y-89076955D01*
X144018001Y-89056318D01*
X144017997Y-89056318D01*
X143950179Y-89065246D01*
X143881144Y-89054480D01*
X143846314Y-89029988D01*
X142071044Y-87254718D01*
X142063734Y-87246741D01*
X142063121Y-87246011D01*
X142039455Y-87217806D01*
X142006734Y-87198914D01*
X141997616Y-87193104D01*
X141966684Y-87171446D01*
X141961861Y-87169197D01*
X141945055Y-87162235D01*
X141940042Y-87160411D01*
X141902852Y-87153852D01*
X141892298Y-87151512D01*
X141855808Y-87141735D01*
X141818181Y-87145028D01*
X141807372Y-87145500D01*
X140068837Y-87145500D01*
X140001798Y-87125815D01*
X139956043Y-87073011D01*
X139946099Y-87003853D01*
X139975124Y-86940297D01*
X140033902Y-86902523D01*
X140036710Y-86901734D01*
X140056312Y-86896481D01*
X140066830Y-86894149D01*
X140104045Y-86887588D01*
X140104050Y-86887584D01*
X140109099Y-86885747D01*
X140125824Y-86878819D01*
X140130681Y-86876554D01*
X140130684Y-86876554D01*
X140161625Y-86854887D01*
X140170728Y-86849088D01*
X140203455Y-86830194D01*
X140227737Y-86801254D01*
X140235033Y-86793292D01*
X140434531Y-86593794D01*
X140442499Y-86586494D01*
X140471427Y-86562222D01*
X140471427Y-86562221D01*
X140471430Y-86562219D01*
X140490324Y-86529492D01*
X140496117Y-86520399D01*
X140517790Y-86489448D01*
X140517790Y-86489445D01*
X140520055Y-86484588D01*
X140526983Y-86467863D01*
X140528820Y-86462814D01*
X140528824Y-86462809D01*
X140535386Y-86425586D01*
X140537715Y-86415080D01*
X140547499Y-86378571D01*
X140547498Y-86378569D01*
X140549153Y-86372397D01*
X140585521Y-86312738D01*
X140593425Y-86306131D01*
X140646518Y-86265393D01*
X140742772Y-86139952D01*
X140803280Y-85993873D01*
X140817857Y-85883148D01*
X140823918Y-85837112D01*
X140823918Y-85837109D01*
X140803280Y-85680350D01*
X140803280Y-85680349D01*
X140742772Y-85534270D01*
X140646518Y-85408829D01*
X140521077Y-85312575D01*
X140374998Y-85252067D01*
X140374996Y-85252066D01*
X140218237Y-85231429D01*
X140218235Y-85231429D01*
X140061475Y-85252066D01*
X140061473Y-85252067D01*
X139915396Y-85312574D01*
X139789954Y-85408829D01*
X139693699Y-85534271D01*
X139633192Y-85680348D01*
X139633191Y-85680350D01*
X139612554Y-85837109D01*
X139612554Y-85837112D01*
X139633191Y-85993871D01*
X139633193Y-85993876D01*
X139668886Y-86080048D01*
X139676355Y-86149517D01*
X139645079Y-86211996D01*
X139584990Y-86247648D01*
X139554325Y-86251500D01*
X139393592Y-86251500D01*
X139326553Y-86231815D01*
X139280798Y-86179011D01*
X139270854Y-86109853D01*
X139279031Y-86080047D01*
X139283434Y-86069417D01*
X139336499Y-85941307D01*
X139357137Y-85784545D01*
X139336499Y-85627783D01*
X139275991Y-85481704D01*
X139179737Y-85356263D01*
X139054296Y-85260009D01*
X139035122Y-85252067D01*
X138908217Y-85199501D01*
X138908215Y-85199500D01*
X138751456Y-85178863D01*
X138751454Y-85178863D01*
X138594694Y-85199500D01*
X138594692Y-85199501D01*
X138448615Y-85260008D01*
X138323171Y-85356264D01*
X138235870Y-85470038D01*
X138231182Y-85476149D01*
X138229772Y-85477986D01*
X138173344Y-85519189D01*
X138131396Y-85526500D01*
X137348981Y-85526500D01*
X137281942Y-85506815D01*
X137261300Y-85490181D01*
X135464120Y-83693001D01*
X136935318Y-83693001D01*
X136955955Y-83849760D01*
X136955956Y-83849762D01*
X137006130Y-83970894D01*
X137016464Y-83995841D01*
X137112718Y-84121282D01*
X137238159Y-84217536D01*
X137384238Y-84278044D01*
X137462619Y-84288363D01*
X137540999Y-84298682D01*
X137541000Y-84298682D01*
X137541001Y-84298682D01*
X137593254Y-84291802D01*
X137697762Y-84278044D01*
X137843841Y-84217536D01*
X137969282Y-84121282D01*
X138010923Y-84067013D01*
X138067351Y-84025811D01*
X138109299Y-84018500D01*
X140061372Y-84018500D01*
X140072180Y-84018971D01*
X140109807Y-84022264D01*
X140146319Y-84012479D01*
X140156830Y-84010149D01*
X140194045Y-84003588D01*
X140194050Y-84003584D01*
X140199099Y-84001747D01*
X140215824Y-83994819D01*
X140220681Y-83992554D01*
X140220684Y-83992554D01*
X140251625Y-83970887D01*
X140260744Y-83965079D01*
X140293455Y-83946194D01*
X140301768Y-83939219D01*
X140304084Y-83941980D01*
X140346159Y-83913962D01*
X140399211Y-83909415D01*
X140462000Y-83917682D01*
X140618762Y-83897044D01*
X140764841Y-83836536D01*
X140890282Y-83740282D01*
X140986536Y-83614841D01*
X141047044Y-83468762D01*
X141067682Y-83312000D01*
X141061457Y-83264719D01*
X141047044Y-83155239D01*
X141047044Y-83155238D01*
X140986536Y-83009159D01*
X140890282Y-82883718D01*
X140764841Y-82787464D01*
X140618762Y-82726956D01*
X140618760Y-82726955D01*
X140462001Y-82706318D01*
X140461999Y-82706318D01*
X140305239Y-82726955D01*
X140305237Y-82726956D01*
X140159160Y-82787463D01*
X140033718Y-82883718D01*
X139937463Y-83009160D01*
X139876956Y-83155237D01*
X139876956Y-83155238D01*
X139863205Y-83259686D01*
X139834938Y-83323582D01*
X139776614Y-83362053D01*
X139740266Y-83367500D01*
X138109299Y-83367500D01*
X138042260Y-83347815D01*
X138010923Y-83318986D01*
X137969283Y-83264719D01*
X137872457Y-83190422D01*
X137843841Y-83168464D01*
X137811908Y-83155237D01*
X137697762Y-83107956D01*
X137697760Y-83107955D01*
X137541001Y-83087318D01*
X137540999Y-83087318D01*
X137384239Y-83107955D01*
X137384237Y-83107956D01*
X137238160Y-83168463D01*
X137112718Y-83264718D01*
X137016463Y-83390160D01*
X136955956Y-83536237D01*
X136955955Y-83536239D01*
X136935318Y-83692998D01*
X136935318Y-83693001D01*
X135464120Y-83693001D01*
X127511122Y-75740003D01*
X132051378Y-75740003D01*
X132071800Y-75921261D01*
X132071801Y-75921267D01*
X132132050Y-76093450D01*
X132206439Y-76211839D01*
X132229103Y-76247909D01*
X132358091Y-76376897D01*
X132512549Y-76473949D01*
X132684730Y-76534198D01*
X132684736Y-76534198D01*
X132684738Y-76534199D01*
X132865996Y-76554622D01*
X132866000Y-76554622D01*
X132866004Y-76554622D01*
X133047261Y-76534199D01*
X133047260Y-76534199D01*
X133047270Y-76534198D01*
X133219451Y-76473949D01*
X133373909Y-76376897D01*
X133502897Y-76247909D01*
X133599949Y-76093451D01*
X133660198Y-75921270D01*
X133666092Y-75868956D01*
X133680622Y-75740003D01*
X133680622Y-75739996D01*
X133660199Y-75558738D01*
X133660198Y-75558732D01*
X133660198Y-75558730D01*
X133599949Y-75386549D01*
X133502897Y-75232091D01*
X133373909Y-75103103D01*
X133253172Y-75027239D01*
X133219450Y-75006050D01*
X133047267Y-74945801D01*
X133047261Y-74945800D01*
X132866004Y-74925378D01*
X132865996Y-74925378D01*
X132684738Y-74945800D01*
X132684732Y-74945801D01*
X132512549Y-75006050D01*
X132358090Y-75103103D01*
X132229103Y-75232090D01*
X132132050Y-75386549D01*
X132071801Y-75558732D01*
X132071800Y-75558738D01*
X132051378Y-75739996D01*
X132051378Y-75740003D01*
X127511122Y-75740003D01*
X126274819Y-74503700D01*
X126241334Y-74442377D01*
X126238500Y-74416019D01*
X126238500Y-73494914D01*
X126238972Y-73484105D01*
X126242263Y-73446490D01*
X126232487Y-73410006D01*
X126230148Y-73399460D01*
X126223588Y-73362254D01*
X126223587Y-73362253D01*
X126223587Y-73362250D01*
X126221765Y-73357246D01*
X126214815Y-73340467D01*
X126212554Y-73335618D01*
X126212553Y-73335617D01*
X126212553Y-73335615D01*
X126190882Y-73304665D01*
X126185082Y-73295560D01*
X126166194Y-73262844D01*
X126166190Y-73262840D01*
X126137262Y-73238567D01*
X126129286Y-73231258D01*
X126098028Y-73200000D01*
X131752249Y-73200000D01*
X131771212Y-73404646D01*
X131827459Y-73602336D01*
X131919066Y-73786307D01*
X131919074Y-73786320D01*
X131922108Y-73790337D01*
X132509542Y-73202903D01*
X132507320Y-73229721D01*
X132536405Y-73344574D01*
X132601206Y-73443760D01*
X132694702Y-73516531D01*
X132806761Y-73555000D01*
X132864553Y-73555000D01*
X132278774Y-74140777D01*
X132369557Y-74196988D01*
X132369558Y-74196989D01*
X132561205Y-74271232D01*
X132763238Y-74309000D01*
X132968762Y-74309000D01*
X133170794Y-74271232D01*
X133362441Y-74196989D01*
X133362445Y-74196987D01*
X133453223Y-74140778D01*
X133453223Y-74140777D01*
X132867448Y-73555000D01*
X132895418Y-73555000D01*
X132982862Y-73540408D01*
X133087061Y-73484019D01*
X133167304Y-73396852D01*
X133214896Y-73288352D01*
X133222013Y-73202460D01*
X133809889Y-73790336D01*
X133809890Y-73790336D01*
X133812931Y-73786311D01*
X133904540Y-73602336D01*
X133960787Y-73404646D01*
X133979751Y-73200000D01*
X133979751Y-73199999D01*
X133960787Y-72995353D01*
X133904540Y-72797663D01*
X133812930Y-72613688D01*
X133812929Y-72613685D01*
X133809889Y-72609661D01*
X133222458Y-73197093D01*
X133224680Y-73170279D01*
X133195595Y-73055426D01*
X133130794Y-72956240D01*
X133037298Y-72883469D01*
X132925239Y-72845000D01*
X132867447Y-72845000D01*
X133453224Y-72259221D01*
X133362439Y-72203010D01*
X133170794Y-72128767D01*
X132968762Y-72091000D01*
X132763238Y-72091000D01*
X132561205Y-72128767D01*
X132369559Y-72203010D01*
X132369552Y-72203014D01*
X132278775Y-72259220D01*
X132278774Y-72259221D01*
X132864554Y-72845000D01*
X132836582Y-72845000D01*
X132749138Y-72859592D01*
X132644939Y-72915981D01*
X132564696Y-73003148D01*
X132517104Y-73111648D01*
X132509986Y-73197539D01*
X131922108Y-72609662D01*
X131919068Y-72613688D01*
X131919066Y-72613692D01*
X131827459Y-72797663D01*
X131771212Y-72995353D01*
X131752249Y-73199999D01*
X131752249Y-73200000D01*
X126098028Y-73200000D01*
X122654558Y-69756530D01*
X122621073Y-69695207D01*
X122626057Y-69625515D01*
X122667929Y-69569582D01*
X122683781Y-69559494D01*
X122784450Y-69505685D01*
X122944410Y-69374410D01*
X123075685Y-69214450D01*
X123173232Y-69031954D01*
X123233300Y-68833934D01*
X123253583Y-68628000D01*
X123682417Y-68628000D01*
X123702699Y-68833932D01*
X123725680Y-68909690D01*
X123762768Y-69031954D01*
X123860315Y-69214450D01*
X123876688Y-69234401D01*
X123991589Y-69374410D01*
X124069157Y-69438067D01*
X124151550Y-69505685D01*
X124334046Y-69603232D01*
X124532066Y-69663300D01*
X124532065Y-69663300D01*
X124550529Y-69665118D01*
X124738000Y-69683583D01*
X124943934Y-69663300D01*
X125141954Y-69603232D01*
X125324450Y-69505685D01*
X125334116Y-69497752D01*
X126227500Y-69497752D01*
X126239131Y-69556229D01*
X126239132Y-69556230D01*
X126283447Y-69622552D01*
X126349769Y-69666867D01*
X126349770Y-69666868D01*
X126408247Y-69678499D01*
X126408250Y-69678500D01*
X126408252Y-69678500D01*
X128147750Y-69678500D01*
X128147751Y-69678499D01*
X128162568Y-69675552D01*
X128206229Y-69666868D01*
X128206229Y-69666867D01*
X128206231Y-69666867D01*
X128272552Y-69622552D01*
X128316867Y-69556231D01*
X128316867Y-69556229D01*
X128316868Y-69556229D01*
X128326922Y-69505682D01*
X128328500Y-69497748D01*
X128328500Y-67758252D01*
X128328500Y-67758249D01*
X128328499Y-67758247D01*
X128316868Y-67699770D01*
X128316867Y-67699769D01*
X128272552Y-67633447D01*
X128206230Y-67589132D01*
X128206229Y-67589131D01*
X128147752Y-67577500D01*
X128147748Y-67577500D01*
X126408252Y-67577500D01*
X126408247Y-67577500D01*
X126349770Y-67589131D01*
X126349769Y-67589132D01*
X126283447Y-67633447D01*
X126239132Y-67699769D01*
X126239131Y-67699770D01*
X126227500Y-67758247D01*
X126227500Y-69497752D01*
X125334116Y-69497752D01*
X125484410Y-69374410D01*
X125615685Y-69214450D01*
X125713232Y-69031954D01*
X125773300Y-68833934D01*
X125793583Y-68628000D01*
X125773300Y-68422066D01*
X125713232Y-68224046D01*
X125615685Y-68041550D01*
X125540897Y-67950420D01*
X125484410Y-67881589D01*
X125334121Y-67758252D01*
X125324450Y-67750315D01*
X125141954Y-67652768D01*
X124943934Y-67592700D01*
X124943932Y-67592699D01*
X124943934Y-67592699D01*
X124738000Y-67572417D01*
X124532067Y-67592699D01*
X124334043Y-67652769D01*
X124246114Y-67699769D01*
X124151550Y-67750315D01*
X124151548Y-67750316D01*
X124151547Y-67750317D01*
X123991589Y-67881589D01*
X123860317Y-68041547D01*
X123762769Y-68224043D01*
X123702699Y-68422067D01*
X123682417Y-68628000D01*
X123253583Y-68628000D01*
X123233300Y-68422066D01*
X123173232Y-68224046D01*
X123075685Y-68041550D01*
X123000897Y-67950420D01*
X122944410Y-67881589D01*
X122794121Y-67758252D01*
X122784450Y-67750315D01*
X122601954Y-67652768D01*
X122403934Y-67592700D01*
X122403932Y-67592699D01*
X122403934Y-67592699D01*
X122198000Y-67572417D01*
X121992067Y-67592699D01*
X121794043Y-67652769D01*
X121706114Y-67699769D01*
X121611550Y-67750315D01*
X121611548Y-67750316D01*
X121611547Y-67750317D01*
X121451589Y-67881589D01*
X121320317Y-68041547D01*
X121222769Y-68224043D01*
X121162699Y-68422067D01*
X121145449Y-68597208D01*
X121119288Y-68661995D01*
X121062253Y-68702353D01*
X120992453Y-68705470D01*
X120934365Y-68672734D01*
X120719444Y-68457813D01*
X120688466Y-68406130D01*
X120633232Y-68224046D01*
X120535685Y-68041550D01*
X120460897Y-67950420D01*
X120404410Y-67881589D01*
X120254121Y-67758252D01*
X120244450Y-67750315D01*
X120061954Y-67652768D01*
X119863934Y-67592700D01*
X119863932Y-67592699D01*
X119863934Y-67592699D01*
X119658000Y-67572417D01*
X119452067Y-67592699D01*
X119254043Y-67652769D01*
X119166114Y-67699769D01*
X119071550Y-67750315D01*
X119071548Y-67750316D01*
X119071547Y-67750317D01*
X118911589Y-67881589D01*
X118780317Y-68041547D01*
X118682767Y-68224046D01*
X118662593Y-68290552D01*
X118624296Y-68348990D01*
X118560483Y-68377447D01*
X118491416Y-68366886D01*
X118439023Y-68320661D01*
X118424158Y-68286649D01*
X118391433Y-68164516D01*
X118391429Y-68164507D01*
X118291600Y-67950422D01*
X118291599Y-67950420D01*
X118156113Y-67756926D01*
X118156108Y-67756920D01*
X117989082Y-67589894D01*
X117795578Y-67454399D01*
X117581492Y-67354570D01*
X117581486Y-67354567D01*
X117368000Y-67297364D01*
X117368000Y-68192498D01*
X117260315Y-68143320D01*
X117153763Y-68128000D01*
X117082237Y-68128000D01*
X116975685Y-68143320D01*
X116868000Y-68192498D01*
X116868000Y-67297364D01*
X116867999Y-67297364D01*
X116654513Y-67354567D01*
X116654507Y-67354570D01*
X116440422Y-67454399D01*
X116440420Y-67454400D01*
X116246926Y-67589886D01*
X116246920Y-67589891D01*
X116079891Y-67756920D01*
X116079886Y-67756926D01*
X115944400Y-67950420D01*
X115944399Y-67950422D01*
X115844570Y-68164507D01*
X115844567Y-68164514D01*
X115811841Y-68286650D01*
X115775476Y-68346310D01*
X115712629Y-68376839D01*
X115643253Y-68368544D01*
X115589375Y-68324059D01*
X115573406Y-68290552D01*
X115553232Y-68224046D01*
X115455685Y-68041550D01*
X115380897Y-67950420D01*
X115324410Y-67881589D01*
X115174121Y-67758252D01*
X115164450Y-67750315D01*
X114981954Y-67652768D01*
X114783934Y-67592700D01*
X114783932Y-67592699D01*
X114783934Y-67592699D01*
X114578000Y-67572417D01*
X114372067Y-67592699D01*
X114174043Y-67652769D01*
X114086114Y-67699769D01*
X113991550Y-67750315D01*
X113991548Y-67750316D01*
X113991547Y-67750317D01*
X113831589Y-67881589D01*
X113700317Y-68041547D01*
X113602769Y-68224043D01*
X113542699Y-68422067D01*
X113522417Y-68628000D01*
X112060500Y-68628000D01*
X112060500Y-66756000D01*
X142130000Y-66756000D01*
X142130000Y-72706000D01*
X160130000Y-72706000D01*
X160130000Y-66756000D01*
X142130000Y-66756000D01*
X112060500Y-66756000D01*
X112060500Y-66464500D01*
X112080185Y-66397461D01*
X112132989Y-66351706D01*
X112184500Y-66340500D01*
X207855500Y-66340500D01*
X207922539Y-66360185D01*
G37*
G04 #@! TD.AperFunction*
M02*
