G04 #@! TF.GenerationSoftware,KiCad,Pcbnew,7.0.10*
G04 #@! TF.CreationDate,2024-03-04T21:29:39-06:00*
G04 #@! TF.ProjectId,JargonJolt,4a617267-6f6e-44a6-9f6c-742e6b696361,rev?*
G04 #@! TF.SameCoordinates,Original*
G04 #@! TF.FileFunction,Legend,Top*
G04 #@! TF.FilePolarity,Positive*
%FSLAX46Y46*%
G04 Gerber Fmt 4.6, Leading zero omitted, Abs format (unit mm)*
G04 Created by KiCad (PCBNEW 7.0.10) date 2024-03-04 21:29:39*
%MOMM*%
%LPD*%
G01*
G04 APERTURE LIST*
%ADD10C,0.150000*%
%ADD11C,0.120000*%
%ADD12C,0.127000*%
%ADD13C,0.200000*%
G04 APERTURE END LIST*
D10*
X170770779Y-67179819D02*
X170770779Y-66179819D01*
X170770779Y-66179819D02*
X171104112Y-66894104D01*
X171104112Y-66894104D02*
X171437445Y-66179819D01*
X171437445Y-66179819D02*
X171437445Y-67179819D01*
X172294588Y-67132200D02*
X172199350Y-67179819D01*
X172199350Y-67179819D02*
X172008874Y-67179819D01*
X172008874Y-67179819D02*
X171913636Y-67132200D01*
X171913636Y-67132200D02*
X171866017Y-67036961D01*
X171866017Y-67036961D02*
X171866017Y-66656009D01*
X171866017Y-66656009D02*
X171913636Y-66560771D01*
X171913636Y-66560771D02*
X172008874Y-66513152D01*
X172008874Y-66513152D02*
X172199350Y-66513152D01*
X172199350Y-66513152D02*
X172294588Y-66560771D01*
X172294588Y-66560771D02*
X172342207Y-66656009D01*
X172342207Y-66656009D02*
X172342207Y-66751247D01*
X172342207Y-66751247D02*
X171866017Y-66846485D01*
X172770779Y-67179819D02*
X172770779Y-66513152D01*
X172770779Y-66608390D02*
X172818398Y-66560771D01*
X172818398Y-66560771D02*
X172913636Y-66513152D01*
X172913636Y-66513152D02*
X173056493Y-66513152D01*
X173056493Y-66513152D02*
X173151731Y-66560771D01*
X173151731Y-66560771D02*
X173199350Y-66656009D01*
X173199350Y-66656009D02*
X173199350Y-67179819D01*
X173199350Y-66656009D02*
X173246969Y-66560771D01*
X173246969Y-66560771D02*
X173342207Y-66513152D01*
X173342207Y-66513152D02*
X173485064Y-66513152D01*
X173485064Y-66513152D02*
X173580303Y-66560771D01*
X173580303Y-66560771D02*
X173627922Y-66656009D01*
X173627922Y-66656009D02*
X173627922Y-67179819D01*
X174246969Y-67179819D02*
X174151731Y-67132200D01*
X174151731Y-67132200D02*
X174104112Y-67084580D01*
X174104112Y-67084580D02*
X174056493Y-66989342D01*
X174056493Y-66989342D02*
X174056493Y-66703628D01*
X174056493Y-66703628D02*
X174104112Y-66608390D01*
X174104112Y-66608390D02*
X174151731Y-66560771D01*
X174151731Y-66560771D02*
X174246969Y-66513152D01*
X174246969Y-66513152D02*
X174389826Y-66513152D01*
X174389826Y-66513152D02*
X174485064Y-66560771D01*
X174485064Y-66560771D02*
X174532683Y-66608390D01*
X174532683Y-66608390D02*
X174580302Y-66703628D01*
X174580302Y-66703628D02*
X174580302Y-66989342D01*
X174580302Y-66989342D02*
X174532683Y-67084580D01*
X174532683Y-67084580D02*
X174485064Y-67132200D01*
X174485064Y-67132200D02*
X174389826Y-67179819D01*
X174389826Y-67179819D02*
X174246969Y-67179819D01*
X175008874Y-67179819D02*
X175008874Y-66513152D01*
X175008874Y-66703628D02*
X175056493Y-66608390D01*
X175056493Y-66608390D02*
X175104112Y-66560771D01*
X175104112Y-66560771D02*
X175199350Y-66513152D01*
X175199350Y-66513152D02*
X175294588Y-66513152D01*
X175532684Y-66513152D02*
X175770779Y-67179819D01*
X176008874Y-66513152D02*
X175770779Y-67179819D01*
X175770779Y-67179819D02*
X175675541Y-67417914D01*
X175675541Y-67417914D02*
X175627922Y-67465533D01*
X175627922Y-67465533D02*
X175532684Y-67513152D01*
X122288493Y-107917819D02*
X122288493Y-108632104D01*
X122288493Y-108632104D02*
X122240874Y-108774961D01*
X122240874Y-108774961D02*
X122145636Y-108870200D01*
X122145636Y-108870200D02*
X122002779Y-108917819D01*
X122002779Y-108917819D02*
X121907541Y-108917819D01*
X123193255Y-108917819D02*
X123193255Y-108394009D01*
X123193255Y-108394009D02*
X123145636Y-108298771D01*
X123145636Y-108298771D02*
X123050398Y-108251152D01*
X123050398Y-108251152D02*
X122859922Y-108251152D01*
X122859922Y-108251152D02*
X122764684Y-108298771D01*
X123193255Y-108870200D02*
X123098017Y-108917819D01*
X123098017Y-108917819D02*
X122859922Y-108917819D01*
X122859922Y-108917819D02*
X122764684Y-108870200D01*
X122764684Y-108870200D02*
X122717065Y-108774961D01*
X122717065Y-108774961D02*
X122717065Y-108679723D01*
X122717065Y-108679723D02*
X122764684Y-108584485D01*
X122764684Y-108584485D02*
X122859922Y-108536866D01*
X122859922Y-108536866D02*
X123098017Y-108536866D01*
X123098017Y-108536866D02*
X123193255Y-108489247D01*
X123669446Y-108917819D02*
X123669446Y-108251152D01*
X123669446Y-108441628D02*
X123717065Y-108346390D01*
X123717065Y-108346390D02*
X123764684Y-108298771D01*
X123764684Y-108298771D02*
X123859922Y-108251152D01*
X123859922Y-108251152D02*
X123955160Y-108251152D01*
X124717065Y-108251152D02*
X124717065Y-109060676D01*
X124717065Y-109060676D02*
X124669446Y-109155914D01*
X124669446Y-109155914D02*
X124621827Y-109203533D01*
X124621827Y-109203533D02*
X124526589Y-109251152D01*
X124526589Y-109251152D02*
X124383732Y-109251152D01*
X124383732Y-109251152D02*
X124288494Y-109203533D01*
X124717065Y-108870200D02*
X124621827Y-108917819D01*
X124621827Y-108917819D02*
X124431351Y-108917819D01*
X124431351Y-108917819D02*
X124336113Y-108870200D01*
X124336113Y-108870200D02*
X124288494Y-108822580D01*
X124288494Y-108822580D02*
X124240875Y-108727342D01*
X124240875Y-108727342D02*
X124240875Y-108441628D01*
X124240875Y-108441628D02*
X124288494Y-108346390D01*
X124288494Y-108346390D02*
X124336113Y-108298771D01*
X124336113Y-108298771D02*
X124431351Y-108251152D01*
X124431351Y-108251152D02*
X124621827Y-108251152D01*
X124621827Y-108251152D02*
X124717065Y-108298771D01*
X125336113Y-108917819D02*
X125240875Y-108870200D01*
X125240875Y-108870200D02*
X125193256Y-108822580D01*
X125193256Y-108822580D02*
X125145637Y-108727342D01*
X125145637Y-108727342D02*
X125145637Y-108441628D01*
X125145637Y-108441628D02*
X125193256Y-108346390D01*
X125193256Y-108346390D02*
X125240875Y-108298771D01*
X125240875Y-108298771D02*
X125336113Y-108251152D01*
X125336113Y-108251152D02*
X125478970Y-108251152D01*
X125478970Y-108251152D02*
X125574208Y-108298771D01*
X125574208Y-108298771D02*
X125621827Y-108346390D01*
X125621827Y-108346390D02*
X125669446Y-108441628D01*
X125669446Y-108441628D02*
X125669446Y-108727342D01*
X125669446Y-108727342D02*
X125621827Y-108822580D01*
X125621827Y-108822580D02*
X125574208Y-108870200D01*
X125574208Y-108870200D02*
X125478970Y-108917819D01*
X125478970Y-108917819D02*
X125336113Y-108917819D01*
X126098018Y-108251152D02*
X126098018Y-108917819D01*
X126098018Y-108346390D02*
X126145637Y-108298771D01*
X126145637Y-108298771D02*
X126240875Y-108251152D01*
X126240875Y-108251152D02*
X126383732Y-108251152D01*
X126383732Y-108251152D02*
X126478970Y-108298771D01*
X126478970Y-108298771D02*
X126526589Y-108394009D01*
X126526589Y-108394009D02*
X126526589Y-108917819D01*
X127288494Y-107917819D02*
X127288494Y-108632104D01*
X127288494Y-108632104D02*
X127240875Y-108774961D01*
X127240875Y-108774961D02*
X127145637Y-108870200D01*
X127145637Y-108870200D02*
X127002780Y-108917819D01*
X127002780Y-108917819D02*
X126907542Y-108917819D01*
X127907542Y-108917819D02*
X127812304Y-108870200D01*
X127812304Y-108870200D02*
X127764685Y-108822580D01*
X127764685Y-108822580D02*
X127717066Y-108727342D01*
X127717066Y-108727342D02*
X127717066Y-108441628D01*
X127717066Y-108441628D02*
X127764685Y-108346390D01*
X127764685Y-108346390D02*
X127812304Y-108298771D01*
X127812304Y-108298771D02*
X127907542Y-108251152D01*
X127907542Y-108251152D02*
X128050399Y-108251152D01*
X128050399Y-108251152D02*
X128145637Y-108298771D01*
X128145637Y-108298771D02*
X128193256Y-108346390D01*
X128193256Y-108346390D02*
X128240875Y-108441628D01*
X128240875Y-108441628D02*
X128240875Y-108727342D01*
X128240875Y-108727342D02*
X128193256Y-108822580D01*
X128193256Y-108822580D02*
X128145637Y-108870200D01*
X128145637Y-108870200D02*
X128050399Y-108917819D01*
X128050399Y-108917819D02*
X127907542Y-108917819D01*
X128812304Y-108917819D02*
X128717066Y-108870200D01*
X128717066Y-108870200D02*
X128669447Y-108774961D01*
X128669447Y-108774961D02*
X128669447Y-107917819D01*
X129050400Y-108251152D02*
X129431352Y-108251152D01*
X129193257Y-107917819D02*
X129193257Y-108774961D01*
X129193257Y-108774961D02*
X129240876Y-108870200D01*
X129240876Y-108870200D02*
X129336114Y-108917819D01*
X129336114Y-108917819D02*
X129431352Y-108917819D01*
X130431353Y-108251152D02*
X130669448Y-108917819D01*
X130669448Y-108917819D02*
X130907543Y-108251152D01*
X131812305Y-108917819D02*
X131240877Y-108917819D01*
X131526591Y-108917819D02*
X131526591Y-107917819D01*
X131526591Y-107917819D02*
X131431353Y-108060676D01*
X131431353Y-108060676D02*
X131336115Y-108155914D01*
X131336115Y-108155914D02*
X131240877Y-108203533D01*
X132240877Y-108822580D02*
X132288496Y-108870200D01*
X132288496Y-108870200D02*
X132240877Y-108917819D01*
X132240877Y-108917819D02*
X132193258Y-108870200D01*
X132193258Y-108870200D02*
X132240877Y-108822580D01*
X132240877Y-108822580D02*
X132240877Y-108917819D01*
X132907543Y-107917819D02*
X133002781Y-107917819D01*
X133002781Y-107917819D02*
X133098019Y-107965438D01*
X133098019Y-107965438D02*
X133145638Y-108013057D01*
X133145638Y-108013057D02*
X133193257Y-108108295D01*
X133193257Y-108108295D02*
X133240876Y-108298771D01*
X133240876Y-108298771D02*
X133240876Y-108536866D01*
X133240876Y-108536866D02*
X133193257Y-108727342D01*
X133193257Y-108727342D02*
X133145638Y-108822580D01*
X133145638Y-108822580D02*
X133098019Y-108870200D01*
X133098019Y-108870200D02*
X133002781Y-108917819D01*
X133002781Y-108917819D02*
X132907543Y-108917819D01*
X132907543Y-108917819D02*
X132812305Y-108870200D01*
X132812305Y-108870200D02*
X132764686Y-108822580D01*
X132764686Y-108822580D02*
X132717067Y-108727342D01*
X132717067Y-108727342D02*
X132669448Y-108536866D01*
X132669448Y-108536866D02*
X132669448Y-108298771D01*
X132669448Y-108298771D02*
X132717067Y-108108295D01*
X132717067Y-108108295D02*
X132764686Y-108013057D01*
X132764686Y-108013057D02*
X132812305Y-107965438D01*
X132812305Y-107965438D02*
X132907543Y-107917819D01*
X133669448Y-108822580D02*
X133717067Y-108870200D01*
X133717067Y-108870200D02*
X133669448Y-108917819D01*
X133669448Y-108917819D02*
X133621829Y-108870200D01*
X133621829Y-108870200D02*
X133669448Y-108822580D01*
X133669448Y-108822580D02*
X133669448Y-108917819D01*
X134336114Y-107917819D02*
X134431352Y-107917819D01*
X134431352Y-107917819D02*
X134526590Y-107965438D01*
X134526590Y-107965438D02*
X134574209Y-108013057D01*
X134574209Y-108013057D02*
X134621828Y-108108295D01*
X134621828Y-108108295D02*
X134669447Y-108298771D01*
X134669447Y-108298771D02*
X134669447Y-108536866D01*
X134669447Y-108536866D02*
X134621828Y-108727342D01*
X134621828Y-108727342D02*
X134574209Y-108822580D01*
X134574209Y-108822580D02*
X134526590Y-108870200D01*
X134526590Y-108870200D02*
X134431352Y-108917819D01*
X134431352Y-108917819D02*
X134336114Y-108917819D01*
X134336114Y-108917819D02*
X134240876Y-108870200D01*
X134240876Y-108870200D02*
X134193257Y-108822580D01*
X134193257Y-108822580D02*
X134145638Y-108727342D01*
X134145638Y-108727342D02*
X134098019Y-108536866D01*
X134098019Y-108536866D02*
X134098019Y-108298771D01*
X134098019Y-108298771D02*
X134145638Y-108108295D01*
X134145638Y-108108295D02*
X134193257Y-108013057D01*
X134193257Y-108013057D02*
X134240876Y-107965438D01*
X134240876Y-107965438D02*
X134336114Y-107917819D01*
X121859922Y-109527819D02*
X122431350Y-109527819D01*
X122145636Y-110527819D02*
X122145636Y-109527819D01*
X123145636Y-110480200D02*
X123050398Y-110527819D01*
X123050398Y-110527819D02*
X122859922Y-110527819D01*
X122859922Y-110527819D02*
X122764684Y-110480200D01*
X122764684Y-110480200D02*
X122717065Y-110384961D01*
X122717065Y-110384961D02*
X122717065Y-110004009D01*
X122717065Y-110004009D02*
X122764684Y-109908771D01*
X122764684Y-109908771D02*
X122859922Y-109861152D01*
X122859922Y-109861152D02*
X123050398Y-109861152D01*
X123050398Y-109861152D02*
X123145636Y-109908771D01*
X123145636Y-109908771D02*
X123193255Y-110004009D01*
X123193255Y-110004009D02*
X123193255Y-110099247D01*
X123193255Y-110099247D02*
X122717065Y-110194485D01*
X124050398Y-110527819D02*
X124050398Y-110004009D01*
X124050398Y-110004009D02*
X124002779Y-109908771D01*
X124002779Y-109908771D02*
X123907541Y-109861152D01*
X123907541Y-109861152D02*
X123717065Y-109861152D01*
X123717065Y-109861152D02*
X123621827Y-109908771D01*
X124050398Y-110480200D02*
X123955160Y-110527819D01*
X123955160Y-110527819D02*
X123717065Y-110527819D01*
X123717065Y-110527819D02*
X123621827Y-110480200D01*
X123621827Y-110480200D02*
X123574208Y-110384961D01*
X123574208Y-110384961D02*
X123574208Y-110289723D01*
X123574208Y-110289723D02*
X123621827Y-110194485D01*
X123621827Y-110194485D02*
X123717065Y-110146866D01*
X123717065Y-110146866D02*
X123955160Y-110146866D01*
X123955160Y-110146866D02*
X124050398Y-110099247D01*
X124526589Y-110527819D02*
X124526589Y-109861152D01*
X124526589Y-109956390D02*
X124574208Y-109908771D01*
X124574208Y-109908771D02*
X124669446Y-109861152D01*
X124669446Y-109861152D02*
X124812303Y-109861152D01*
X124812303Y-109861152D02*
X124907541Y-109908771D01*
X124907541Y-109908771D02*
X124955160Y-110004009D01*
X124955160Y-110004009D02*
X124955160Y-110527819D01*
X124955160Y-110004009D02*
X125002779Y-109908771D01*
X125002779Y-109908771D02*
X125098017Y-109861152D01*
X125098017Y-109861152D02*
X125240874Y-109861152D01*
X125240874Y-109861152D02*
X125336113Y-109908771D01*
X125336113Y-109908771D02*
X125383732Y-110004009D01*
X125383732Y-110004009D02*
X125383732Y-110527819D01*
X126574208Y-109623057D02*
X126621827Y-109575438D01*
X126621827Y-109575438D02*
X126717065Y-109527819D01*
X126717065Y-109527819D02*
X126955160Y-109527819D01*
X126955160Y-109527819D02*
X127050398Y-109575438D01*
X127050398Y-109575438D02*
X127098017Y-109623057D01*
X127098017Y-109623057D02*
X127145636Y-109718295D01*
X127145636Y-109718295D02*
X127145636Y-109813533D01*
X127145636Y-109813533D02*
X127098017Y-109956390D01*
X127098017Y-109956390D02*
X126526589Y-110527819D01*
X126526589Y-110527819D02*
X127145636Y-110527819D01*
X127717065Y-109956390D02*
X127621827Y-109908771D01*
X127621827Y-109908771D02*
X127574208Y-109861152D01*
X127574208Y-109861152D02*
X127526589Y-109765914D01*
X127526589Y-109765914D02*
X127526589Y-109718295D01*
X127526589Y-109718295D02*
X127574208Y-109623057D01*
X127574208Y-109623057D02*
X127621827Y-109575438D01*
X127621827Y-109575438D02*
X127717065Y-109527819D01*
X127717065Y-109527819D02*
X127907541Y-109527819D01*
X127907541Y-109527819D02*
X128002779Y-109575438D01*
X128002779Y-109575438D02*
X128050398Y-109623057D01*
X128050398Y-109623057D02*
X128098017Y-109718295D01*
X128098017Y-109718295D02*
X128098017Y-109765914D01*
X128098017Y-109765914D02*
X128050398Y-109861152D01*
X128050398Y-109861152D02*
X128002779Y-109908771D01*
X128002779Y-109908771D02*
X127907541Y-109956390D01*
X127907541Y-109956390D02*
X127717065Y-109956390D01*
X127717065Y-109956390D02*
X127621827Y-110004009D01*
X127621827Y-110004009D02*
X127574208Y-110051628D01*
X127574208Y-110051628D02*
X127526589Y-110146866D01*
X127526589Y-110146866D02*
X127526589Y-110337342D01*
X127526589Y-110337342D02*
X127574208Y-110432580D01*
X127574208Y-110432580D02*
X127621827Y-110480200D01*
X127621827Y-110480200D02*
X127717065Y-110527819D01*
X127717065Y-110527819D02*
X127907541Y-110527819D01*
X127907541Y-110527819D02*
X128002779Y-110480200D01*
X128002779Y-110480200D02*
X128050398Y-110432580D01*
X128050398Y-110432580D02*
X128098017Y-110337342D01*
X128098017Y-110337342D02*
X128098017Y-110146866D01*
X128098017Y-110146866D02*
X128050398Y-110051628D01*
X128050398Y-110051628D02*
X128002779Y-110004009D01*
X128002779Y-110004009D02*
X127907541Y-109956390D01*
X121907541Y-111137819D02*
X122526588Y-111137819D01*
X122526588Y-111137819D02*
X122193255Y-111518771D01*
X122193255Y-111518771D02*
X122336112Y-111518771D01*
X122336112Y-111518771D02*
X122431350Y-111566390D01*
X122431350Y-111566390D02*
X122478969Y-111614009D01*
X122478969Y-111614009D02*
X122526588Y-111709247D01*
X122526588Y-111709247D02*
X122526588Y-111947342D01*
X122526588Y-111947342D02*
X122478969Y-112042580D01*
X122478969Y-112042580D02*
X122431350Y-112090200D01*
X122431350Y-112090200D02*
X122336112Y-112137819D01*
X122336112Y-112137819D02*
X122050398Y-112137819D01*
X122050398Y-112137819D02*
X121955160Y-112090200D01*
X121955160Y-112090200D02*
X121907541Y-112042580D01*
X123669445Y-111090200D02*
X122812303Y-112375914D01*
X124431350Y-111471152D02*
X124431350Y-112137819D01*
X124193255Y-111090200D02*
X123955160Y-111804485D01*
X123955160Y-111804485D02*
X124574207Y-111804485D01*
X125669445Y-111090200D02*
X124812303Y-112375914D01*
X125955160Y-111233057D02*
X126002779Y-111185438D01*
X126002779Y-111185438D02*
X126098017Y-111137819D01*
X126098017Y-111137819D02*
X126336112Y-111137819D01*
X126336112Y-111137819D02*
X126431350Y-111185438D01*
X126431350Y-111185438D02*
X126478969Y-111233057D01*
X126478969Y-111233057D02*
X126526588Y-111328295D01*
X126526588Y-111328295D02*
X126526588Y-111423533D01*
X126526588Y-111423533D02*
X126478969Y-111566390D01*
X126478969Y-111566390D02*
X125907541Y-112137819D01*
X125907541Y-112137819D02*
X126526588Y-112137819D01*
X127383731Y-111471152D02*
X127383731Y-112137819D01*
X127145636Y-111090200D02*
X126907541Y-111804485D01*
X126907541Y-111804485D02*
X127526588Y-111804485D01*
X186772779Y-67179819D02*
X186772779Y-66179819D01*
X186772779Y-66179819D02*
X187153731Y-66179819D01*
X187153731Y-66179819D02*
X187248969Y-66227438D01*
X187248969Y-66227438D02*
X187296588Y-66275057D01*
X187296588Y-66275057D02*
X187344207Y-66370295D01*
X187344207Y-66370295D02*
X187344207Y-66513152D01*
X187344207Y-66513152D02*
X187296588Y-66608390D01*
X187296588Y-66608390D02*
X187248969Y-66656009D01*
X187248969Y-66656009D02*
X187153731Y-66703628D01*
X187153731Y-66703628D02*
X186772779Y-66703628D01*
X187772779Y-67179819D02*
X187772779Y-66513152D01*
X187772779Y-66703628D02*
X187820398Y-66608390D01*
X187820398Y-66608390D02*
X187868017Y-66560771D01*
X187868017Y-66560771D02*
X187963255Y-66513152D01*
X187963255Y-66513152D02*
X188058493Y-66513152D01*
X188534684Y-67179819D02*
X188439446Y-67132200D01*
X188439446Y-67132200D02*
X188391827Y-67084580D01*
X188391827Y-67084580D02*
X188344208Y-66989342D01*
X188344208Y-66989342D02*
X188344208Y-66703628D01*
X188344208Y-66703628D02*
X188391827Y-66608390D01*
X188391827Y-66608390D02*
X188439446Y-66560771D01*
X188439446Y-66560771D02*
X188534684Y-66513152D01*
X188534684Y-66513152D02*
X188677541Y-66513152D01*
X188677541Y-66513152D02*
X188772779Y-66560771D01*
X188772779Y-66560771D02*
X188820398Y-66608390D01*
X188820398Y-66608390D02*
X188868017Y-66703628D01*
X188868017Y-66703628D02*
X188868017Y-66989342D01*
X188868017Y-66989342D02*
X188820398Y-67084580D01*
X188820398Y-67084580D02*
X188772779Y-67132200D01*
X188772779Y-67132200D02*
X188677541Y-67179819D01*
X188677541Y-67179819D02*
X188534684Y-67179819D01*
X189725160Y-66513152D02*
X189725160Y-67322676D01*
X189725160Y-67322676D02*
X189677541Y-67417914D01*
X189677541Y-67417914D02*
X189629922Y-67465533D01*
X189629922Y-67465533D02*
X189534684Y-67513152D01*
X189534684Y-67513152D02*
X189391827Y-67513152D01*
X189391827Y-67513152D02*
X189296589Y-67465533D01*
X189725160Y-67132200D02*
X189629922Y-67179819D01*
X189629922Y-67179819D02*
X189439446Y-67179819D01*
X189439446Y-67179819D02*
X189344208Y-67132200D01*
X189344208Y-67132200D02*
X189296589Y-67084580D01*
X189296589Y-67084580D02*
X189248970Y-66989342D01*
X189248970Y-66989342D02*
X189248970Y-66703628D01*
X189248970Y-66703628D02*
X189296589Y-66608390D01*
X189296589Y-66608390D02*
X189344208Y-66560771D01*
X189344208Y-66560771D02*
X189439446Y-66513152D01*
X189439446Y-66513152D02*
X189629922Y-66513152D01*
X189629922Y-66513152D02*
X189725160Y-66560771D01*
X190201351Y-67179819D02*
X190201351Y-66513152D01*
X190201351Y-66703628D02*
X190248970Y-66608390D01*
X190248970Y-66608390D02*
X190296589Y-66560771D01*
X190296589Y-66560771D02*
X190391827Y-66513152D01*
X190391827Y-66513152D02*
X190487065Y-66513152D01*
X191248970Y-67179819D02*
X191248970Y-66656009D01*
X191248970Y-66656009D02*
X191201351Y-66560771D01*
X191201351Y-66560771D02*
X191106113Y-66513152D01*
X191106113Y-66513152D02*
X190915637Y-66513152D01*
X190915637Y-66513152D02*
X190820399Y-66560771D01*
X191248970Y-67132200D02*
X191153732Y-67179819D01*
X191153732Y-67179819D02*
X190915637Y-67179819D01*
X190915637Y-67179819D02*
X190820399Y-67132200D01*
X190820399Y-67132200D02*
X190772780Y-67036961D01*
X190772780Y-67036961D02*
X190772780Y-66941723D01*
X190772780Y-66941723D02*
X190820399Y-66846485D01*
X190820399Y-66846485D02*
X190915637Y-66798866D01*
X190915637Y-66798866D02*
X191153732Y-66798866D01*
X191153732Y-66798866D02*
X191248970Y-66751247D01*
X191725161Y-67179819D02*
X191725161Y-66513152D01*
X191725161Y-66608390D02*
X191772780Y-66560771D01*
X191772780Y-66560771D02*
X191868018Y-66513152D01*
X191868018Y-66513152D02*
X192010875Y-66513152D01*
X192010875Y-66513152D02*
X192106113Y-66560771D01*
X192106113Y-66560771D02*
X192153732Y-66656009D01*
X192153732Y-66656009D02*
X192153732Y-67179819D01*
X192153732Y-66656009D02*
X192201351Y-66560771D01*
X192201351Y-66560771D02*
X192296589Y-66513152D01*
X192296589Y-66513152D02*
X192439446Y-66513152D01*
X192439446Y-66513152D02*
X192534685Y-66560771D01*
X192534685Y-66560771D02*
X192582304Y-66656009D01*
X192582304Y-66656009D02*
X192582304Y-67179819D01*
X193058494Y-67179819D02*
X193058494Y-66513152D01*
X193058494Y-66608390D02*
X193106113Y-66560771D01*
X193106113Y-66560771D02*
X193201351Y-66513152D01*
X193201351Y-66513152D02*
X193344208Y-66513152D01*
X193344208Y-66513152D02*
X193439446Y-66560771D01*
X193439446Y-66560771D02*
X193487065Y-66656009D01*
X193487065Y-66656009D02*
X193487065Y-67179819D01*
X193487065Y-66656009D02*
X193534684Y-66560771D01*
X193534684Y-66560771D02*
X193629922Y-66513152D01*
X193629922Y-66513152D02*
X193772779Y-66513152D01*
X193772779Y-66513152D02*
X193868018Y-66560771D01*
X193868018Y-66560771D02*
X193915637Y-66656009D01*
X193915637Y-66656009D02*
X193915637Y-67179819D01*
X194391827Y-67179819D02*
X194391827Y-66513152D01*
X194391827Y-66179819D02*
X194344208Y-66227438D01*
X194344208Y-66227438D02*
X194391827Y-66275057D01*
X194391827Y-66275057D02*
X194439446Y-66227438D01*
X194439446Y-66227438D02*
X194391827Y-66179819D01*
X194391827Y-66179819D02*
X194391827Y-66275057D01*
X194868017Y-66513152D02*
X194868017Y-67179819D01*
X194868017Y-66608390D02*
X194915636Y-66560771D01*
X194915636Y-66560771D02*
X195010874Y-66513152D01*
X195010874Y-66513152D02*
X195153731Y-66513152D01*
X195153731Y-66513152D02*
X195248969Y-66560771D01*
X195248969Y-66560771D02*
X195296588Y-66656009D01*
X195296588Y-66656009D02*
X195296588Y-67179819D01*
X196201350Y-66513152D02*
X196201350Y-67322676D01*
X196201350Y-67322676D02*
X196153731Y-67417914D01*
X196153731Y-67417914D02*
X196106112Y-67465533D01*
X196106112Y-67465533D02*
X196010874Y-67513152D01*
X196010874Y-67513152D02*
X195868017Y-67513152D01*
X195868017Y-67513152D02*
X195772779Y-67465533D01*
X196201350Y-67132200D02*
X196106112Y-67179819D01*
X196106112Y-67179819D02*
X195915636Y-67179819D01*
X195915636Y-67179819D02*
X195820398Y-67132200D01*
X195820398Y-67132200D02*
X195772779Y-67084580D01*
X195772779Y-67084580D02*
X195725160Y-66989342D01*
X195725160Y-66989342D02*
X195725160Y-66703628D01*
X195725160Y-66703628D02*
X195772779Y-66608390D01*
X195772779Y-66608390D02*
X195820398Y-66560771D01*
X195820398Y-66560771D02*
X195915636Y-66513152D01*
X195915636Y-66513152D02*
X196106112Y-66513152D01*
X196106112Y-66513152D02*
X196201350Y-66560771D01*
X131400779Y-68703819D02*
X131400779Y-67703819D01*
X131829350Y-67799057D02*
X131876969Y-67751438D01*
X131876969Y-67751438D02*
X131972207Y-67703819D01*
X131972207Y-67703819D02*
X132210302Y-67703819D01*
X132210302Y-67703819D02*
X132305540Y-67751438D01*
X132305540Y-67751438D02*
X132353159Y-67799057D01*
X132353159Y-67799057D02*
X132400778Y-67894295D01*
X132400778Y-67894295D02*
X132400778Y-67989533D01*
X132400778Y-67989533D02*
X132353159Y-68132390D01*
X132353159Y-68132390D02*
X131781731Y-68703819D01*
X131781731Y-68703819D02*
X132400778Y-68703819D01*
X132781731Y-68656200D02*
X132924588Y-68703819D01*
X132924588Y-68703819D02*
X133162683Y-68703819D01*
X133162683Y-68703819D02*
X133257921Y-68656200D01*
X133257921Y-68656200D02*
X133305540Y-68608580D01*
X133305540Y-68608580D02*
X133353159Y-68513342D01*
X133353159Y-68513342D02*
X133353159Y-68418104D01*
X133353159Y-68418104D02*
X133305540Y-68322866D01*
X133305540Y-68322866D02*
X133257921Y-68275247D01*
X133257921Y-68275247D02*
X133162683Y-68227628D01*
X133162683Y-68227628D02*
X132972207Y-68180009D01*
X132972207Y-68180009D02*
X132876969Y-68132390D01*
X132876969Y-68132390D02*
X132829350Y-68084771D01*
X132829350Y-68084771D02*
X132781731Y-67989533D01*
X132781731Y-67989533D02*
X132781731Y-67894295D01*
X132781731Y-67894295D02*
X132829350Y-67799057D01*
X132829350Y-67799057D02*
X132876969Y-67751438D01*
X132876969Y-67751438D02*
X132972207Y-67703819D01*
X132972207Y-67703819D02*
X133210302Y-67703819D01*
X133210302Y-67703819D02*
X133353159Y-67751438D01*
X134496017Y-68418104D02*
X134972207Y-68418104D01*
X134400779Y-68703819D02*
X134734112Y-67703819D01*
X134734112Y-67703819D02*
X135067445Y-68703819D01*
X135400779Y-68703819D02*
X135400779Y-68037152D01*
X135400779Y-68132390D02*
X135448398Y-68084771D01*
X135448398Y-68084771D02*
X135543636Y-68037152D01*
X135543636Y-68037152D02*
X135686493Y-68037152D01*
X135686493Y-68037152D02*
X135781731Y-68084771D01*
X135781731Y-68084771D02*
X135829350Y-68180009D01*
X135829350Y-68180009D02*
X135829350Y-68703819D01*
X135829350Y-68180009D02*
X135876969Y-68084771D01*
X135876969Y-68084771D02*
X135972207Y-68037152D01*
X135972207Y-68037152D02*
X136115064Y-68037152D01*
X136115064Y-68037152D02*
X136210303Y-68084771D01*
X136210303Y-68084771D02*
X136257922Y-68180009D01*
X136257922Y-68180009D02*
X136257922Y-68703819D01*
X136734112Y-68037152D02*
X136734112Y-69037152D01*
X136734112Y-68084771D02*
X136829350Y-68037152D01*
X136829350Y-68037152D02*
X137019826Y-68037152D01*
X137019826Y-68037152D02*
X137115064Y-68084771D01*
X137115064Y-68084771D02*
X137162683Y-68132390D01*
X137162683Y-68132390D02*
X137210302Y-68227628D01*
X137210302Y-68227628D02*
X137210302Y-68513342D01*
X137210302Y-68513342D02*
X137162683Y-68608580D01*
X137162683Y-68608580D02*
X137115064Y-68656200D01*
X137115064Y-68656200D02*
X137019826Y-68703819D01*
X137019826Y-68703819D02*
X136829350Y-68703819D01*
X136829350Y-68703819D02*
X136734112Y-68656200D01*
X133893160Y-106756200D02*
X134036017Y-106803819D01*
X134036017Y-106803819D02*
X134274112Y-106803819D01*
X134274112Y-106803819D02*
X134369350Y-106756200D01*
X134369350Y-106756200D02*
X134416969Y-106708580D01*
X134416969Y-106708580D02*
X134464588Y-106613342D01*
X134464588Y-106613342D02*
X134464588Y-106518104D01*
X134464588Y-106518104D02*
X134416969Y-106422866D01*
X134416969Y-106422866D02*
X134369350Y-106375247D01*
X134369350Y-106375247D02*
X134274112Y-106327628D01*
X134274112Y-106327628D02*
X134083636Y-106280009D01*
X134083636Y-106280009D02*
X133988398Y-106232390D01*
X133988398Y-106232390D02*
X133940779Y-106184771D01*
X133940779Y-106184771D02*
X133893160Y-106089533D01*
X133893160Y-106089533D02*
X133893160Y-105994295D01*
X133893160Y-105994295D02*
X133940779Y-105899057D01*
X133940779Y-105899057D02*
X133988398Y-105851438D01*
X133988398Y-105851438D02*
X134083636Y-105803819D01*
X134083636Y-105803819D02*
X134321731Y-105803819D01*
X134321731Y-105803819D02*
X134464588Y-105851438D01*
X135321731Y-106756200D02*
X135226493Y-106803819D01*
X135226493Y-106803819D02*
X135036017Y-106803819D01*
X135036017Y-106803819D02*
X134940779Y-106756200D01*
X134940779Y-106756200D02*
X134893160Y-106708580D01*
X134893160Y-106708580D02*
X134845541Y-106613342D01*
X134845541Y-106613342D02*
X134845541Y-106327628D01*
X134845541Y-106327628D02*
X134893160Y-106232390D01*
X134893160Y-106232390D02*
X134940779Y-106184771D01*
X134940779Y-106184771D02*
X135036017Y-106137152D01*
X135036017Y-106137152D02*
X135226493Y-106137152D01*
X135226493Y-106137152D02*
X135321731Y-106184771D01*
X135750303Y-106803819D02*
X135750303Y-106137152D01*
X135750303Y-106327628D02*
X135797922Y-106232390D01*
X135797922Y-106232390D02*
X135845541Y-106184771D01*
X135845541Y-106184771D02*
X135940779Y-106137152D01*
X135940779Y-106137152D02*
X136036017Y-106137152D01*
X136750303Y-106756200D02*
X136655065Y-106803819D01*
X136655065Y-106803819D02*
X136464589Y-106803819D01*
X136464589Y-106803819D02*
X136369351Y-106756200D01*
X136369351Y-106756200D02*
X136321732Y-106660961D01*
X136321732Y-106660961D02*
X136321732Y-106280009D01*
X136321732Y-106280009D02*
X136369351Y-106184771D01*
X136369351Y-106184771D02*
X136464589Y-106137152D01*
X136464589Y-106137152D02*
X136655065Y-106137152D01*
X136655065Y-106137152D02*
X136750303Y-106184771D01*
X136750303Y-106184771D02*
X136797922Y-106280009D01*
X136797922Y-106280009D02*
X136797922Y-106375247D01*
X136797922Y-106375247D02*
X136321732Y-106470485D01*
X137607446Y-106756200D02*
X137512208Y-106803819D01*
X137512208Y-106803819D02*
X137321732Y-106803819D01*
X137321732Y-106803819D02*
X137226494Y-106756200D01*
X137226494Y-106756200D02*
X137178875Y-106660961D01*
X137178875Y-106660961D02*
X137178875Y-106280009D01*
X137178875Y-106280009D02*
X137226494Y-106184771D01*
X137226494Y-106184771D02*
X137321732Y-106137152D01*
X137321732Y-106137152D02*
X137512208Y-106137152D01*
X137512208Y-106137152D02*
X137607446Y-106184771D01*
X137607446Y-106184771D02*
X137655065Y-106280009D01*
X137655065Y-106280009D02*
X137655065Y-106375247D01*
X137655065Y-106375247D02*
X137178875Y-106470485D01*
X138083637Y-106137152D02*
X138083637Y-106803819D01*
X138083637Y-106232390D02*
X138131256Y-106184771D01*
X138131256Y-106184771D02*
X138226494Y-106137152D01*
X138226494Y-106137152D02*
X138369351Y-106137152D01*
X138369351Y-106137152D02*
X138464589Y-106184771D01*
X138464589Y-106184771D02*
X138512208Y-106280009D01*
X138512208Y-106280009D02*
X138512208Y-106803819D01*
X140274113Y-106803819D02*
X139702685Y-106803819D01*
X139988399Y-106803819D02*
X139988399Y-105803819D01*
X139988399Y-105803819D02*
X139893161Y-105946676D01*
X139893161Y-105946676D02*
X139797923Y-106041914D01*
X139797923Y-106041914D02*
X139702685Y-106089533D01*
X133639160Y-112090200D02*
X133782017Y-112137819D01*
X133782017Y-112137819D02*
X134020112Y-112137819D01*
X134020112Y-112137819D02*
X134115350Y-112090200D01*
X134115350Y-112090200D02*
X134162969Y-112042580D01*
X134162969Y-112042580D02*
X134210588Y-111947342D01*
X134210588Y-111947342D02*
X134210588Y-111852104D01*
X134210588Y-111852104D02*
X134162969Y-111756866D01*
X134162969Y-111756866D02*
X134115350Y-111709247D01*
X134115350Y-111709247D02*
X134020112Y-111661628D01*
X134020112Y-111661628D02*
X133829636Y-111614009D01*
X133829636Y-111614009D02*
X133734398Y-111566390D01*
X133734398Y-111566390D02*
X133686779Y-111518771D01*
X133686779Y-111518771D02*
X133639160Y-111423533D01*
X133639160Y-111423533D02*
X133639160Y-111328295D01*
X133639160Y-111328295D02*
X133686779Y-111233057D01*
X133686779Y-111233057D02*
X133734398Y-111185438D01*
X133734398Y-111185438D02*
X133829636Y-111137819D01*
X133829636Y-111137819D02*
X134067731Y-111137819D01*
X134067731Y-111137819D02*
X134210588Y-111185438D01*
X135067731Y-112090200D02*
X134972493Y-112137819D01*
X134972493Y-112137819D02*
X134782017Y-112137819D01*
X134782017Y-112137819D02*
X134686779Y-112090200D01*
X134686779Y-112090200D02*
X134639160Y-112042580D01*
X134639160Y-112042580D02*
X134591541Y-111947342D01*
X134591541Y-111947342D02*
X134591541Y-111661628D01*
X134591541Y-111661628D02*
X134639160Y-111566390D01*
X134639160Y-111566390D02*
X134686779Y-111518771D01*
X134686779Y-111518771D02*
X134782017Y-111471152D01*
X134782017Y-111471152D02*
X134972493Y-111471152D01*
X134972493Y-111471152D02*
X135067731Y-111518771D01*
X135496303Y-112137819D02*
X135496303Y-111471152D01*
X135496303Y-111661628D02*
X135543922Y-111566390D01*
X135543922Y-111566390D02*
X135591541Y-111518771D01*
X135591541Y-111518771D02*
X135686779Y-111471152D01*
X135686779Y-111471152D02*
X135782017Y-111471152D01*
X136496303Y-112090200D02*
X136401065Y-112137819D01*
X136401065Y-112137819D02*
X136210589Y-112137819D01*
X136210589Y-112137819D02*
X136115351Y-112090200D01*
X136115351Y-112090200D02*
X136067732Y-111994961D01*
X136067732Y-111994961D02*
X136067732Y-111614009D01*
X136067732Y-111614009D02*
X136115351Y-111518771D01*
X136115351Y-111518771D02*
X136210589Y-111471152D01*
X136210589Y-111471152D02*
X136401065Y-111471152D01*
X136401065Y-111471152D02*
X136496303Y-111518771D01*
X136496303Y-111518771D02*
X136543922Y-111614009D01*
X136543922Y-111614009D02*
X136543922Y-111709247D01*
X136543922Y-111709247D02*
X136067732Y-111804485D01*
X137353446Y-112090200D02*
X137258208Y-112137819D01*
X137258208Y-112137819D02*
X137067732Y-112137819D01*
X137067732Y-112137819D02*
X136972494Y-112090200D01*
X136972494Y-112090200D02*
X136924875Y-111994961D01*
X136924875Y-111994961D02*
X136924875Y-111614009D01*
X136924875Y-111614009D02*
X136972494Y-111518771D01*
X136972494Y-111518771D02*
X137067732Y-111471152D01*
X137067732Y-111471152D02*
X137258208Y-111471152D01*
X137258208Y-111471152D02*
X137353446Y-111518771D01*
X137353446Y-111518771D02*
X137401065Y-111614009D01*
X137401065Y-111614009D02*
X137401065Y-111709247D01*
X137401065Y-111709247D02*
X136924875Y-111804485D01*
X137829637Y-111471152D02*
X137829637Y-112137819D01*
X137829637Y-111566390D02*
X137877256Y-111518771D01*
X137877256Y-111518771D02*
X137972494Y-111471152D01*
X137972494Y-111471152D02*
X138115351Y-111471152D01*
X138115351Y-111471152D02*
X138210589Y-111518771D01*
X138210589Y-111518771D02*
X138258208Y-111614009D01*
X138258208Y-111614009D02*
X138258208Y-112137819D01*
X139448685Y-111233057D02*
X139496304Y-111185438D01*
X139496304Y-111185438D02*
X139591542Y-111137819D01*
X139591542Y-111137819D02*
X139829637Y-111137819D01*
X139829637Y-111137819D02*
X139924875Y-111185438D01*
X139924875Y-111185438D02*
X139972494Y-111233057D01*
X139972494Y-111233057D02*
X140020113Y-111328295D01*
X140020113Y-111328295D02*
X140020113Y-111423533D01*
X140020113Y-111423533D02*
X139972494Y-111566390D01*
X139972494Y-111566390D02*
X139401066Y-112137819D01*
X139401066Y-112137819D02*
X140020113Y-112137819D01*
X119419905Y-86212819D02*
X119991333Y-86212819D01*
X119705619Y-87212819D02*
X119705619Y-86212819D01*
X120324667Y-87212819D02*
X120324667Y-86212819D01*
X120324667Y-86212819D02*
X120705619Y-86212819D01*
X120705619Y-86212819D02*
X120800857Y-86260438D01*
X120800857Y-86260438D02*
X120848476Y-86308057D01*
X120848476Y-86308057D02*
X120896095Y-86403295D01*
X120896095Y-86403295D02*
X120896095Y-86546152D01*
X120896095Y-86546152D02*
X120848476Y-86641390D01*
X120848476Y-86641390D02*
X120800857Y-86689009D01*
X120800857Y-86689009D02*
X120705619Y-86736628D01*
X120705619Y-86736628D02*
X120324667Y-86736628D01*
X121848476Y-87212819D02*
X121277048Y-87212819D01*
X121562762Y-87212819D02*
X121562762Y-86212819D01*
X121562762Y-86212819D02*
X121467524Y-86355676D01*
X121467524Y-86355676D02*
X121372286Y-86450914D01*
X121372286Y-86450914D02*
X121277048Y-86498533D01*
X122800857Y-87212819D02*
X122229429Y-87212819D01*
X122515143Y-87212819D02*
X122515143Y-86212819D01*
X122515143Y-86212819D02*
X122419905Y-86355676D01*
X122419905Y-86355676D02*
X122324667Y-86450914D01*
X122324667Y-86450914D02*
X122229429Y-86498533D01*
X158084819Y-101274857D02*
X157608628Y-101608190D01*
X158084819Y-101846285D02*
X157084819Y-101846285D01*
X157084819Y-101846285D02*
X157084819Y-101465333D01*
X157084819Y-101465333D02*
X157132438Y-101370095D01*
X157132438Y-101370095D02*
X157180057Y-101322476D01*
X157180057Y-101322476D02*
X157275295Y-101274857D01*
X157275295Y-101274857D02*
X157418152Y-101274857D01*
X157418152Y-101274857D02*
X157513390Y-101322476D01*
X157513390Y-101322476D02*
X157561009Y-101370095D01*
X157561009Y-101370095D02*
X157608628Y-101465333D01*
X157608628Y-101465333D02*
X157608628Y-101846285D01*
X158084819Y-100322476D02*
X158084819Y-100893904D01*
X158084819Y-100608190D02*
X157084819Y-100608190D01*
X157084819Y-100608190D02*
X157227676Y-100703428D01*
X157227676Y-100703428D02*
X157322914Y-100798666D01*
X157322914Y-100798666D02*
X157370533Y-100893904D01*
X158084819Y-99370095D02*
X158084819Y-99941523D01*
X158084819Y-99655809D02*
X157084819Y-99655809D01*
X157084819Y-99655809D02*
X157227676Y-99751047D01*
X157227676Y-99751047D02*
X157322914Y-99846285D01*
X157322914Y-99846285D02*
X157370533Y-99941523D01*
X115062095Y-107744819D02*
X115062095Y-106744819D01*
X115062095Y-107221009D02*
X115633523Y-107221009D01*
X115633523Y-107744819D02*
X115633523Y-106744819D01*
X116633523Y-107744819D02*
X116062095Y-107744819D01*
X116347809Y-107744819D02*
X116347809Y-106744819D01*
X116347809Y-106744819D02*
X116252571Y-106887676D01*
X116252571Y-106887676D02*
X116157333Y-106982914D01*
X116157333Y-106982914D02*
X116062095Y-107030533D01*
X127770095Y-86830819D02*
X128341523Y-86830819D01*
X128055809Y-87830819D02*
X128055809Y-86830819D01*
X128674857Y-87830819D02*
X128674857Y-86830819D01*
X128674857Y-86830819D02*
X129055809Y-86830819D01*
X129055809Y-86830819D02*
X129151047Y-86878438D01*
X129151047Y-86878438D02*
X129198666Y-86926057D01*
X129198666Y-86926057D02*
X129246285Y-87021295D01*
X129246285Y-87021295D02*
X129246285Y-87164152D01*
X129246285Y-87164152D02*
X129198666Y-87259390D01*
X129198666Y-87259390D02*
X129151047Y-87307009D01*
X129151047Y-87307009D02*
X129055809Y-87354628D01*
X129055809Y-87354628D02*
X128674857Y-87354628D01*
X129579619Y-86830819D02*
X130246285Y-86830819D01*
X130246285Y-86830819D02*
X129817714Y-87830819D01*
X115369905Y-90262819D02*
X115941333Y-90262819D01*
X115655619Y-91262819D02*
X115655619Y-90262819D01*
X116274667Y-91262819D02*
X116274667Y-90262819D01*
X116274667Y-90262819D02*
X116655619Y-90262819D01*
X116655619Y-90262819D02*
X116750857Y-90310438D01*
X116750857Y-90310438D02*
X116798476Y-90358057D01*
X116798476Y-90358057D02*
X116846095Y-90453295D01*
X116846095Y-90453295D02*
X116846095Y-90596152D01*
X116846095Y-90596152D02*
X116798476Y-90691390D01*
X116798476Y-90691390D02*
X116750857Y-90739009D01*
X116750857Y-90739009D02*
X116655619Y-90786628D01*
X116655619Y-90786628D02*
X116274667Y-90786628D01*
X117798476Y-91262819D02*
X117227048Y-91262819D01*
X117512762Y-91262819D02*
X117512762Y-90262819D01*
X117512762Y-90262819D02*
X117417524Y-90405676D01*
X117417524Y-90405676D02*
X117322286Y-90500914D01*
X117322286Y-90500914D02*
X117227048Y-90548533D01*
X118417524Y-90262819D02*
X118512762Y-90262819D01*
X118512762Y-90262819D02*
X118608000Y-90310438D01*
X118608000Y-90310438D02*
X118655619Y-90358057D01*
X118655619Y-90358057D02*
X118703238Y-90453295D01*
X118703238Y-90453295D02*
X118750857Y-90643771D01*
X118750857Y-90643771D02*
X118750857Y-90881866D01*
X118750857Y-90881866D02*
X118703238Y-91072342D01*
X118703238Y-91072342D02*
X118655619Y-91167580D01*
X118655619Y-91167580D02*
X118608000Y-91215200D01*
X118608000Y-91215200D02*
X118512762Y-91262819D01*
X118512762Y-91262819D02*
X118417524Y-91262819D01*
X118417524Y-91262819D02*
X118322286Y-91215200D01*
X118322286Y-91215200D02*
X118274667Y-91167580D01*
X118274667Y-91167580D02*
X118227048Y-91072342D01*
X118227048Y-91072342D02*
X118179429Y-90881866D01*
X118179429Y-90881866D02*
X118179429Y-90643771D01*
X118179429Y-90643771D02*
X118227048Y-90453295D01*
X118227048Y-90453295D02*
X118274667Y-90358057D01*
X118274667Y-90358057D02*
X118322286Y-90310438D01*
X118322286Y-90310438D02*
X118417524Y-90262819D01*
X164346095Y-104232819D02*
X164917523Y-104232819D01*
X164631809Y-105232819D02*
X164631809Y-104232819D01*
X165250857Y-105232819D02*
X165250857Y-104232819D01*
X165250857Y-104232819D02*
X165631809Y-104232819D01*
X165631809Y-104232819D02*
X165727047Y-104280438D01*
X165727047Y-104280438D02*
X165774666Y-104328057D01*
X165774666Y-104328057D02*
X165822285Y-104423295D01*
X165822285Y-104423295D02*
X165822285Y-104566152D01*
X165822285Y-104566152D02*
X165774666Y-104661390D01*
X165774666Y-104661390D02*
X165727047Y-104709009D01*
X165727047Y-104709009D02*
X165631809Y-104756628D01*
X165631809Y-104756628D02*
X165250857Y-104756628D01*
X166155619Y-104232819D02*
X166774666Y-104232819D01*
X166774666Y-104232819D02*
X166441333Y-104613771D01*
X166441333Y-104613771D02*
X166584190Y-104613771D01*
X166584190Y-104613771D02*
X166679428Y-104661390D01*
X166679428Y-104661390D02*
X166727047Y-104709009D01*
X166727047Y-104709009D02*
X166774666Y-104804247D01*
X166774666Y-104804247D02*
X166774666Y-105042342D01*
X166774666Y-105042342D02*
X166727047Y-105137580D01*
X166727047Y-105137580D02*
X166679428Y-105185200D01*
X166679428Y-105185200D02*
X166584190Y-105232819D01*
X166584190Y-105232819D02*
X166298476Y-105232819D01*
X166298476Y-105232819D02*
X166203238Y-105185200D01*
X166203238Y-105185200D02*
X166155619Y-105137580D01*
X132167333Y-84687580D02*
X132119714Y-84735200D01*
X132119714Y-84735200D02*
X131976857Y-84782819D01*
X131976857Y-84782819D02*
X131881619Y-84782819D01*
X131881619Y-84782819D02*
X131738762Y-84735200D01*
X131738762Y-84735200D02*
X131643524Y-84639961D01*
X131643524Y-84639961D02*
X131595905Y-84544723D01*
X131595905Y-84544723D02*
X131548286Y-84354247D01*
X131548286Y-84354247D02*
X131548286Y-84211390D01*
X131548286Y-84211390D02*
X131595905Y-84020914D01*
X131595905Y-84020914D02*
X131643524Y-83925676D01*
X131643524Y-83925676D02*
X131738762Y-83830438D01*
X131738762Y-83830438D02*
X131881619Y-83782819D01*
X131881619Y-83782819D02*
X131976857Y-83782819D01*
X131976857Y-83782819D02*
X132119714Y-83830438D01*
X132119714Y-83830438D02*
X132167333Y-83878057D01*
X132500667Y-83782819D02*
X133167333Y-83782819D01*
X133167333Y-83782819D02*
X132738762Y-84782819D01*
X120689905Y-101438819D02*
X121261333Y-101438819D01*
X120975619Y-102438819D02*
X120975619Y-101438819D01*
X121594667Y-102438819D02*
X121594667Y-101438819D01*
X121594667Y-101438819D02*
X121975619Y-101438819D01*
X121975619Y-101438819D02*
X122070857Y-101486438D01*
X122070857Y-101486438D02*
X122118476Y-101534057D01*
X122118476Y-101534057D02*
X122166095Y-101629295D01*
X122166095Y-101629295D02*
X122166095Y-101772152D01*
X122166095Y-101772152D02*
X122118476Y-101867390D01*
X122118476Y-101867390D02*
X122070857Y-101915009D01*
X122070857Y-101915009D02*
X121975619Y-101962628D01*
X121975619Y-101962628D02*
X121594667Y-101962628D01*
X123118476Y-102438819D02*
X122547048Y-102438819D01*
X122832762Y-102438819D02*
X122832762Y-101438819D01*
X122832762Y-101438819D02*
X122737524Y-101581676D01*
X122737524Y-101581676D02*
X122642286Y-101676914D01*
X122642286Y-101676914D02*
X122547048Y-101724533D01*
X123975619Y-101772152D02*
X123975619Y-102438819D01*
X123737524Y-101391200D02*
X123499429Y-102105485D01*
X123499429Y-102105485D02*
X124118476Y-102105485D01*
X171654319Y-93749333D02*
X172368604Y-93749333D01*
X172368604Y-93749333D02*
X172511461Y-93796952D01*
X172511461Y-93796952D02*
X172606700Y-93892190D01*
X172606700Y-93892190D02*
X172654319Y-94035047D01*
X172654319Y-94035047D02*
X172654319Y-94130285D01*
X172654319Y-93273142D02*
X171654319Y-93273142D01*
X171654319Y-93273142D02*
X171654319Y-92892190D01*
X171654319Y-92892190D02*
X171701938Y-92796952D01*
X171701938Y-92796952D02*
X171749557Y-92749333D01*
X171749557Y-92749333D02*
X171844795Y-92701714D01*
X171844795Y-92701714D02*
X171987652Y-92701714D01*
X171987652Y-92701714D02*
X172082890Y-92749333D01*
X172082890Y-92749333D02*
X172130509Y-92796952D01*
X172130509Y-92796952D02*
X172178128Y-92892190D01*
X172178128Y-92892190D02*
X172178128Y-93273142D01*
X171749557Y-92320761D02*
X171701938Y-92273142D01*
X171701938Y-92273142D02*
X171654319Y-92177904D01*
X171654319Y-92177904D02*
X171654319Y-91939809D01*
X171654319Y-91939809D02*
X171701938Y-91844571D01*
X171701938Y-91844571D02*
X171749557Y-91796952D01*
X171749557Y-91796952D02*
X171844795Y-91749333D01*
X171844795Y-91749333D02*
X171940033Y-91749333D01*
X171940033Y-91749333D02*
X172082890Y-91796952D01*
X172082890Y-91796952D02*
X172654319Y-92368380D01*
X172654319Y-92368380D02*
X172654319Y-91749333D01*
X115355905Y-101184819D02*
X115927333Y-101184819D01*
X115641619Y-102184819D02*
X115641619Y-101184819D01*
X116260667Y-102184819D02*
X116260667Y-101184819D01*
X116260667Y-101184819D02*
X116641619Y-101184819D01*
X116641619Y-101184819D02*
X116736857Y-101232438D01*
X116736857Y-101232438D02*
X116784476Y-101280057D01*
X116784476Y-101280057D02*
X116832095Y-101375295D01*
X116832095Y-101375295D02*
X116832095Y-101518152D01*
X116832095Y-101518152D02*
X116784476Y-101613390D01*
X116784476Y-101613390D02*
X116736857Y-101661009D01*
X116736857Y-101661009D02*
X116641619Y-101708628D01*
X116641619Y-101708628D02*
X116260667Y-101708628D01*
X117784476Y-102184819D02*
X117213048Y-102184819D01*
X117498762Y-102184819D02*
X117498762Y-101184819D01*
X117498762Y-101184819D02*
X117403524Y-101327676D01*
X117403524Y-101327676D02*
X117308286Y-101422914D01*
X117308286Y-101422914D02*
X117213048Y-101470533D01*
X118641619Y-101184819D02*
X118451143Y-101184819D01*
X118451143Y-101184819D02*
X118355905Y-101232438D01*
X118355905Y-101232438D02*
X118308286Y-101280057D01*
X118308286Y-101280057D02*
X118213048Y-101422914D01*
X118213048Y-101422914D02*
X118165429Y-101613390D01*
X118165429Y-101613390D02*
X118165429Y-101994342D01*
X118165429Y-101994342D02*
X118213048Y-102089580D01*
X118213048Y-102089580D02*
X118260667Y-102137200D01*
X118260667Y-102137200D02*
X118355905Y-102184819D01*
X118355905Y-102184819D02*
X118546381Y-102184819D01*
X118546381Y-102184819D02*
X118641619Y-102137200D01*
X118641619Y-102137200D02*
X118689238Y-102089580D01*
X118689238Y-102089580D02*
X118736857Y-101994342D01*
X118736857Y-101994342D02*
X118736857Y-101756247D01*
X118736857Y-101756247D02*
X118689238Y-101661009D01*
X118689238Y-101661009D02*
X118641619Y-101613390D01*
X118641619Y-101613390D02*
X118546381Y-101565771D01*
X118546381Y-101565771D02*
X118355905Y-101565771D01*
X118355905Y-101565771D02*
X118260667Y-101613390D01*
X118260667Y-101613390D02*
X118213048Y-101661009D01*
X118213048Y-101661009D02*
X118165429Y-101756247D01*
X129460666Y-82512819D02*
X129460666Y-83227104D01*
X129460666Y-83227104D02*
X129413047Y-83369961D01*
X129413047Y-83369961D02*
X129317809Y-83465200D01*
X129317809Y-83465200D02*
X129174952Y-83512819D01*
X129174952Y-83512819D02*
X129079714Y-83512819D01*
X130413047Y-82512819D02*
X129936857Y-82512819D01*
X129936857Y-82512819D02*
X129889238Y-82989009D01*
X129889238Y-82989009D02*
X129936857Y-82941390D01*
X129936857Y-82941390D02*
X130032095Y-82893771D01*
X130032095Y-82893771D02*
X130270190Y-82893771D01*
X130270190Y-82893771D02*
X130365428Y-82941390D01*
X130365428Y-82941390D02*
X130413047Y-82989009D01*
X130413047Y-82989009D02*
X130460666Y-83084247D01*
X130460666Y-83084247D02*
X130460666Y-83322342D01*
X130460666Y-83322342D02*
X130413047Y-83417580D01*
X130413047Y-83417580D02*
X130365428Y-83465200D01*
X130365428Y-83465200D02*
X130270190Y-83512819D01*
X130270190Y-83512819D02*
X130032095Y-83512819D01*
X130032095Y-83512819D02*
X129936857Y-83465200D01*
X129936857Y-83465200D02*
X129889238Y-83417580D01*
X135090819Y-82875333D02*
X135805104Y-82875333D01*
X135805104Y-82875333D02*
X135947961Y-82922952D01*
X135947961Y-82922952D02*
X136043200Y-83018190D01*
X136043200Y-83018190D02*
X136090819Y-83161047D01*
X136090819Y-83161047D02*
X136090819Y-83256285D01*
X136090819Y-82399142D02*
X135090819Y-82399142D01*
X135090819Y-82399142D02*
X135090819Y-82018190D01*
X135090819Y-82018190D02*
X135138438Y-81922952D01*
X135138438Y-81922952D02*
X135186057Y-81875333D01*
X135186057Y-81875333D02*
X135281295Y-81827714D01*
X135281295Y-81827714D02*
X135424152Y-81827714D01*
X135424152Y-81827714D02*
X135519390Y-81875333D01*
X135519390Y-81875333D02*
X135567009Y-81922952D01*
X135567009Y-81922952D02*
X135614628Y-82018190D01*
X135614628Y-82018190D02*
X135614628Y-82399142D01*
X136090819Y-80875333D02*
X136090819Y-81446761D01*
X136090819Y-81161047D02*
X135090819Y-81161047D01*
X135090819Y-81161047D02*
X135233676Y-81256285D01*
X135233676Y-81256285D02*
X135328914Y-81351523D01*
X135328914Y-81351523D02*
X135376533Y-81446761D01*
X169172095Y-72860819D02*
X169743523Y-72860819D01*
X169457809Y-73860819D02*
X169457809Y-72860819D01*
X170076857Y-73860819D02*
X170076857Y-72860819D01*
X170076857Y-72860819D02*
X170457809Y-72860819D01*
X170457809Y-72860819D02*
X170553047Y-72908438D01*
X170553047Y-72908438D02*
X170600666Y-72956057D01*
X170600666Y-72956057D02*
X170648285Y-73051295D01*
X170648285Y-73051295D02*
X170648285Y-73194152D01*
X170648285Y-73194152D02*
X170600666Y-73289390D01*
X170600666Y-73289390D02*
X170553047Y-73337009D01*
X170553047Y-73337009D02*
X170457809Y-73384628D01*
X170457809Y-73384628D02*
X170076857Y-73384628D01*
X171553047Y-72860819D02*
X171076857Y-72860819D01*
X171076857Y-72860819D02*
X171029238Y-73337009D01*
X171029238Y-73337009D02*
X171076857Y-73289390D01*
X171076857Y-73289390D02*
X171172095Y-73241771D01*
X171172095Y-73241771D02*
X171410190Y-73241771D01*
X171410190Y-73241771D02*
X171505428Y-73289390D01*
X171505428Y-73289390D02*
X171553047Y-73337009D01*
X171553047Y-73337009D02*
X171600666Y-73432247D01*
X171600666Y-73432247D02*
X171600666Y-73670342D01*
X171600666Y-73670342D02*
X171553047Y-73765580D01*
X171553047Y-73765580D02*
X171505428Y-73813200D01*
X171505428Y-73813200D02*
X171410190Y-73860819D01*
X171410190Y-73860819D02*
X171172095Y-73860819D01*
X171172095Y-73860819D02*
X171076857Y-73813200D01*
X171076857Y-73813200D02*
X171029238Y-73765580D01*
X197684819Y-74842666D02*
X197208628Y-75175999D01*
X197684819Y-75414094D02*
X196684819Y-75414094D01*
X196684819Y-75414094D02*
X196684819Y-75033142D01*
X196684819Y-75033142D02*
X196732438Y-74937904D01*
X196732438Y-74937904D02*
X196780057Y-74890285D01*
X196780057Y-74890285D02*
X196875295Y-74842666D01*
X196875295Y-74842666D02*
X197018152Y-74842666D01*
X197018152Y-74842666D02*
X197113390Y-74890285D01*
X197113390Y-74890285D02*
X197161009Y-74937904D01*
X197161009Y-74937904D02*
X197208628Y-75033142D01*
X197208628Y-75033142D02*
X197208628Y-75414094D01*
X197018152Y-73985523D02*
X197684819Y-73985523D01*
X196637200Y-74223618D02*
X197351485Y-74461713D01*
X197351485Y-74461713D02*
X197351485Y-73842666D01*
X180234819Y-107637333D02*
X180949104Y-107637333D01*
X180949104Y-107637333D02*
X181091961Y-107684952D01*
X181091961Y-107684952D02*
X181187200Y-107780190D01*
X181187200Y-107780190D02*
X181234819Y-107923047D01*
X181234819Y-107923047D02*
X181234819Y-108018285D01*
X180234819Y-107256380D02*
X180234819Y-106637333D01*
X180234819Y-106637333D02*
X180615771Y-106970666D01*
X180615771Y-106970666D02*
X180615771Y-106827809D01*
X180615771Y-106827809D02*
X180663390Y-106732571D01*
X180663390Y-106732571D02*
X180711009Y-106684952D01*
X180711009Y-106684952D02*
X180806247Y-106637333D01*
X180806247Y-106637333D02*
X181044342Y-106637333D01*
X181044342Y-106637333D02*
X181139580Y-106684952D01*
X181139580Y-106684952D02*
X181187200Y-106732571D01*
X181187200Y-106732571D02*
X181234819Y-106827809D01*
X181234819Y-106827809D02*
X181234819Y-107113523D01*
X181234819Y-107113523D02*
X181187200Y-107208761D01*
X181187200Y-107208761D02*
X181139580Y-107256380D01*
X190195580Y-84494666D02*
X190243200Y-84542285D01*
X190243200Y-84542285D02*
X190290819Y-84685142D01*
X190290819Y-84685142D02*
X190290819Y-84780380D01*
X190290819Y-84780380D02*
X190243200Y-84923237D01*
X190243200Y-84923237D02*
X190147961Y-85018475D01*
X190147961Y-85018475D02*
X190052723Y-85066094D01*
X190052723Y-85066094D02*
X189862247Y-85113713D01*
X189862247Y-85113713D02*
X189719390Y-85113713D01*
X189719390Y-85113713D02*
X189528914Y-85066094D01*
X189528914Y-85066094D02*
X189433676Y-85018475D01*
X189433676Y-85018475D02*
X189338438Y-84923237D01*
X189338438Y-84923237D02*
X189290819Y-84780380D01*
X189290819Y-84780380D02*
X189290819Y-84685142D01*
X189290819Y-84685142D02*
X189338438Y-84542285D01*
X189338438Y-84542285D02*
X189386057Y-84494666D01*
X189386057Y-84113713D02*
X189338438Y-84066094D01*
X189338438Y-84066094D02*
X189290819Y-83970856D01*
X189290819Y-83970856D02*
X189290819Y-83732761D01*
X189290819Y-83732761D02*
X189338438Y-83637523D01*
X189338438Y-83637523D02*
X189386057Y-83589904D01*
X189386057Y-83589904D02*
X189481295Y-83542285D01*
X189481295Y-83542285D02*
X189576533Y-83542285D01*
X189576533Y-83542285D02*
X189719390Y-83589904D01*
X189719390Y-83589904D02*
X190290819Y-84161332D01*
X190290819Y-84161332D02*
X190290819Y-83542285D01*
X138692095Y-95212819D02*
X139263523Y-95212819D01*
X138977809Y-96212819D02*
X138977809Y-95212819D01*
X139596857Y-96212819D02*
X139596857Y-95212819D01*
X139596857Y-95212819D02*
X139977809Y-95212819D01*
X139977809Y-95212819D02*
X140073047Y-95260438D01*
X140073047Y-95260438D02*
X140120666Y-95308057D01*
X140120666Y-95308057D02*
X140168285Y-95403295D01*
X140168285Y-95403295D02*
X140168285Y-95546152D01*
X140168285Y-95546152D02*
X140120666Y-95641390D01*
X140120666Y-95641390D02*
X140073047Y-95689009D01*
X140073047Y-95689009D02*
X139977809Y-95736628D01*
X139977809Y-95736628D02*
X139596857Y-95736628D01*
X140644476Y-96212819D02*
X140834952Y-96212819D01*
X140834952Y-96212819D02*
X140930190Y-96165200D01*
X140930190Y-96165200D02*
X140977809Y-96117580D01*
X140977809Y-96117580D02*
X141073047Y-95974723D01*
X141073047Y-95974723D02*
X141120666Y-95784247D01*
X141120666Y-95784247D02*
X141120666Y-95403295D01*
X141120666Y-95403295D02*
X141073047Y-95308057D01*
X141073047Y-95308057D02*
X141025428Y-95260438D01*
X141025428Y-95260438D02*
X140930190Y-95212819D01*
X140930190Y-95212819D02*
X140739714Y-95212819D01*
X140739714Y-95212819D02*
X140644476Y-95260438D01*
X140644476Y-95260438D02*
X140596857Y-95308057D01*
X140596857Y-95308057D02*
X140549238Y-95403295D01*
X140549238Y-95403295D02*
X140549238Y-95641390D01*
X140549238Y-95641390D02*
X140596857Y-95736628D01*
X140596857Y-95736628D02*
X140644476Y-95784247D01*
X140644476Y-95784247D02*
X140739714Y-95831866D01*
X140739714Y-95831866D02*
X140930190Y-95831866D01*
X140930190Y-95831866D02*
X141025428Y-95784247D01*
X141025428Y-95784247D02*
X141073047Y-95736628D01*
X141073047Y-95736628D02*
X141120666Y-95641390D01*
X137779333Y-73499580D02*
X137731714Y-73547200D01*
X137731714Y-73547200D02*
X137588857Y-73594819D01*
X137588857Y-73594819D02*
X137493619Y-73594819D01*
X137493619Y-73594819D02*
X137350762Y-73547200D01*
X137350762Y-73547200D02*
X137255524Y-73451961D01*
X137255524Y-73451961D02*
X137207905Y-73356723D01*
X137207905Y-73356723D02*
X137160286Y-73166247D01*
X137160286Y-73166247D02*
X137160286Y-73023390D01*
X137160286Y-73023390D02*
X137207905Y-72832914D01*
X137207905Y-72832914D02*
X137255524Y-72737676D01*
X137255524Y-72737676D02*
X137350762Y-72642438D01*
X137350762Y-72642438D02*
X137493619Y-72594819D01*
X137493619Y-72594819D02*
X137588857Y-72594819D01*
X137588857Y-72594819D02*
X137731714Y-72642438D01*
X137731714Y-72642438D02*
X137779333Y-72690057D01*
X138636476Y-72928152D02*
X138636476Y-73594819D01*
X138398381Y-72547200D02*
X138160286Y-73261485D01*
X138160286Y-73261485D02*
X138779333Y-73261485D01*
X203454095Y-67358819D02*
X203454095Y-66358819D01*
X203454095Y-66835009D02*
X204025523Y-66835009D01*
X204025523Y-67358819D02*
X204025523Y-66358819D01*
X204454095Y-66454057D02*
X204501714Y-66406438D01*
X204501714Y-66406438D02*
X204596952Y-66358819D01*
X204596952Y-66358819D02*
X204835047Y-66358819D01*
X204835047Y-66358819D02*
X204930285Y-66406438D01*
X204930285Y-66406438D02*
X204977904Y-66454057D01*
X204977904Y-66454057D02*
X205025523Y-66549295D01*
X205025523Y-66549295D02*
X205025523Y-66644533D01*
X205025523Y-66644533D02*
X204977904Y-66787390D01*
X204977904Y-66787390D02*
X204406476Y-67358819D01*
X204406476Y-67358819D02*
X205025523Y-67358819D01*
X183681905Y-103724819D02*
X184253333Y-103724819D01*
X183967619Y-104724819D02*
X183967619Y-103724819D01*
X184586667Y-104724819D02*
X184586667Y-103724819D01*
X184586667Y-103724819D02*
X184967619Y-103724819D01*
X184967619Y-103724819D02*
X185062857Y-103772438D01*
X185062857Y-103772438D02*
X185110476Y-103820057D01*
X185110476Y-103820057D02*
X185158095Y-103915295D01*
X185158095Y-103915295D02*
X185158095Y-104058152D01*
X185158095Y-104058152D02*
X185110476Y-104153390D01*
X185110476Y-104153390D02*
X185062857Y-104201009D01*
X185062857Y-104201009D02*
X184967619Y-104248628D01*
X184967619Y-104248628D02*
X184586667Y-104248628D01*
X186110476Y-104724819D02*
X185539048Y-104724819D01*
X185824762Y-104724819D02*
X185824762Y-103724819D01*
X185824762Y-103724819D02*
X185729524Y-103867676D01*
X185729524Y-103867676D02*
X185634286Y-103962914D01*
X185634286Y-103962914D02*
X185539048Y-104010533D01*
X186443810Y-103724819D02*
X187110476Y-103724819D01*
X187110476Y-103724819D02*
X186681905Y-104724819D01*
X199546057Y-79089238D02*
X199498438Y-79184476D01*
X199498438Y-79184476D02*
X199403200Y-79279714D01*
X199403200Y-79279714D02*
X199260342Y-79422571D01*
X199260342Y-79422571D02*
X199212723Y-79517809D01*
X199212723Y-79517809D02*
X199212723Y-79613047D01*
X199450819Y-79565428D02*
X199403200Y-79660666D01*
X199403200Y-79660666D02*
X199307961Y-79755904D01*
X199307961Y-79755904D02*
X199117485Y-79803523D01*
X199117485Y-79803523D02*
X198784152Y-79803523D01*
X198784152Y-79803523D02*
X198593676Y-79755904D01*
X198593676Y-79755904D02*
X198498438Y-79660666D01*
X198498438Y-79660666D02*
X198450819Y-79565428D01*
X198450819Y-79565428D02*
X198450819Y-79374952D01*
X198450819Y-79374952D02*
X198498438Y-79279714D01*
X198498438Y-79279714D02*
X198593676Y-79184476D01*
X198593676Y-79184476D02*
X198784152Y-79136857D01*
X198784152Y-79136857D02*
X199117485Y-79136857D01*
X199117485Y-79136857D02*
X199307961Y-79184476D01*
X199307961Y-79184476D02*
X199403200Y-79279714D01*
X199403200Y-79279714D02*
X199450819Y-79374952D01*
X199450819Y-79374952D02*
X199450819Y-79565428D01*
X199450819Y-78184476D02*
X199450819Y-78755904D01*
X199450819Y-78470190D02*
X198450819Y-78470190D01*
X198450819Y-78470190D02*
X198593676Y-78565428D01*
X198593676Y-78565428D02*
X198688914Y-78660666D01*
X198688914Y-78660666D02*
X198736533Y-78755904D01*
X150368095Y-64910819D02*
X150368095Y-65720342D01*
X150368095Y-65720342D02*
X150415714Y-65815580D01*
X150415714Y-65815580D02*
X150463333Y-65863200D01*
X150463333Y-65863200D02*
X150558571Y-65910819D01*
X150558571Y-65910819D02*
X150749047Y-65910819D01*
X150749047Y-65910819D02*
X150844285Y-65863200D01*
X150844285Y-65863200D02*
X150891904Y-65815580D01*
X150891904Y-65815580D02*
X150939523Y-65720342D01*
X150939523Y-65720342D02*
X150939523Y-64910819D01*
X151939523Y-65910819D02*
X151368095Y-65910819D01*
X151653809Y-65910819D02*
X151653809Y-64910819D01*
X151653809Y-64910819D02*
X151558571Y-65053676D01*
X151558571Y-65053676D02*
X151463333Y-65148914D01*
X151463333Y-65148914D02*
X151368095Y-65196533D01*
X146368094Y-69925104D02*
X146844284Y-69925104D01*
X146272856Y-70210819D02*
X146606189Y-69210819D01*
X146606189Y-69210819D02*
X146939522Y-70210819D01*
X147272856Y-69544152D02*
X147272856Y-70210819D01*
X147272856Y-69639390D02*
X147320475Y-69591771D01*
X147320475Y-69591771D02*
X147415713Y-69544152D01*
X147415713Y-69544152D02*
X147558570Y-69544152D01*
X147558570Y-69544152D02*
X147653808Y-69591771D01*
X147653808Y-69591771D02*
X147701427Y-69687009D01*
X147701427Y-69687009D02*
X147701427Y-70210819D01*
X148034761Y-69544152D02*
X148415713Y-69544152D01*
X148177618Y-69210819D02*
X148177618Y-70067961D01*
X148177618Y-70067961D02*
X148225237Y-70163200D01*
X148225237Y-70163200D02*
X148320475Y-70210819D01*
X148320475Y-70210819D02*
X148415713Y-70210819D01*
X149129999Y-70163200D02*
X149034761Y-70210819D01*
X149034761Y-70210819D02*
X148844285Y-70210819D01*
X148844285Y-70210819D02*
X148749047Y-70163200D01*
X148749047Y-70163200D02*
X148701428Y-70067961D01*
X148701428Y-70067961D02*
X148701428Y-69687009D01*
X148701428Y-69687009D02*
X148749047Y-69591771D01*
X148749047Y-69591771D02*
X148844285Y-69544152D01*
X148844285Y-69544152D02*
X149034761Y-69544152D01*
X149034761Y-69544152D02*
X149129999Y-69591771D01*
X149129999Y-69591771D02*
X149177618Y-69687009D01*
X149177618Y-69687009D02*
X149177618Y-69782247D01*
X149177618Y-69782247D02*
X148701428Y-69877485D01*
X149606190Y-69544152D02*
X149606190Y-70210819D01*
X149606190Y-69639390D02*
X149653809Y-69591771D01*
X149653809Y-69591771D02*
X149749047Y-69544152D01*
X149749047Y-69544152D02*
X149891904Y-69544152D01*
X149891904Y-69544152D02*
X149987142Y-69591771D01*
X149987142Y-69591771D02*
X150034761Y-69687009D01*
X150034761Y-69687009D02*
X150034761Y-70210819D01*
X150510952Y-69544152D02*
X150510952Y-70210819D01*
X150510952Y-69639390D02*
X150558571Y-69591771D01*
X150558571Y-69591771D02*
X150653809Y-69544152D01*
X150653809Y-69544152D02*
X150796666Y-69544152D01*
X150796666Y-69544152D02*
X150891904Y-69591771D01*
X150891904Y-69591771D02*
X150939523Y-69687009D01*
X150939523Y-69687009D02*
X150939523Y-70210819D01*
X151844285Y-70210819D02*
X151844285Y-69687009D01*
X151844285Y-69687009D02*
X151796666Y-69591771D01*
X151796666Y-69591771D02*
X151701428Y-69544152D01*
X151701428Y-69544152D02*
X151510952Y-69544152D01*
X151510952Y-69544152D02*
X151415714Y-69591771D01*
X151844285Y-70163200D02*
X151749047Y-70210819D01*
X151749047Y-70210819D02*
X151510952Y-70210819D01*
X151510952Y-70210819D02*
X151415714Y-70163200D01*
X151415714Y-70163200D02*
X151368095Y-70067961D01*
X151368095Y-70067961D02*
X151368095Y-69972723D01*
X151368095Y-69972723D02*
X151415714Y-69877485D01*
X151415714Y-69877485D02*
X151510952Y-69829866D01*
X151510952Y-69829866D02*
X151749047Y-69829866D01*
X151749047Y-69829866D02*
X151844285Y-69782247D01*
X153034762Y-69925104D02*
X153510952Y-69925104D01*
X152939524Y-70210819D02*
X153272857Y-69210819D01*
X153272857Y-69210819D02*
X153606190Y-70210819D01*
X153939524Y-70210819D02*
X153939524Y-69544152D01*
X153939524Y-69734628D02*
X153987143Y-69639390D01*
X153987143Y-69639390D02*
X154034762Y-69591771D01*
X154034762Y-69591771D02*
X154130000Y-69544152D01*
X154130000Y-69544152D02*
X154225238Y-69544152D01*
X154939524Y-70163200D02*
X154844286Y-70210819D01*
X154844286Y-70210819D02*
X154653810Y-70210819D01*
X154653810Y-70210819D02*
X154558572Y-70163200D01*
X154558572Y-70163200D02*
X154510953Y-70067961D01*
X154510953Y-70067961D02*
X154510953Y-69687009D01*
X154510953Y-69687009D02*
X154558572Y-69591771D01*
X154558572Y-69591771D02*
X154653810Y-69544152D01*
X154653810Y-69544152D02*
X154844286Y-69544152D01*
X154844286Y-69544152D02*
X154939524Y-69591771D01*
X154939524Y-69591771D02*
X154987143Y-69687009D01*
X154987143Y-69687009D02*
X154987143Y-69782247D01*
X154987143Y-69782247D02*
X154510953Y-69877485D01*
X155844286Y-70210819D02*
X155844286Y-69687009D01*
X155844286Y-69687009D02*
X155796667Y-69591771D01*
X155796667Y-69591771D02*
X155701429Y-69544152D01*
X155701429Y-69544152D02*
X155510953Y-69544152D01*
X155510953Y-69544152D02*
X155415715Y-69591771D01*
X155844286Y-70163200D02*
X155749048Y-70210819D01*
X155749048Y-70210819D02*
X155510953Y-70210819D01*
X155510953Y-70210819D02*
X155415715Y-70163200D01*
X155415715Y-70163200D02*
X155368096Y-70067961D01*
X155368096Y-70067961D02*
X155368096Y-69972723D01*
X155368096Y-69972723D02*
X155415715Y-69877485D01*
X155415715Y-69877485D02*
X155510953Y-69829866D01*
X155510953Y-69829866D02*
X155749048Y-69829866D01*
X155749048Y-69829866D02*
X155844286Y-69782247D01*
X163264819Y-69977333D02*
X163979104Y-69977333D01*
X163979104Y-69977333D02*
X164121961Y-70024952D01*
X164121961Y-70024952D02*
X164217200Y-70120190D01*
X164217200Y-70120190D02*
X164264819Y-70263047D01*
X164264819Y-70263047D02*
X164264819Y-70358285D01*
X163693390Y-69358285D02*
X163645771Y-69453523D01*
X163645771Y-69453523D02*
X163598152Y-69501142D01*
X163598152Y-69501142D02*
X163502914Y-69548761D01*
X163502914Y-69548761D02*
X163455295Y-69548761D01*
X163455295Y-69548761D02*
X163360057Y-69501142D01*
X163360057Y-69501142D02*
X163312438Y-69453523D01*
X163312438Y-69453523D02*
X163264819Y-69358285D01*
X163264819Y-69358285D02*
X163264819Y-69167809D01*
X163264819Y-69167809D02*
X163312438Y-69072571D01*
X163312438Y-69072571D02*
X163360057Y-69024952D01*
X163360057Y-69024952D02*
X163455295Y-68977333D01*
X163455295Y-68977333D02*
X163502914Y-68977333D01*
X163502914Y-68977333D02*
X163598152Y-69024952D01*
X163598152Y-69024952D02*
X163645771Y-69072571D01*
X163645771Y-69072571D02*
X163693390Y-69167809D01*
X163693390Y-69167809D02*
X163693390Y-69358285D01*
X163693390Y-69358285D02*
X163741009Y-69453523D01*
X163741009Y-69453523D02*
X163788628Y-69501142D01*
X163788628Y-69501142D02*
X163883866Y-69548761D01*
X163883866Y-69548761D02*
X164074342Y-69548761D01*
X164074342Y-69548761D02*
X164169580Y-69501142D01*
X164169580Y-69501142D02*
X164217200Y-69453523D01*
X164217200Y-69453523D02*
X164264819Y-69358285D01*
X164264819Y-69358285D02*
X164264819Y-69167809D01*
X164264819Y-69167809D02*
X164217200Y-69072571D01*
X164217200Y-69072571D02*
X164169580Y-69024952D01*
X164169580Y-69024952D02*
X164074342Y-68977333D01*
X164074342Y-68977333D02*
X163883866Y-68977333D01*
X163883866Y-68977333D02*
X163788628Y-69024952D01*
X163788628Y-69024952D02*
X163741009Y-69072571D01*
X163741009Y-69072571D02*
X163693390Y-69167809D01*
X189048819Y-75096666D02*
X188572628Y-75429999D01*
X189048819Y-75668094D02*
X188048819Y-75668094D01*
X188048819Y-75668094D02*
X188048819Y-75287142D01*
X188048819Y-75287142D02*
X188096438Y-75191904D01*
X188096438Y-75191904D02*
X188144057Y-75144285D01*
X188144057Y-75144285D02*
X188239295Y-75096666D01*
X188239295Y-75096666D02*
X188382152Y-75096666D01*
X188382152Y-75096666D02*
X188477390Y-75144285D01*
X188477390Y-75144285D02*
X188525009Y-75191904D01*
X188525009Y-75191904D02*
X188572628Y-75287142D01*
X188572628Y-75287142D02*
X188572628Y-75668094D01*
X188048819Y-74763332D02*
X188048819Y-74144285D01*
X188048819Y-74144285D02*
X188429771Y-74477618D01*
X188429771Y-74477618D02*
X188429771Y-74334761D01*
X188429771Y-74334761D02*
X188477390Y-74239523D01*
X188477390Y-74239523D02*
X188525009Y-74191904D01*
X188525009Y-74191904D02*
X188620247Y-74144285D01*
X188620247Y-74144285D02*
X188858342Y-74144285D01*
X188858342Y-74144285D02*
X188953580Y-74191904D01*
X188953580Y-74191904D02*
X189001200Y-74239523D01*
X189001200Y-74239523D02*
X189048819Y-74334761D01*
X189048819Y-74334761D02*
X189048819Y-74620475D01*
X189048819Y-74620475D02*
X189001200Y-74715713D01*
X189001200Y-74715713D02*
X188953580Y-74763332D01*
X198828819Y-84240666D02*
X198352628Y-84573999D01*
X198828819Y-84812094D02*
X197828819Y-84812094D01*
X197828819Y-84812094D02*
X197828819Y-84431142D01*
X197828819Y-84431142D02*
X197876438Y-84335904D01*
X197876438Y-84335904D02*
X197924057Y-84288285D01*
X197924057Y-84288285D02*
X198019295Y-84240666D01*
X198019295Y-84240666D02*
X198162152Y-84240666D01*
X198162152Y-84240666D02*
X198257390Y-84288285D01*
X198257390Y-84288285D02*
X198305009Y-84335904D01*
X198305009Y-84335904D02*
X198352628Y-84431142D01*
X198352628Y-84431142D02*
X198352628Y-84812094D01*
X198828819Y-83288285D02*
X198828819Y-83859713D01*
X198828819Y-83573999D02*
X197828819Y-83573999D01*
X197828819Y-83573999D02*
X197971676Y-83669237D01*
X197971676Y-83669237D02*
X198066914Y-83764475D01*
X198066914Y-83764475D02*
X198114533Y-83859713D01*
X203339200Y-94043332D02*
X203386819Y-93900475D01*
X203386819Y-93900475D02*
X203386819Y-93662380D01*
X203386819Y-93662380D02*
X203339200Y-93567142D01*
X203339200Y-93567142D02*
X203291580Y-93519523D01*
X203291580Y-93519523D02*
X203196342Y-93471904D01*
X203196342Y-93471904D02*
X203101104Y-93471904D01*
X203101104Y-93471904D02*
X203005866Y-93519523D01*
X203005866Y-93519523D02*
X202958247Y-93567142D01*
X202958247Y-93567142D02*
X202910628Y-93662380D01*
X202910628Y-93662380D02*
X202863009Y-93852856D01*
X202863009Y-93852856D02*
X202815390Y-93948094D01*
X202815390Y-93948094D02*
X202767771Y-93995713D01*
X202767771Y-93995713D02*
X202672533Y-94043332D01*
X202672533Y-94043332D02*
X202577295Y-94043332D01*
X202577295Y-94043332D02*
X202482057Y-93995713D01*
X202482057Y-93995713D02*
X202434438Y-93948094D01*
X202434438Y-93948094D02*
X202386819Y-93852856D01*
X202386819Y-93852856D02*
X202386819Y-93614761D01*
X202386819Y-93614761D02*
X202434438Y-93471904D01*
X202386819Y-93138570D02*
X203386819Y-92900475D01*
X203386819Y-92900475D02*
X202672533Y-92709999D01*
X202672533Y-92709999D02*
X203386819Y-92519523D01*
X203386819Y-92519523D02*
X202386819Y-92281428D01*
X203386819Y-91376666D02*
X203386819Y-91948094D01*
X203386819Y-91662380D02*
X202386819Y-91662380D01*
X202386819Y-91662380D02*
X202529676Y-91757618D01*
X202529676Y-91757618D02*
X202624914Y-91852856D01*
X202624914Y-91852856D02*
X202672533Y-91948094D01*
X163068319Y-85549904D02*
X163877842Y-85549904D01*
X163877842Y-85549904D02*
X163973080Y-85502285D01*
X163973080Y-85502285D02*
X164020700Y-85454666D01*
X164020700Y-85454666D02*
X164068319Y-85359428D01*
X164068319Y-85359428D02*
X164068319Y-85168952D01*
X164068319Y-85168952D02*
X164020700Y-85073714D01*
X164020700Y-85073714D02*
X163973080Y-85026095D01*
X163973080Y-85026095D02*
X163877842Y-84978476D01*
X163877842Y-84978476D02*
X163068319Y-84978476D01*
X163163557Y-84549904D02*
X163115938Y-84502285D01*
X163115938Y-84502285D02*
X163068319Y-84407047D01*
X163068319Y-84407047D02*
X163068319Y-84168952D01*
X163068319Y-84168952D02*
X163115938Y-84073714D01*
X163115938Y-84073714D02*
X163163557Y-84026095D01*
X163163557Y-84026095D02*
X163258795Y-83978476D01*
X163258795Y-83978476D02*
X163354033Y-83978476D01*
X163354033Y-83978476D02*
X163496890Y-84026095D01*
X163496890Y-84026095D02*
X164068319Y-84597523D01*
X164068319Y-84597523D02*
X164068319Y-83978476D01*
X195400819Y-84240666D02*
X194924628Y-84573999D01*
X195400819Y-84812094D02*
X194400819Y-84812094D01*
X194400819Y-84812094D02*
X194400819Y-84431142D01*
X194400819Y-84431142D02*
X194448438Y-84335904D01*
X194448438Y-84335904D02*
X194496057Y-84288285D01*
X194496057Y-84288285D02*
X194591295Y-84240666D01*
X194591295Y-84240666D02*
X194734152Y-84240666D01*
X194734152Y-84240666D02*
X194829390Y-84288285D01*
X194829390Y-84288285D02*
X194877009Y-84335904D01*
X194877009Y-84335904D02*
X194924628Y-84431142D01*
X194924628Y-84431142D02*
X194924628Y-84812094D01*
X194400819Y-83907332D02*
X194400819Y-83240666D01*
X194400819Y-83240666D02*
X195400819Y-83669237D01*
X194703200Y-93789332D02*
X194750819Y-93646475D01*
X194750819Y-93646475D02*
X194750819Y-93408380D01*
X194750819Y-93408380D02*
X194703200Y-93313142D01*
X194703200Y-93313142D02*
X194655580Y-93265523D01*
X194655580Y-93265523D02*
X194560342Y-93217904D01*
X194560342Y-93217904D02*
X194465104Y-93217904D01*
X194465104Y-93217904D02*
X194369866Y-93265523D01*
X194369866Y-93265523D02*
X194322247Y-93313142D01*
X194322247Y-93313142D02*
X194274628Y-93408380D01*
X194274628Y-93408380D02*
X194227009Y-93598856D01*
X194227009Y-93598856D02*
X194179390Y-93694094D01*
X194179390Y-93694094D02*
X194131771Y-93741713D01*
X194131771Y-93741713D02*
X194036533Y-93789332D01*
X194036533Y-93789332D02*
X193941295Y-93789332D01*
X193941295Y-93789332D02*
X193846057Y-93741713D01*
X193846057Y-93741713D02*
X193798438Y-93694094D01*
X193798438Y-93694094D02*
X193750819Y-93598856D01*
X193750819Y-93598856D02*
X193750819Y-93360761D01*
X193750819Y-93360761D02*
X193798438Y-93217904D01*
X193750819Y-92884570D02*
X194750819Y-92646475D01*
X194750819Y-92646475D02*
X194036533Y-92455999D01*
X194036533Y-92455999D02*
X194750819Y-92265523D01*
X194750819Y-92265523D02*
X193750819Y-92027428D01*
X193846057Y-91694094D02*
X193798438Y-91646475D01*
X193798438Y-91646475D02*
X193750819Y-91551237D01*
X193750819Y-91551237D02*
X193750819Y-91313142D01*
X193750819Y-91313142D02*
X193798438Y-91217904D01*
X193798438Y-91217904D02*
X193846057Y-91170285D01*
X193846057Y-91170285D02*
X193941295Y-91122666D01*
X193941295Y-91122666D02*
X194036533Y-91122666D01*
X194036533Y-91122666D02*
X194179390Y-91170285D01*
X194179390Y-91170285D02*
X194750819Y-91741713D01*
X194750819Y-91741713D02*
X194750819Y-91122666D01*
X149566667Y-104123200D02*
X149709524Y-104170819D01*
X149709524Y-104170819D02*
X149947619Y-104170819D01*
X149947619Y-104170819D02*
X150042857Y-104123200D01*
X150042857Y-104123200D02*
X150090476Y-104075580D01*
X150090476Y-104075580D02*
X150138095Y-103980342D01*
X150138095Y-103980342D02*
X150138095Y-103885104D01*
X150138095Y-103885104D02*
X150090476Y-103789866D01*
X150090476Y-103789866D02*
X150042857Y-103742247D01*
X150042857Y-103742247D02*
X149947619Y-103694628D01*
X149947619Y-103694628D02*
X149757143Y-103647009D01*
X149757143Y-103647009D02*
X149661905Y-103599390D01*
X149661905Y-103599390D02*
X149614286Y-103551771D01*
X149614286Y-103551771D02*
X149566667Y-103456533D01*
X149566667Y-103456533D02*
X149566667Y-103361295D01*
X149566667Y-103361295D02*
X149614286Y-103266057D01*
X149614286Y-103266057D02*
X149661905Y-103218438D01*
X149661905Y-103218438D02*
X149757143Y-103170819D01*
X149757143Y-103170819D02*
X149995238Y-103170819D01*
X149995238Y-103170819D02*
X150138095Y-103218438D01*
X150471429Y-103170819D02*
X150709524Y-104170819D01*
X150709524Y-104170819D02*
X150900000Y-103456533D01*
X150900000Y-103456533D02*
X151090476Y-104170819D01*
X151090476Y-104170819D02*
X151328572Y-103170819D01*
X152185714Y-103170819D02*
X151709524Y-103170819D01*
X151709524Y-103170819D02*
X151661905Y-103647009D01*
X151661905Y-103647009D02*
X151709524Y-103599390D01*
X151709524Y-103599390D02*
X151804762Y-103551771D01*
X151804762Y-103551771D02*
X152042857Y-103551771D01*
X152042857Y-103551771D02*
X152138095Y-103599390D01*
X152138095Y-103599390D02*
X152185714Y-103647009D01*
X152185714Y-103647009D02*
X152233333Y-103742247D01*
X152233333Y-103742247D02*
X152233333Y-103980342D01*
X152233333Y-103980342D02*
X152185714Y-104075580D01*
X152185714Y-104075580D02*
X152138095Y-104123200D01*
X152138095Y-104123200D02*
X152042857Y-104170819D01*
X152042857Y-104170819D02*
X151804762Y-104170819D01*
X151804762Y-104170819D02*
X151709524Y-104123200D01*
X151709524Y-104123200D02*
X151661905Y-104075580D01*
X135135580Y-97702666D02*
X135183200Y-97750285D01*
X135183200Y-97750285D02*
X135230819Y-97893142D01*
X135230819Y-97893142D02*
X135230819Y-97988380D01*
X135230819Y-97988380D02*
X135183200Y-98131237D01*
X135183200Y-98131237D02*
X135087961Y-98226475D01*
X135087961Y-98226475D02*
X134992723Y-98274094D01*
X134992723Y-98274094D02*
X134802247Y-98321713D01*
X134802247Y-98321713D02*
X134659390Y-98321713D01*
X134659390Y-98321713D02*
X134468914Y-98274094D01*
X134468914Y-98274094D02*
X134373676Y-98226475D01*
X134373676Y-98226475D02*
X134278438Y-98131237D01*
X134278438Y-98131237D02*
X134230819Y-97988380D01*
X134230819Y-97988380D02*
X134230819Y-97893142D01*
X134230819Y-97893142D02*
X134278438Y-97750285D01*
X134278438Y-97750285D02*
X134326057Y-97702666D01*
X134659390Y-97131237D02*
X134611771Y-97226475D01*
X134611771Y-97226475D02*
X134564152Y-97274094D01*
X134564152Y-97274094D02*
X134468914Y-97321713D01*
X134468914Y-97321713D02*
X134421295Y-97321713D01*
X134421295Y-97321713D02*
X134326057Y-97274094D01*
X134326057Y-97274094D02*
X134278438Y-97226475D01*
X134278438Y-97226475D02*
X134230819Y-97131237D01*
X134230819Y-97131237D02*
X134230819Y-96940761D01*
X134230819Y-96940761D02*
X134278438Y-96845523D01*
X134278438Y-96845523D02*
X134326057Y-96797904D01*
X134326057Y-96797904D02*
X134421295Y-96750285D01*
X134421295Y-96750285D02*
X134468914Y-96750285D01*
X134468914Y-96750285D02*
X134564152Y-96797904D01*
X134564152Y-96797904D02*
X134611771Y-96845523D01*
X134611771Y-96845523D02*
X134659390Y-96940761D01*
X134659390Y-96940761D02*
X134659390Y-97131237D01*
X134659390Y-97131237D02*
X134707009Y-97226475D01*
X134707009Y-97226475D02*
X134754628Y-97274094D01*
X134754628Y-97274094D02*
X134849866Y-97321713D01*
X134849866Y-97321713D02*
X135040342Y-97321713D01*
X135040342Y-97321713D02*
X135135580Y-97274094D01*
X135135580Y-97274094D02*
X135183200Y-97226475D01*
X135183200Y-97226475D02*
X135230819Y-97131237D01*
X135230819Y-97131237D02*
X135230819Y-96940761D01*
X135230819Y-96940761D02*
X135183200Y-96845523D01*
X135183200Y-96845523D02*
X135135580Y-96797904D01*
X135135580Y-96797904D02*
X135040342Y-96750285D01*
X135040342Y-96750285D02*
X134849866Y-96750285D01*
X134849866Y-96750285D02*
X134754628Y-96797904D01*
X134754628Y-96797904D02*
X134707009Y-96845523D01*
X134707009Y-96845523D02*
X134659390Y-96940761D01*
X178316095Y-72860819D02*
X178887523Y-72860819D01*
X178601809Y-73860819D02*
X178601809Y-72860819D01*
X179220857Y-73860819D02*
X179220857Y-72860819D01*
X179220857Y-72860819D02*
X179601809Y-72860819D01*
X179601809Y-72860819D02*
X179697047Y-72908438D01*
X179697047Y-72908438D02*
X179744666Y-72956057D01*
X179744666Y-72956057D02*
X179792285Y-73051295D01*
X179792285Y-73051295D02*
X179792285Y-73194152D01*
X179792285Y-73194152D02*
X179744666Y-73289390D01*
X179744666Y-73289390D02*
X179697047Y-73337009D01*
X179697047Y-73337009D02*
X179601809Y-73384628D01*
X179601809Y-73384628D02*
X179220857Y-73384628D01*
X180649428Y-73194152D02*
X180649428Y-73860819D01*
X180411333Y-72813200D02*
X180173238Y-73527485D01*
X180173238Y-73527485D02*
X180792285Y-73527485D01*
X137501333Y-92561580D02*
X137453714Y-92609200D01*
X137453714Y-92609200D02*
X137310857Y-92656819D01*
X137310857Y-92656819D02*
X137215619Y-92656819D01*
X137215619Y-92656819D02*
X137072762Y-92609200D01*
X137072762Y-92609200D02*
X136977524Y-92513961D01*
X136977524Y-92513961D02*
X136929905Y-92418723D01*
X136929905Y-92418723D02*
X136882286Y-92228247D01*
X136882286Y-92228247D02*
X136882286Y-92085390D01*
X136882286Y-92085390D02*
X136929905Y-91894914D01*
X136929905Y-91894914D02*
X136977524Y-91799676D01*
X136977524Y-91799676D02*
X137072762Y-91704438D01*
X137072762Y-91704438D02*
X137215619Y-91656819D01*
X137215619Y-91656819D02*
X137310857Y-91656819D01*
X137310857Y-91656819D02*
X137453714Y-91704438D01*
X137453714Y-91704438D02*
X137501333Y-91752057D01*
X137977524Y-92656819D02*
X138168000Y-92656819D01*
X138168000Y-92656819D02*
X138263238Y-92609200D01*
X138263238Y-92609200D02*
X138310857Y-92561580D01*
X138310857Y-92561580D02*
X138406095Y-92418723D01*
X138406095Y-92418723D02*
X138453714Y-92228247D01*
X138453714Y-92228247D02*
X138453714Y-91847295D01*
X138453714Y-91847295D02*
X138406095Y-91752057D01*
X138406095Y-91752057D02*
X138358476Y-91704438D01*
X138358476Y-91704438D02*
X138263238Y-91656819D01*
X138263238Y-91656819D02*
X138072762Y-91656819D01*
X138072762Y-91656819D02*
X137977524Y-91704438D01*
X137977524Y-91704438D02*
X137929905Y-91752057D01*
X137929905Y-91752057D02*
X137882286Y-91847295D01*
X137882286Y-91847295D02*
X137882286Y-92085390D01*
X137882286Y-92085390D02*
X137929905Y-92180628D01*
X137929905Y-92180628D02*
X137977524Y-92228247D01*
X137977524Y-92228247D02*
X138072762Y-92275866D01*
X138072762Y-92275866D02*
X138263238Y-92275866D01*
X138263238Y-92275866D02*
X138358476Y-92228247D01*
X138358476Y-92228247D02*
X138406095Y-92180628D01*
X138406095Y-92180628D02*
X138453714Y-92085390D01*
X129460666Y-67272819D02*
X129460666Y-67987104D01*
X129460666Y-67987104D02*
X129413047Y-68129961D01*
X129413047Y-68129961D02*
X129317809Y-68225200D01*
X129317809Y-68225200D02*
X129174952Y-68272819D01*
X129174952Y-68272819D02*
X129079714Y-68272819D01*
X130365428Y-67606152D02*
X130365428Y-68272819D01*
X130127333Y-67225200D02*
X129889238Y-67939485D01*
X129889238Y-67939485D02*
X130508285Y-67939485D01*
X205083580Y-84306666D02*
X205131200Y-84354285D01*
X205131200Y-84354285D02*
X205178819Y-84497142D01*
X205178819Y-84497142D02*
X205178819Y-84592380D01*
X205178819Y-84592380D02*
X205131200Y-84735237D01*
X205131200Y-84735237D02*
X205035961Y-84830475D01*
X205035961Y-84830475D02*
X204940723Y-84878094D01*
X204940723Y-84878094D02*
X204750247Y-84925713D01*
X204750247Y-84925713D02*
X204607390Y-84925713D01*
X204607390Y-84925713D02*
X204416914Y-84878094D01*
X204416914Y-84878094D02*
X204321676Y-84830475D01*
X204321676Y-84830475D02*
X204226438Y-84735237D01*
X204226438Y-84735237D02*
X204178819Y-84592380D01*
X204178819Y-84592380D02*
X204178819Y-84497142D01*
X204178819Y-84497142D02*
X204226438Y-84354285D01*
X204226438Y-84354285D02*
X204274057Y-84306666D01*
X205178819Y-83354285D02*
X205178819Y-83925713D01*
X205178819Y-83639999D02*
X204178819Y-83639999D01*
X204178819Y-83639999D02*
X204321676Y-83735237D01*
X204321676Y-83735237D02*
X204416914Y-83830475D01*
X204416914Y-83830475D02*
X204464533Y-83925713D01*
X169260819Y-96702857D02*
X168784628Y-97036190D01*
X169260819Y-97274285D02*
X168260819Y-97274285D01*
X168260819Y-97274285D02*
X168260819Y-96893333D01*
X168260819Y-96893333D02*
X168308438Y-96798095D01*
X168308438Y-96798095D02*
X168356057Y-96750476D01*
X168356057Y-96750476D02*
X168451295Y-96702857D01*
X168451295Y-96702857D02*
X168594152Y-96702857D01*
X168594152Y-96702857D02*
X168689390Y-96750476D01*
X168689390Y-96750476D02*
X168737009Y-96798095D01*
X168737009Y-96798095D02*
X168784628Y-96893333D01*
X168784628Y-96893333D02*
X168784628Y-97274285D01*
X169260819Y-95750476D02*
X169260819Y-96321904D01*
X169260819Y-96036190D02*
X168260819Y-96036190D01*
X168260819Y-96036190D02*
X168403676Y-96131428D01*
X168403676Y-96131428D02*
X168498914Y-96226666D01*
X168498914Y-96226666D02*
X168546533Y-96321904D01*
X168260819Y-95131428D02*
X168260819Y-95036190D01*
X168260819Y-95036190D02*
X168308438Y-94940952D01*
X168308438Y-94940952D02*
X168356057Y-94893333D01*
X168356057Y-94893333D02*
X168451295Y-94845714D01*
X168451295Y-94845714D02*
X168641771Y-94798095D01*
X168641771Y-94798095D02*
X168879866Y-94798095D01*
X168879866Y-94798095D02*
X169070342Y-94845714D01*
X169070342Y-94845714D02*
X169165580Y-94893333D01*
X169165580Y-94893333D02*
X169213200Y-94940952D01*
X169213200Y-94940952D02*
X169260819Y-95036190D01*
X169260819Y-95036190D02*
X169260819Y-95131428D01*
X169260819Y-95131428D02*
X169213200Y-95226666D01*
X169213200Y-95226666D02*
X169165580Y-95274285D01*
X169165580Y-95274285D02*
X169070342Y-95321904D01*
X169070342Y-95321904D02*
X168879866Y-95369523D01*
X168879866Y-95369523D02*
X168641771Y-95369523D01*
X168641771Y-95369523D02*
X168451295Y-95321904D01*
X168451295Y-95321904D02*
X168356057Y-95274285D01*
X168356057Y-95274285D02*
X168308438Y-95226666D01*
X168308438Y-95226666D02*
X168260819Y-95131428D01*
X161804819Y-112093333D02*
X162519104Y-112093333D01*
X162519104Y-112093333D02*
X162661961Y-112140952D01*
X162661961Y-112140952D02*
X162757200Y-112236190D01*
X162757200Y-112236190D02*
X162804819Y-112379047D01*
X162804819Y-112379047D02*
X162804819Y-112474285D01*
X161804819Y-111712380D02*
X161804819Y-111045714D01*
X161804819Y-111045714D02*
X162804819Y-111474285D01*
X186764819Y-84494666D02*
X186288628Y-84827999D01*
X186764819Y-85066094D02*
X185764819Y-85066094D01*
X185764819Y-85066094D02*
X185764819Y-84685142D01*
X185764819Y-84685142D02*
X185812438Y-84589904D01*
X185812438Y-84589904D02*
X185860057Y-84542285D01*
X185860057Y-84542285D02*
X185955295Y-84494666D01*
X185955295Y-84494666D02*
X186098152Y-84494666D01*
X186098152Y-84494666D02*
X186193390Y-84542285D01*
X186193390Y-84542285D02*
X186241009Y-84589904D01*
X186241009Y-84589904D02*
X186288628Y-84685142D01*
X186288628Y-84685142D02*
X186288628Y-85066094D01*
X186193390Y-83923237D02*
X186145771Y-84018475D01*
X186145771Y-84018475D02*
X186098152Y-84066094D01*
X186098152Y-84066094D02*
X186002914Y-84113713D01*
X186002914Y-84113713D02*
X185955295Y-84113713D01*
X185955295Y-84113713D02*
X185860057Y-84066094D01*
X185860057Y-84066094D02*
X185812438Y-84018475D01*
X185812438Y-84018475D02*
X185764819Y-83923237D01*
X185764819Y-83923237D02*
X185764819Y-83732761D01*
X185764819Y-83732761D02*
X185812438Y-83637523D01*
X185812438Y-83637523D02*
X185860057Y-83589904D01*
X185860057Y-83589904D02*
X185955295Y-83542285D01*
X185955295Y-83542285D02*
X186002914Y-83542285D01*
X186002914Y-83542285D02*
X186098152Y-83589904D01*
X186098152Y-83589904D02*
X186145771Y-83637523D01*
X186145771Y-83637523D02*
X186193390Y-83732761D01*
X186193390Y-83732761D02*
X186193390Y-83923237D01*
X186193390Y-83923237D02*
X186241009Y-84018475D01*
X186241009Y-84018475D02*
X186288628Y-84066094D01*
X186288628Y-84066094D02*
X186383866Y-84113713D01*
X186383866Y-84113713D02*
X186574342Y-84113713D01*
X186574342Y-84113713D02*
X186669580Y-84066094D01*
X186669580Y-84066094D02*
X186717200Y-84018475D01*
X186717200Y-84018475D02*
X186764819Y-83923237D01*
X186764819Y-83923237D02*
X186764819Y-83732761D01*
X186764819Y-83732761D02*
X186717200Y-83637523D01*
X186717200Y-83637523D02*
X186669580Y-83589904D01*
X186669580Y-83589904D02*
X186574342Y-83542285D01*
X186574342Y-83542285D02*
X186383866Y-83542285D01*
X186383866Y-83542285D02*
X186288628Y-83589904D01*
X186288628Y-83589904D02*
X186241009Y-83637523D01*
X186241009Y-83637523D02*
X186193390Y-83732761D01*
X190976057Y-79264738D02*
X190928438Y-79359976D01*
X190928438Y-79359976D02*
X190833200Y-79455214D01*
X190833200Y-79455214D02*
X190690342Y-79598071D01*
X190690342Y-79598071D02*
X190642723Y-79693309D01*
X190642723Y-79693309D02*
X190642723Y-79788547D01*
X190880819Y-79740928D02*
X190833200Y-79836166D01*
X190833200Y-79836166D02*
X190737961Y-79931404D01*
X190737961Y-79931404D02*
X190547485Y-79979023D01*
X190547485Y-79979023D02*
X190214152Y-79979023D01*
X190214152Y-79979023D02*
X190023676Y-79931404D01*
X190023676Y-79931404D02*
X189928438Y-79836166D01*
X189928438Y-79836166D02*
X189880819Y-79740928D01*
X189880819Y-79740928D02*
X189880819Y-79550452D01*
X189880819Y-79550452D02*
X189928438Y-79455214D01*
X189928438Y-79455214D02*
X190023676Y-79359976D01*
X190023676Y-79359976D02*
X190214152Y-79312357D01*
X190214152Y-79312357D02*
X190547485Y-79312357D01*
X190547485Y-79312357D02*
X190737961Y-79359976D01*
X190737961Y-79359976D02*
X190833200Y-79455214D01*
X190833200Y-79455214D02*
X190880819Y-79550452D01*
X190880819Y-79550452D02*
X190880819Y-79740928D01*
X189976057Y-78931404D02*
X189928438Y-78883785D01*
X189928438Y-78883785D02*
X189880819Y-78788547D01*
X189880819Y-78788547D02*
X189880819Y-78550452D01*
X189880819Y-78550452D02*
X189928438Y-78455214D01*
X189928438Y-78455214D02*
X189976057Y-78407595D01*
X189976057Y-78407595D02*
X190071295Y-78359976D01*
X190071295Y-78359976D02*
X190166533Y-78359976D01*
X190166533Y-78359976D02*
X190309390Y-78407595D01*
X190309390Y-78407595D02*
X190880819Y-78979023D01*
X190880819Y-78979023D02*
X190880819Y-78359976D01*
X198312819Y-69929333D02*
X199027104Y-69929333D01*
X199027104Y-69929333D02*
X199169961Y-69976952D01*
X199169961Y-69976952D02*
X199265200Y-70072190D01*
X199265200Y-70072190D02*
X199312819Y-70215047D01*
X199312819Y-70215047D02*
X199312819Y-70310285D01*
X199312819Y-68929333D02*
X199312819Y-69500761D01*
X199312819Y-69215047D02*
X198312819Y-69215047D01*
X198312819Y-69215047D02*
X198455676Y-69310285D01*
X198455676Y-69310285D02*
X198550914Y-69405523D01*
X198550914Y-69405523D02*
X198598533Y-69500761D01*
X169260819Y-100798666D02*
X168784628Y-101131999D01*
X169260819Y-101370094D02*
X168260819Y-101370094D01*
X168260819Y-101370094D02*
X168260819Y-100989142D01*
X168260819Y-100989142D02*
X168308438Y-100893904D01*
X168308438Y-100893904D02*
X168356057Y-100846285D01*
X168356057Y-100846285D02*
X168451295Y-100798666D01*
X168451295Y-100798666D02*
X168594152Y-100798666D01*
X168594152Y-100798666D02*
X168689390Y-100846285D01*
X168689390Y-100846285D02*
X168737009Y-100893904D01*
X168737009Y-100893904D02*
X168784628Y-100989142D01*
X168784628Y-100989142D02*
X168784628Y-101370094D01*
X169260819Y-100322475D02*
X169260819Y-100131999D01*
X169260819Y-100131999D02*
X169213200Y-100036761D01*
X169213200Y-100036761D02*
X169165580Y-99989142D01*
X169165580Y-99989142D02*
X169022723Y-99893904D01*
X169022723Y-99893904D02*
X168832247Y-99846285D01*
X168832247Y-99846285D02*
X168451295Y-99846285D01*
X168451295Y-99846285D02*
X168356057Y-99893904D01*
X168356057Y-99893904D02*
X168308438Y-99941523D01*
X168308438Y-99941523D02*
X168260819Y-100036761D01*
X168260819Y-100036761D02*
X168260819Y-100227237D01*
X168260819Y-100227237D02*
X168308438Y-100322475D01*
X168308438Y-100322475D02*
X168356057Y-100370094D01*
X168356057Y-100370094D02*
X168451295Y-100417713D01*
X168451295Y-100417713D02*
X168689390Y-100417713D01*
X168689390Y-100417713D02*
X168784628Y-100370094D01*
X168784628Y-100370094D02*
X168832247Y-100322475D01*
X168832247Y-100322475D02*
X168879866Y-100227237D01*
X168879866Y-100227237D02*
X168879866Y-100036761D01*
X168879866Y-100036761D02*
X168832247Y-99941523D01*
X168832247Y-99941523D02*
X168784628Y-99893904D01*
X168784628Y-99893904D02*
X168689390Y-99846285D01*
X183970819Y-89574666D02*
X183494628Y-89907999D01*
X183970819Y-90146094D02*
X182970819Y-90146094D01*
X182970819Y-90146094D02*
X182970819Y-89765142D01*
X182970819Y-89765142D02*
X183018438Y-89669904D01*
X183018438Y-89669904D02*
X183066057Y-89622285D01*
X183066057Y-89622285D02*
X183161295Y-89574666D01*
X183161295Y-89574666D02*
X183304152Y-89574666D01*
X183304152Y-89574666D02*
X183399390Y-89622285D01*
X183399390Y-89622285D02*
X183447009Y-89669904D01*
X183447009Y-89669904D02*
X183494628Y-89765142D01*
X183494628Y-89765142D02*
X183494628Y-90146094D01*
X183066057Y-89193713D02*
X183018438Y-89146094D01*
X183018438Y-89146094D02*
X182970819Y-89050856D01*
X182970819Y-89050856D02*
X182970819Y-88812761D01*
X182970819Y-88812761D02*
X183018438Y-88717523D01*
X183018438Y-88717523D02*
X183066057Y-88669904D01*
X183066057Y-88669904D02*
X183161295Y-88622285D01*
X183161295Y-88622285D02*
X183256533Y-88622285D01*
X183256533Y-88622285D02*
X183399390Y-88669904D01*
X183399390Y-88669904D02*
X183970819Y-89241332D01*
X183970819Y-89241332D02*
X183970819Y-88622285D01*
X146630819Y-101274857D02*
X146154628Y-101608190D01*
X146630819Y-101846285D02*
X145630819Y-101846285D01*
X145630819Y-101846285D02*
X145630819Y-101465333D01*
X145630819Y-101465333D02*
X145678438Y-101370095D01*
X145678438Y-101370095D02*
X145726057Y-101322476D01*
X145726057Y-101322476D02*
X145821295Y-101274857D01*
X145821295Y-101274857D02*
X145964152Y-101274857D01*
X145964152Y-101274857D02*
X146059390Y-101322476D01*
X146059390Y-101322476D02*
X146107009Y-101370095D01*
X146107009Y-101370095D02*
X146154628Y-101465333D01*
X146154628Y-101465333D02*
X146154628Y-101846285D01*
X146630819Y-100322476D02*
X146630819Y-100893904D01*
X146630819Y-100608190D02*
X145630819Y-100608190D01*
X145630819Y-100608190D02*
X145773676Y-100703428D01*
X145773676Y-100703428D02*
X145868914Y-100798666D01*
X145868914Y-100798666D02*
X145916533Y-100893904D01*
X145630819Y-99989142D02*
X145630819Y-99370095D01*
X145630819Y-99370095D02*
X146011771Y-99703428D01*
X146011771Y-99703428D02*
X146011771Y-99560571D01*
X146011771Y-99560571D02*
X146059390Y-99465333D01*
X146059390Y-99465333D02*
X146107009Y-99417714D01*
X146107009Y-99417714D02*
X146202247Y-99370095D01*
X146202247Y-99370095D02*
X146440342Y-99370095D01*
X146440342Y-99370095D02*
X146535580Y-99417714D01*
X146535580Y-99417714D02*
X146583200Y-99465333D01*
X146583200Y-99465333D02*
X146630819Y-99560571D01*
X146630819Y-99560571D02*
X146630819Y-99846285D01*
X146630819Y-99846285D02*
X146583200Y-99941523D01*
X146583200Y-99941523D02*
X146535580Y-99989142D01*
X160488667Y-104143200D02*
X160631524Y-104190819D01*
X160631524Y-104190819D02*
X160869619Y-104190819D01*
X160869619Y-104190819D02*
X160964857Y-104143200D01*
X160964857Y-104143200D02*
X161012476Y-104095580D01*
X161012476Y-104095580D02*
X161060095Y-104000342D01*
X161060095Y-104000342D02*
X161060095Y-103905104D01*
X161060095Y-103905104D02*
X161012476Y-103809866D01*
X161012476Y-103809866D02*
X160964857Y-103762247D01*
X160964857Y-103762247D02*
X160869619Y-103714628D01*
X160869619Y-103714628D02*
X160679143Y-103667009D01*
X160679143Y-103667009D02*
X160583905Y-103619390D01*
X160583905Y-103619390D02*
X160536286Y-103571771D01*
X160536286Y-103571771D02*
X160488667Y-103476533D01*
X160488667Y-103476533D02*
X160488667Y-103381295D01*
X160488667Y-103381295D02*
X160536286Y-103286057D01*
X160536286Y-103286057D02*
X160583905Y-103238438D01*
X160583905Y-103238438D02*
X160679143Y-103190819D01*
X160679143Y-103190819D02*
X160917238Y-103190819D01*
X160917238Y-103190819D02*
X161060095Y-103238438D01*
X161393429Y-103190819D02*
X161631524Y-104190819D01*
X161631524Y-104190819D02*
X161822000Y-103476533D01*
X161822000Y-103476533D02*
X162012476Y-104190819D01*
X162012476Y-104190819D02*
X162250572Y-103190819D01*
X163060095Y-103524152D02*
X163060095Y-104190819D01*
X162822000Y-103143200D02*
X162583905Y-103857485D01*
X162583905Y-103857485D02*
X163202952Y-103857485D01*
X120658095Y-71720819D02*
X121229523Y-71720819D01*
X120943809Y-72720819D02*
X120943809Y-71720819D01*
X121562857Y-72720819D02*
X121562857Y-71720819D01*
X121562857Y-71720819D02*
X121943809Y-71720819D01*
X121943809Y-71720819D02*
X122039047Y-71768438D01*
X122039047Y-71768438D02*
X122086666Y-71816057D01*
X122086666Y-71816057D02*
X122134285Y-71911295D01*
X122134285Y-71911295D02*
X122134285Y-72054152D01*
X122134285Y-72054152D02*
X122086666Y-72149390D01*
X122086666Y-72149390D02*
X122039047Y-72197009D01*
X122039047Y-72197009D02*
X121943809Y-72244628D01*
X121943809Y-72244628D02*
X121562857Y-72244628D01*
X122991428Y-71720819D02*
X122800952Y-71720819D01*
X122800952Y-71720819D02*
X122705714Y-71768438D01*
X122705714Y-71768438D02*
X122658095Y-71816057D01*
X122658095Y-71816057D02*
X122562857Y-71958914D01*
X122562857Y-71958914D02*
X122515238Y-72149390D01*
X122515238Y-72149390D02*
X122515238Y-72530342D01*
X122515238Y-72530342D02*
X122562857Y-72625580D01*
X122562857Y-72625580D02*
X122610476Y-72673200D01*
X122610476Y-72673200D02*
X122705714Y-72720819D01*
X122705714Y-72720819D02*
X122896190Y-72720819D01*
X122896190Y-72720819D02*
X122991428Y-72673200D01*
X122991428Y-72673200D02*
X123039047Y-72625580D01*
X123039047Y-72625580D02*
X123086666Y-72530342D01*
X123086666Y-72530342D02*
X123086666Y-72292247D01*
X123086666Y-72292247D02*
X123039047Y-72197009D01*
X123039047Y-72197009D02*
X122991428Y-72149390D01*
X122991428Y-72149390D02*
X122896190Y-72101771D01*
X122896190Y-72101771D02*
X122705714Y-72101771D01*
X122705714Y-72101771D02*
X122610476Y-72149390D01*
X122610476Y-72149390D02*
X122562857Y-72197009D01*
X122562857Y-72197009D02*
X122515238Y-72292247D01*
X203454095Y-107744819D02*
X203454095Y-106744819D01*
X203454095Y-107221009D02*
X204025523Y-107221009D01*
X204025523Y-107744819D02*
X204025523Y-106744819D01*
X204406476Y-106744819D02*
X205025523Y-106744819D01*
X205025523Y-106744819D02*
X204692190Y-107125771D01*
X204692190Y-107125771D02*
X204835047Y-107125771D01*
X204835047Y-107125771D02*
X204930285Y-107173390D01*
X204930285Y-107173390D02*
X204977904Y-107221009D01*
X204977904Y-107221009D02*
X205025523Y-107316247D01*
X205025523Y-107316247D02*
X205025523Y-107554342D01*
X205025523Y-107554342D02*
X204977904Y-107649580D01*
X204977904Y-107649580D02*
X204930285Y-107697200D01*
X204930285Y-107697200D02*
X204835047Y-107744819D01*
X204835047Y-107744819D02*
X204549333Y-107744819D01*
X204549333Y-107744819D02*
X204454095Y-107697200D01*
X204454095Y-107697200D02*
X204406476Y-107649580D01*
X136588667Y-104293200D02*
X136731524Y-104340819D01*
X136731524Y-104340819D02*
X136969619Y-104340819D01*
X136969619Y-104340819D02*
X137064857Y-104293200D01*
X137064857Y-104293200D02*
X137112476Y-104245580D01*
X137112476Y-104245580D02*
X137160095Y-104150342D01*
X137160095Y-104150342D02*
X137160095Y-104055104D01*
X137160095Y-104055104D02*
X137112476Y-103959866D01*
X137112476Y-103959866D02*
X137064857Y-103912247D01*
X137064857Y-103912247D02*
X136969619Y-103864628D01*
X136969619Y-103864628D02*
X136779143Y-103817009D01*
X136779143Y-103817009D02*
X136683905Y-103769390D01*
X136683905Y-103769390D02*
X136636286Y-103721771D01*
X136636286Y-103721771D02*
X136588667Y-103626533D01*
X136588667Y-103626533D02*
X136588667Y-103531295D01*
X136588667Y-103531295D02*
X136636286Y-103436057D01*
X136636286Y-103436057D02*
X136683905Y-103388438D01*
X136683905Y-103388438D02*
X136779143Y-103340819D01*
X136779143Y-103340819D02*
X137017238Y-103340819D01*
X137017238Y-103340819D02*
X137160095Y-103388438D01*
X137493429Y-103340819D02*
X137731524Y-104340819D01*
X137731524Y-104340819D02*
X137922000Y-103626533D01*
X137922000Y-103626533D02*
X138112476Y-104340819D01*
X138112476Y-104340819D02*
X138350572Y-103340819D01*
X139160095Y-103340819D02*
X138969619Y-103340819D01*
X138969619Y-103340819D02*
X138874381Y-103388438D01*
X138874381Y-103388438D02*
X138826762Y-103436057D01*
X138826762Y-103436057D02*
X138731524Y-103578914D01*
X138731524Y-103578914D02*
X138683905Y-103769390D01*
X138683905Y-103769390D02*
X138683905Y-104150342D01*
X138683905Y-104150342D02*
X138731524Y-104245580D01*
X138731524Y-104245580D02*
X138779143Y-104293200D01*
X138779143Y-104293200D02*
X138874381Y-104340819D01*
X138874381Y-104340819D02*
X139064857Y-104340819D01*
X139064857Y-104340819D02*
X139160095Y-104293200D01*
X139160095Y-104293200D02*
X139207714Y-104245580D01*
X139207714Y-104245580D02*
X139255333Y-104150342D01*
X139255333Y-104150342D02*
X139255333Y-103912247D01*
X139255333Y-103912247D02*
X139207714Y-103817009D01*
X139207714Y-103817009D02*
X139160095Y-103769390D01*
X139160095Y-103769390D02*
X139064857Y-103721771D01*
X139064857Y-103721771D02*
X138874381Y-103721771D01*
X138874381Y-103721771D02*
X138779143Y-103769390D01*
X138779143Y-103769390D02*
X138731524Y-103817009D01*
X138731524Y-103817009D02*
X138683905Y-103912247D01*
X184158095Y-99660819D02*
X184729523Y-99660819D01*
X184443809Y-100660819D02*
X184443809Y-99660819D01*
X185062857Y-100660819D02*
X185062857Y-99660819D01*
X185062857Y-99660819D02*
X185443809Y-99660819D01*
X185443809Y-99660819D02*
X185539047Y-99708438D01*
X185539047Y-99708438D02*
X185586666Y-99756057D01*
X185586666Y-99756057D02*
X185634285Y-99851295D01*
X185634285Y-99851295D02*
X185634285Y-99994152D01*
X185634285Y-99994152D02*
X185586666Y-100089390D01*
X185586666Y-100089390D02*
X185539047Y-100137009D01*
X185539047Y-100137009D02*
X185443809Y-100184628D01*
X185443809Y-100184628D02*
X185062857Y-100184628D01*
X186586666Y-100660819D02*
X186015238Y-100660819D01*
X186300952Y-100660819D02*
X186300952Y-99660819D01*
X186300952Y-99660819D02*
X186205714Y-99803676D01*
X186205714Y-99803676D02*
X186110476Y-99898914D01*
X186110476Y-99898914D02*
X186015238Y-99946533D01*
X183842819Y-94146666D02*
X183366628Y-94479999D01*
X183842819Y-94718094D02*
X182842819Y-94718094D01*
X182842819Y-94718094D02*
X182842819Y-94337142D01*
X182842819Y-94337142D02*
X182890438Y-94241904D01*
X182890438Y-94241904D02*
X182938057Y-94194285D01*
X182938057Y-94194285D02*
X183033295Y-94146666D01*
X183033295Y-94146666D02*
X183176152Y-94146666D01*
X183176152Y-94146666D02*
X183271390Y-94194285D01*
X183271390Y-94194285D02*
X183319009Y-94241904D01*
X183319009Y-94241904D02*
X183366628Y-94337142D01*
X183366628Y-94337142D02*
X183366628Y-94718094D01*
X182842819Y-93289523D02*
X182842819Y-93479999D01*
X182842819Y-93479999D02*
X182890438Y-93575237D01*
X182890438Y-93575237D02*
X182938057Y-93622856D01*
X182938057Y-93622856D02*
X183080914Y-93718094D01*
X183080914Y-93718094D02*
X183271390Y-93765713D01*
X183271390Y-93765713D02*
X183652342Y-93765713D01*
X183652342Y-93765713D02*
X183747580Y-93718094D01*
X183747580Y-93718094D02*
X183795200Y-93670475D01*
X183795200Y-93670475D02*
X183842819Y-93575237D01*
X183842819Y-93575237D02*
X183842819Y-93384761D01*
X183842819Y-93384761D02*
X183795200Y-93289523D01*
X183795200Y-93289523D02*
X183747580Y-93241904D01*
X183747580Y-93241904D02*
X183652342Y-93194285D01*
X183652342Y-93194285D02*
X183414247Y-93194285D01*
X183414247Y-93194285D02*
X183319009Y-93241904D01*
X183319009Y-93241904D02*
X183271390Y-93289523D01*
X183271390Y-93289523D02*
X183223771Y-93384761D01*
X183223771Y-93384761D02*
X183223771Y-93575237D01*
X183223771Y-93575237D02*
X183271390Y-93670475D01*
X183271390Y-93670475D02*
X183319009Y-93718094D01*
X183319009Y-93718094D02*
X183414247Y-93765713D01*
X119419905Y-90262819D02*
X119991333Y-90262819D01*
X119705619Y-91262819D02*
X119705619Y-90262819D01*
X120324667Y-91262819D02*
X120324667Y-90262819D01*
X120324667Y-90262819D02*
X120705619Y-90262819D01*
X120705619Y-90262819D02*
X120800857Y-90310438D01*
X120800857Y-90310438D02*
X120848476Y-90358057D01*
X120848476Y-90358057D02*
X120896095Y-90453295D01*
X120896095Y-90453295D02*
X120896095Y-90596152D01*
X120896095Y-90596152D02*
X120848476Y-90691390D01*
X120848476Y-90691390D02*
X120800857Y-90739009D01*
X120800857Y-90739009D02*
X120705619Y-90786628D01*
X120705619Y-90786628D02*
X120324667Y-90786628D01*
X121848476Y-91262819D02*
X121277048Y-91262819D01*
X121562762Y-91262819D02*
X121562762Y-90262819D01*
X121562762Y-90262819D02*
X121467524Y-90405676D01*
X121467524Y-90405676D02*
X121372286Y-90500914D01*
X121372286Y-90500914D02*
X121277048Y-90548533D01*
X122229429Y-90358057D02*
X122277048Y-90310438D01*
X122277048Y-90310438D02*
X122372286Y-90262819D01*
X122372286Y-90262819D02*
X122610381Y-90262819D01*
X122610381Y-90262819D02*
X122705619Y-90310438D01*
X122705619Y-90310438D02*
X122753238Y-90358057D01*
X122753238Y-90358057D02*
X122800857Y-90453295D01*
X122800857Y-90453295D02*
X122800857Y-90548533D01*
X122800857Y-90548533D02*
X122753238Y-90691390D01*
X122753238Y-90691390D02*
X122181810Y-91262819D01*
X122181810Y-91262819D02*
X122800857Y-91262819D01*
X181530700Y-87137332D02*
X181578319Y-86994475D01*
X181578319Y-86994475D02*
X181578319Y-86756380D01*
X181578319Y-86756380D02*
X181530700Y-86661142D01*
X181530700Y-86661142D02*
X181483080Y-86613523D01*
X181483080Y-86613523D02*
X181387842Y-86565904D01*
X181387842Y-86565904D02*
X181292604Y-86565904D01*
X181292604Y-86565904D02*
X181197366Y-86613523D01*
X181197366Y-86613523D02*
X181149747Y-86661142D01*
X181149747Y-86661142D02*
X181102128Y-86756380D01*
X181102128Y-86756380D02*
X181054509Y-86946856D01*
X181054509Y-86946856D02*
X181006890Y-87042094D01*
X181006890Y-87042094D02*
X180959271Y-87089713D01*
X180959271Y-87089713D02*
X180864033Y-87137332D01*
X180864033Y-87137332D02*
X180768795Y-87137332D01*
X180768795Y-87137332D02*
X180673557Y-87089713D01*
X180673557Y-87089713D02*
X180625938Y-87042094D01*
X180625938Y-87042094D02*
X180578319Y-86946856D01*
X180578319Y-86946856D02*
X180578319Y-86708761D01*
X180578319Y-86708761D02*
X180625938Y-86565904D01*
X180578319Y-86232570D02*
X181578319Y-85994475D01*
X181578319Y-85994475D02*
X180864033Y-85803999D01*
X180864033Y-85803999D02*
X181578319Y-85613523D01*
X181578319Y-85613523D02*
X180578319Y-85375428D01*
X180578319Y-85089713D02*
X180578319Y-84470666D01*
X180578319Y-84470666D02*
X180959271Y-84803999D01*
X180959271Y-84803999D02*
X180959271Y-84661142D01*
X180959271Y-84661142D02*
X181006890Y-84565904D01*
X181006890Y-84565904D02*
X181054509Y-84518285D01*
X181054509Y-84518285D02*
X181149747Y-84470666D01*
X181149747Y-84470666D02*
X181387842Y-84470666D01*
X181387842Y-84470666D02*
X181483080Y-84518285D01*
X181483080Y-84518285D02*
X181530700Y-84565904D01*
X181530700Y-84565904D02*
X181578319Y-84661142D01*
X181578319Y-84661142D02*
X181578319Y-84946856D01*
X181578319Y-84946856D02*
X181530700Y-85042094D01*
X181530700Y-85042094D02*
X181483080Y-85089713D01*
X131064095Y-89408819D02*
X131064095Y-90218342D01*
X131064095Y-90218342D02*
X131111714Y-90313580D01*
X131111714Y-90313580D02*
X131159333Y-90361200D01*
X131159333Y-90361200D02*
X131254571Y-90408819D01*
X131254571Y-90408819D02*
X131445047Y-90408819D01*
X131445047Y-90408819D02*
X131540285Y-90361200D01*
X131540285Y-90361200D02*
X131587904Y-90313580D01*
X131587904Y-90313580D02*
X131635523Y-90218342D01*
X131635523Y-90218342D02*
X131635523Y-89408819D01*
X132540285Y-89742152D02*
X132540285Y-90408819D01*
X132302190Y-89361200D02*
X132064095Y-90075485D01*
X132064095Y-90075485D02*
X132683142Y-90075485D01*
X115355905Y-97134819D02*
X115927333Y-97134819D01*
X115641619Y-98134819D02*
X115641619Y-97134819D01*
X116260667Y-98134819D02*
X116260667Y-97134819D01*
X116260667Y-97134819D02*
X116641619Y-97134819D01*
X116641619Y-97134819D02*
X116736857Y-97182438D01*
X116736857Y-97182438D02*
X116784476Y-97230057D01*
X116784476Y-97230057D02*
X116832095Y-97325295D01*
X116832095Y-97325295D02*
X116832095Y-97468152D01*
X116832095Y-97468152D02*
X116784476Y-97563390D01*
X116784476Y-97563390D02*
X116736857Y-97611009D01*
X116736857Y-97611009D02*
X116641619Y-97658628D01*
X116641619Y-97658628D02*
X116260667Y-97658628D01*
X117784476Y-98134819D02*
X117213048Y-98134819D01*
X117498762Y-98134819D02*
X117498762Y-97134819D01*
X117498762Y-97134819D02*
X117403524Y-97277676D01*
X117403524Y-97277676D02*
X117308286Y-97372914D01*
X117308286Y-97372914D02*
X117213048Y-97420533D01*
X118689238Y-97134819D02*
X118213048Y-97134819D01*
X118213048Y-97134819D02*
X118165429Y-97611009D01*
X118165429Y-97611009D02*
X118213048Y-97563390D01*
X118213048Y-97563390D02*
X118308286Y-97515771D01*
X118308286Y-97515771D02*
X118546381Y-97515771D01*
X118546381Y-97515771D02*
X118641619Y-97563390D01*
X118641619Y-97563390D02*
X118689238Y-97611009D01*
X118689238Y-97611009D02*
X118736857Y-97706247D01*
X118736857Y-97706247D02*
X118736857Y-97944342D01*
X118736857Y-97944342D02*
X118689238Y-98039580D01*
X118689238Y-98039580D02*
X118641619Y-98087200D01*
X118641619Y-98087200D02*
X118546381Y-98134819D01*
X118546381Y-98134819D02*
X118308286Y-98134819D01*
X118308286Y-98134819D02*
X118213048Y-98087200D01*
X118213048Y-98087200D02*
X118165429Y-98039580D01*
X180558319Y-93249333D02*
X181272604Y-93249333D01*
X181272604Y-93249333D02*
X181415461Y-93296952D01*
X181415461Y-93296952D02*
X181510700Y-93392190D01*
X181510700Y-93392190D02*
X181558319Y-93535047D01*
X181558319Y-93535047D02*
X181558319Y-93630285D01*
X180653557Y-92820761D02*
X180605938Y-92773142D01*
X180605938Y-92773142D02*
X180558319Y-92677904D01*
X180558319Y-92677904D02*
X180558319Y-92439809D01*
X180558319Y-92439809D02*
X180605938Y-92344571D01*
X180605938Y-92344571D02*
X180653557Y-92296952D01*
X180653557Y-92296952D02*
X180748795Y-92249333D01*
X180748795Y-92249333D02*
X180844033Y-92249333D01*
X180844033Y-92249333D02*
X180986890Y-92296952D01*
X180986890Y-92296952D02*
X181558319Y-92868380D01*
X181558319Y-92868380D02*
X181558319Y-92249333D01*
X172217080Y-78858666D02*
X172264700Y-78906285D01*
X172264700Y-78906285D02*
X172312319Y-79049142D01*
X172312319Y-79049142D02*
X172312319Y-79144380D01*
X172312319Y-79144380D02*
X172264700Y-79287237D01*
X172264700Y-79287237D02*
X172169461Y-79382475D01*
X172169461Y-79382475D02*
X172074223Y-79430094D01*
X172074223Y-79430094D02*
X171883747Y-79477713D01*
X171883747Y-79477713D02*
X171740890Y-79477713D01*
X171740890Y-79477713D02*
X171550414Y-79430094D01*
X171550414Y-79430094D02*
X171455176Y-79382475D01*
X171455176Y-79382475D02*
X171359938Y-79287237D01*
X171359938Y-79287237D02*
X171312319Y-79144380D01*
X171312319Y-79144380D02*
X171312319Y-79049142D01*
X171312319Y-79049142D02*
X171359938Y-78906285D01*
X171359938Y-78906285D02*
X171407557Y-78858666D01*
X171312319Y-78001523D02*
X171312319Y-78191999D01*
X171312319Y-78191999D02*
X171359938Y-78287237D01*
X171359938Y-78287237D02*
X171407557Y-78334856D01*
X171407557Y-78334856D02*
X171550414Y-78430094D01*
X171550414Y-78430094D02*
X171740890Y-78477713D01*
X171740890Y-78477713D02*
X172121842Y-78477713D01*
X172121842Y-78477713D02*
X172217080Y-78430094D01*
X172217080Y-78430094D02*
X172264700Y-78382475D01*
X172264700Y-78382475D02*
X172312319Y-78287237D01*
X172312319Y-78287237D02*
X172312319Y-78096761D01*
X172312319Y-78096761D02*
X172264700Y-78001523D01*
X172264700Y-78001523D02*
X172217080Y-77953904D01*
X172217080Y-77953904D02*
X172121842Y-77906285D01*
X172121842Y-77906285D02*
X171883747Y-77906285D01*
X171883747Y-77906285D02*
X171788509Y-77953904D01*
X171788509Y-77953904D02*
X171740890Y-78001523D01*
X171740890Y-78001523D02*
X171693271Y-78096761D01*
X171693271Y-78096761D02*
X171693271Y-78287237D01*
X171693271Y-78287237D02*
X171740890Y-78382475D01*
X171740890Y-78382475D02*
X171788509Y-78430094D01*
X171788509Y-78430094D02*
X171883747Y-78477713D01*
X120689905Y-97106819D02*
X121261333Y-97106819D01*
X120975619Y-98106819D02*
X120975619Y-97106819D01*
X121594667Y-98106819D02*
X121594667Y-97106819D01*
X121594667Y-97106819D02*
X121975619Y-97106819D01*
X121975619Y-97106819D02*
X122070857Y-97154438D01*
X122070857Y-97154438D02*
X122118476Y-97202057D01*
X122118476Y-97202057D02*
X122166095Y-97297295D01*
X122166095Y-97297295D02*
X122166095Y-97440152D01*
X122166095Y-97440152D02*
X122118476Y-97535390D01*
X122118476Y-97535390D02*
X122070857Y-97583009D01*
X122070857Y-97583009D02*
X121975619Y-97630628D01*
X121975619Y-97630628D02*
X121594667Y-97630628D01*
X123118476Y-98106819D02*
X122547048Y-98106819D01*
X122832762Y-98106819D02*
X122832762Y-97106819D01*
X122832762Y-97106819D02*
X122737524Y-97249676D01*
X122737524Y-97249676D02*
X122642286Y-97344914D01*
X122642286Y-97344914D02*
X122547048Y-97392533D01*
X123451810Y-97106819D02*
X124070857Y-97106819D01*
X124070857Y-97106819D02*
X123737524Y-97487771D01*
X123737524Y-97487771D02*
X123880381Y-97487771D01*
X123880381Y-97487771D02*
X123975619Y-97535390D01*
X123975619Y-97535390D02*
X124023238Y-97583009D01*
X124023238Y-97583009D02*
X124070857Y-97678247D01*
X124070857Y-97678247D02*
X124070857Y-97916342D01*
X124070857Y-97916342D02*
X124023238Y-98011580D01*
X124023238Y-98011580D02*
X123975619Y-98059200D01*
X123975619Y-98059200D02*
X123880381Y-98106819D01*
X123880381Y-98106819D02*
X123594667Y-98106819D01*
X123594667Y-98106819D02*
X123499429Y-98059200D01*
X123499429Y-98059200D02*
X123451810Y-98011580D01*
X161813819Y-106807333D02*
X162528104Y-106807333D01*
X162528104Y-106807333D02*
X162670961Y-106854952D01*
X162670961Y-106854952D02*
X162766200Y-106950190D01*
X162766200Y-106950190D02*
X162813819Y-107093047D01*
X162813819Y-107093047D02*
X162813819Y-107188285D01*
X161813819Y-105902571D02*
X161813819Y-106093047D01*
X161813819Y-106093047D02*
X161861438Y-106188285D01*
X161861438Y-106188285D02*
X161909057Y-106235904D01*
X161909057Y-106235904D02*
X162051914Y-106331142D01*
X162051914Y-106331142D02*
X162242390Y-106378761D01*
X162242390Y-106378761D02*
X162623342Y-106378761D01*
X162623342Y-106378761D02*
X162718580Y-106331142D01*
X162718580Y-106331142D02*
X162766200Y-106283523D01*
X162766200Y-106283523D02*
X162813819Y-106188285D01*
X162813819Y-106188285D02*
X162813819Y-105997809D01*
X162813819Y-105997809D02*
X162766200Y-105902571D01*
X162766200Y-105902571D02*
X162718580Y-105854952D01*
X162718580Y-105854952D02*
X162623342Y-105807333D01*
X162623342Y-105807333D02*
X162385247Y-105807333D01*
X162385247Y-105807333D02*
X162290009Y-105854952D01*
X162290009Y-105854952D02*
X162242390Y-105902571D01*
X162242390Y-105902571D02*
X162194771Y-105997809D01*
X162194771Y-105997809D02*
X162194771Y-106188285D01*
X162194771Y-106188285D02*
X162242390Y-106283523D01*
X162242390Y-106283523D02*
X162290009Y-106331142D01*
X162290009Y-106331142D02*
X162385247Y-106378761D01*
X137779333Y-76509580D02*
X137731714Y-76557200D01*
X137731714Y-76557200D02*
X137588857Y-76604819D01*
X137588857Y-76604819D02*
X137493619Y-76604819D01*
X137493619Y-76604819D02*
X137350762Y-76557200D01*
X137350762Y-76557200D02*
X137255524Y-76461961D01*
X137255524Y-76461961D02*
X137207905Y-76366723D01*
X137207905Y-76366723D02*
X137160286Y-76176247D01*
X137160286Y-76176247D02*
X137160286Y-76033390D01*
X137160286Y-76033390D02*
X137207905Y-75842914D01*
X137207905Y-75842914D02*
X137255524Y-75747676D01*
X137255524Y-75747676D02*
X137350762Y-75652438D01*
X137350762Y-75652438D02*
X137493619Y-75604819D01*
X137493619Y-75604819D02*
X137588857Y-75604819D01*
X137588857Y-75604819D02*
X137731714Y-75652438D01*
X137731714Y-75652438D02*
X137779333Y-75700057D01*
X138112667Y-75604819D02*
X138731714Y-75604819D01*
X138731714Y-75604819D02*
X138398381Y-75985771D01*
X138398381Y-75985771D02*
X138541238Y-75985771D01*
X138541238Y-75985771D02*
X138636476Y-76033390D01*
X138636476Y-76033390D02*
X138684095Y-76081009D01*
X138684095Y-76081009D02*
X138731714Y-76176247D01*
X138731714Y-76176247D02*
X138731714Y-76414342D01*
X138731714Y-76414342D02*
X138684095Y-76509580D01*
X138684095Y-76509580D02*
X138636476Y-76557200D01*
X138636476Y-76557200D02*
X138541238Y-76604819D01*
X138541238Y-76604819D02*
X138255524Y-76604819D01*
X138255524Y-76604819D02*
X138160286Y-76557200D01*
X138160286Y-76557200D02*
X138112667Y-76509580D01*
X134961333Y-84782819D02*
X134628000Y-84306628D01*
X134389905Y-84782819D02*
X134389905Y-83782819D01*
X134389905Y-83782819D02*
X134770857Y-83782819D01*
X134770857Y-83782819D02*
X134866095Y-83830438D01*
X134866095Y-83830438D02*
X134913714Y-83878057D01*
X134913714Y-83878057D02*
X134961333Y-83973295D01*
X134961333Y-83973295D02*
X134961333Y-84116152D01*
X134961333Y-84116152D02*
X134913714Y-84211390D01*
X134913714Y-84211390D02*
X134866095Y-84259009D01*
X134866095Y-84259009D02*
X134770857Y-84306628D01*
X134770857Y-84306628D02*
X134389905Y-84306628D01*
X135866095Y-83782819D02*
X135389905Y-83782819D01*
X135389905Y-83782819D02*
X135342286Y-84259009D01*
X135342286Y-84259009D02*
X135389905Y-84211390D01*
X135389905Y-84211390D02*
X135485143Y-84163771D01*
X135485143Y-84163771D02*
X135723238Y-84163771D01*
X135723238Y-84163771D02*
X135818476Y-84211390D01*
X135818476Y-84211390D02*
X135866095Y-84259009D01*
X135866095Y-84259009D02*
X135913714Y-84354247D01*
X135913714Y-84354247D02*
X135913714Y-84592342D01*
X135913714Y-84592342D02*
X135866095Y-84687580D01*
X135866095Y-84687580D02*
X135818476Y-84735200D01*
X135818476Y-84735200D02*
X135723238Y-84782819D01*
X135723238Y-84782819D02*
X135485143Y-84782819D01*
X135485143Y-84782819D02*
X135389905Y-84735200D01*
X135389905Y-84735200D02*
X135342286Y-84687580D01*
X129672221Y-78170627D02*
X129193991Y-78505388D01*
X129672221Y-78744503D02*
X128667938Y-78744503D01*
X128667938Y-78744503D02*
X128667938Y-78361919D01*
X128667938Y-78361919D02*
X128715761Y-78266273D01*
X128715761Y-78266273D02*
X128763584Y-78218450D01*
X128763584Y-78218450D02*
X128859230Y-78170627D01*
X128859230Y-78170627D02*
X129002699Y-78170627D01*
X129002699Y-78170627D02*
X129098345Y-78218450D01*
X129098345Y-78218450D02*
X129146168Y-78266273D01*
X129146168Y-78266273D02*
X129193991Y-78361919D01*
X129193991Y-78361919D02*
X129193991Y-78744503D01*
X128667938Y-77883689D02*
X129672221Y-77548928D01*
X129672221Y-77548928D02*
X128667938Y-77214167D01*
X129672221Y-76353353D02*
X129672221Y-76927229D01*
X129672221Y-76640291D02*
X128667938Y-76640291D01*
X128667938Y-76640291D02*
X128811407Y-76735937D01*
X128811407Y-76735937D02*
X128907053Y-76831583D01*
X128907053Y-76831583D02*
X128954876Y-76927229D01*
X177852833Y-79911580D02*
X177805214Y-79959200D01*
X177805214Y-79959200D02*
X177662357Y-80006819D01*
X177662357Y-80006819D02*
X177567119Y-80006819D01*
X177567119Y-80006819D02*
X177424262Y-79959200D01*
X177424262Y-79959200D02*
X177329024Y-79863961D01*
X177329024Y-79863961D02*
X177281405Y-79768723D01*
X177281405Y-79768723D02*
X177233786Y-79578247D01*
X177233786Y-79578247D02*
X177233786Y-79435390D01*
X177233786Y-79435390D02*
X177281405Y-79244914D01*
X177281405Y-79244914D02*
X177329024Y-79149676D01*
X177329024Y-79149676D02*
X177424262Y-79054438D01*
X177424262Y-79054438D02*
X177567119Y-79006819D01*
X177567119Y-79006819D02*
X177662357Y-79006819D01*
X177662357Y-79006819D02*
X177805214Y-79054438D01*
X177805214Y-79054438D02*
X177852833Y-79102057D01*
X178757595Y-79006819D02*
X178281405Y-79006819D01*
X178281405Y-79006819D02*
X178233786Y-79483009D01*
X178233786Y-79483009D02*
X178281405Y-79435390D01*
X178281405Y-79435390D02*
X178376643Y-79387771D01*
X178376643Y-79387771D02*
X178614738Y-79387771D01*
X178614738Y-79387771D02*
X178709976Y-79435390D01*
X178709976Y-79435390D02*
X178757595Y-79483009D01*
X178757595Y-79483009D02*
X178805214Y-79578247D01*
X178805214Y-79578247D02*
X178805214Y-79816342D01*
X178805214Y-79816342D02*
X178757595Y-79911580D01*
X178757595Y-79911580D02*
X178709976Y-79959200D01*
X178709976Y-79959200D02*
X178614738Y-80006819D01*
X178614738Y-80006819D02*
X178376643Y-80006819D01*
X178376643Y-80006819D02*
X178281405Y-79959200D01*
X178281405Y-79959200D02*
X178233786Y-79911580D01*
X158084819Y-96956857D02*
X157608628Y-97290190D01*
X158084819Y-97528285D02*
X157084819Y-97528285D01*
X157084819Y-97528285D02*
X157084819Y-97147333D01*
X157084819Y-97147333D02*
X157132438Y-97052095D01*
X157132438Y-97052095D02*
X157180057Y-97004476D01*
X157180057Y-97004476D02*
X157275295Y-96956857D01*
X157275295Y-96956857D02*
X157418152Y-96956857D01*
X157418152Y-96956857D02*
X157513390Y-97004476D01*
X157513390Y-97004476D02*
X157561009Y-97052095D01*
X157561009Y-97052095D02*
X157608628Y-97147333D01*
X157608628Y-97147333D02*
X157608628Y-97528285D01*
X158084819Y-96004476D02*
X158084819Y-96575904D01*
X158084819Y-96290190D02*
X157084819Y-96290190D01*
X157084819Y-96290190D02*
X157227676Y-96385428D01*
X157227676Y-96385428D02*
X157322914Y-96480666D01*
X157322914Y-96480666D02*
X157370533Y-96575904D01*
X157180057Y-95623523D02*
X157132438Y-95575904D01*
X157132438Y-95575904D02*
X157084819Y-95480666D01*
X157084819Y-95480666D02*
X157084819Y-95242571D01*
X157084819Y-95242571D02*
X157132438Y-95147333D01*
X157132438Y-95147333D02*
X157180057Y-95099714D01*
X157180057Y-95099714D02*
X157275295Y-95052095D01*
X157275295Y-95052095D02*
X157370533Y-95052095D01*
X157370533Y-95052095D02*
X157513390Y-95099714D01*
X157513390Y-95099714D02*
X158084819Y-95671142D01*
X158084819Y-95671142D02*
X158084819Y-95052095D01*
X128532095Y-94834819D02*
X129103523Y-94834819D01*
X128817809Y-95834819D02*
X128817809Y-94834819D01*
X129436857Y-95834819D02*
X129436857Y-94834819D01*
X129436857Y-94834819D02*
X129817809Y-94834819D01*
X129817809Y-94834819D02*
X129913047Y-94882438D01*
X129913047Y-94882438D02*
X129960666Y-94930057D01*
X129960666Y-94930057D02*
X130008285Y-95025295D01*
X130008285Y-95025295D02*
X130008285Y-95168152D01*
X130008285Y-95168152D02*
X129960666Y-95263390D01*
X129960666Y-95263390D02*
X129913047Y-95311009D01*
X129913047Y-95311009D02*
X129817809Y-95358628D01*
X129817809Y-95358628D02*
X129436857Y-95358628D01*
X130579714Y-95263390D02*
X130484476Y-95215771D01*
X130484476Y-95215771D02*
X130436857Y-95168152D01*
X130436857Y-95168152D02*
X130389238Y-95072914D01*
X130389238Y-95072914D02*
X130389238Y-95025295D01*
X130389238Y-95025295D02*
X130436857Y-94930057D01*
X130436857Y-94930057D02*
X130484476Y-94882438D01*
X130484476Y-94882438D02*
X130579714Y-94834819D01*
X130579714Y-94834819D02*
X130770190Y-94834819D01*
X130770190Y-94834819D02*
X130865428Y-94882438D01*
X130865428Y-94882438D02*
X130913047Y-94930057D01*
X130913047Y-94930057D02*
X130960666Y-95025295D01*
X130960666Y-95025295D02*
X130960666Y-95072914D01*
X130960666Y-95072914D02*
X130913047Y-95168152D01*
X130913047Y-95168152D02*
X130865428Y-95215771D01*
X130865428Y-95215771D02*
X130770190Y-95263390D01*
X130770190Y-95263390D02*
X130579714Y-95263390D01*
X130579714Y-95263390D02*
X130484476Y-95311009D01*
X130484476Y-95311009D02*
X130436857Y-95358628D01*
X130436857Y-95358628D02*
X130389238Y-95453866D01*
X130389238Y-95453866D02*
X130389238Y-95644342D01*
X130389238Y-95644342D02*
X130436857Y-95739580D01*
X130436857Y-95739580D02*
X130484476Y-95787200D01*
X130484476Y-95787200D02*
X130579714Y-95834819D01*
X130579714Y-95834819D02*
X130770190Y-95834819D01*
X130770190Y-95834819D02*
X130865428Y-95787200D01*
X130865428Y-95787200D02*
X130913047Y-95739580D01*
X130913047Y-95739580D02*
X130960666Y-95644342D01*
X130960666Y-95644342D02*
X130960666Y-95453866D01*
X130960666Y-95453866D02*
X130913047Y-95358628D01*
X130913047Y-95358628D02*
X130865428Y-95311009D01*
X130865428Y-95311009D02*
X130770190Y-95263390D01*
X146630819Y-97210857D02*
X146154628Y-97544190D01*
X146630819Y-97782285D02*
X145630819Y-97782285D01*
X145630819Y-97782285D02*
X145630819Y-97401333D01*
X145630819Y-97401333D02*
X145678438Y-97306095D01*
X145678438Y-97306095D02*
X145726057Y-97258476D01*
X145726057Y-97258476D02*
X145821295Y-97210857D01*
X145821295Y-97210857D02*
X145964152Y-97210857D01*
X145964152Y-97210857D02*
X146059390Y-97258476D01*
X146059390Y-97258476D02*
X146107009Y-97306095D01*
X146107009Y-97306095D02*
X146154628Y-97401333D01*
X146154628Y-97401333D02*
X146154628Y-97782285D01*
X146630819Y-96258476D02*
X146630819Y-96829904D01*
X146630819Y-96544190D02*
X145630819Y-96544190D01*
X145630819Y-96544190D02*
X145773676Y-96639428D01*
X145773676Y-96639428D02*
X145868914Y-96734666D01*
X145868914Y-96734666D02*
X145916533Y-96829904D01*
X145964152Y-95401333D02*
X146630819Y-95401333D01*
X145583200Y-95639428D02*
X146297485Y-95877523D01*
X146297485Y-95877523D02*
X146297485Y-95258476D01*
D11*
X122108000Y-88406000D02*
G75*
G03*
X120208000Y-88406000I-950000J0D01*
G01*
X120208000Y-88406000D02*
G75*
G03*
X122108000Y-88406000I950000J0D01*
G01*
X156715000Y-100404936D02*
X156715000Y-100859064D01*
X155245000Y-100404936D02*
X155245000Y-100859064D01*
X130490000Y-89408000D02*
G75*
G03*
X128590000Y-89408000I-950000J0D01*
G01*
X128590000Y-89408000D02*
G75*
G03*
X130490000Y-89408000I950000J0D01*
G01*
X118058000Y-92456000D02*
G75*
G03*
X116158000Y-92456000I-950000J0D01*
G01*
X116158000Y-92456000D02*
G75*
G03*
X118058000Y-92456000I950000J0D01*
G01*
X166558000Y-106426000D02*
G75*
G03*
X164658000Y-106426000I-950000J0D01*
G01*
X164658000Y-106426000D02*
G75*
G03*
X166558000Y-106426000I950000J0D01*
G01*
X131599000Y-86923252D02*
X131599000Y-86400748D01*
X133069000Y-86923252D02*
X133069000Y-86400748D01*
X123378000Y-103632000D02*
G75*
G03*
X121478000Y-103632000I-950000J0D01*
G01*
X121478000Y-103632000D02*
G75*
G03*
X123378000Y-103632000I950000J0D01*
G01*
X170099500Y-90866000D02*
X170699500Y-90866000D01*
X168899500Y-91416000D02*
X168899500Y-92016000D01*
X171399500Y-91516000D02*
X171399500Y-94316000D01*
X169199500Y-91716000D02*
X168899500Y-91416000D01*
X169199500Y-91716000D02*
X168899500Y-92016000D01*
X169399500Y-94316000D02*
X169399500Y-91516000D01*
X170699500Y-94966000D02*
X170099500Y-94966000D01*
X171399500Y-91566000D02*
G75*
G03*
X170699500Y-90866000I-699999J1D01*
G01*
X170099500Y-90866000D02*
G75*
G03*
X169399500Y-91566000I-1J-699999D01*
G01*
X170699500Y-94966000D02*
G75*
G03*
X171399500Y-94266000I0J700000D01*
G01*
X169399500Y-94266000D02*
G75*
G03*
X170099500Y-94966000I700000J0D01*
G01*
X118044000Y-103378000D02*
G75*
G03*
X116144000Y-103378000I-950000J0D01*
G01*
X116144000Y-103378000D02*
G75*
G03*
X118044000Y-103378000I950000J0D01*
G01*
X128608000Y-82538000D02*
X128608000Y-83868000D01*
X127278000Y-82538000D02*
X128608000Y-82538000D01*
X126008000Y-82538000D02*
X113248000Y-82538000D01*
X126008000Y-82538000D02*
X126008000Y-85198000D01*
X113248000Y-82538000D02*
X113248000Y-85198000D01*
X126008000Y-85198000D02*
X113248000Y-85198000D01*
X137368000Y-78468000D02*
X137968000Y-78468000D01*
X136168000Y-79018000D02*
X136168000Y-79618000D01*
X138668000Y-79118000D02*
X138668000Y-81918000D01*
X136468000Y-79318000D02*
X136168000Y-79018000D01*
X136468000Y-79318000D02*
X136168000Y-79618000D01*
X136668000Y-81918000D02*
X136668000Y-79118000D01*
X137968000Y-82568000D02*
X137368000Y-82568000D01*
X138668000Y-79168000D02*
G75*
G03*
X137968000Y-78468000I-699999J1D01*
G01*
X137368000Y-78468000D02*
G75*
G03*
X136668000Y-79168000I-1J-699999D01*
G01*
X137968000Y-82568000D02*
G75*
G03*
X138668000Y-81868000I0J700000D01*
G01*
X136668000Y-81868000D02*
G75*
G03*
X137368000Y-82568000I700000J0D01*
G01*
X174178000Y-73406000D02*
G75*
G03*
X172278000Y-73406000I-950000J0D01*
G01*
X172278000Y-73406000D02*
G75*
G03*
X174178000Y-73406000I950000J0D01*
G01*
X196315000Y-74448936D02*
X196315000Y-74903064D01*
X194845000Y-74448936D02*
X194845000Y-74903064D01*
X170430000Y-112654000D02*
X170430000Y-97954000D01*
X179630000Y-112654000D02*
X170430000Y-112654000D01*
X179630000Y-103854000D02*
X179630000Y-112654000D01*
X170230000Y-98804000D02*
X170230000Y-97754000D01*
X170430000Y-97954000D02*
X173030000Y-97954000D01*
X176930000Y-97954000D02*
X179630000Y-97954000D01*
X179630000Y-97954000D02*
X179630000Y-99854000D01*
X171280000Y-97754000D02*
X170230000Y-97754000D01*
X190781000Y-84589252D02*
X190781000Y-84066748D01*
X192251000Y-84589252D02*
X192251000Y-84066748D01*
X143190000Y-94488000D02*
G75*
G03*
X141290000Y-94488000I-950000J0D01*
G01*
X141290000Y-94488000D02*
G75*
G03*
X143190000Y-94488000I950000J0D01*
G01*
X138207252Y-72195000D02*
X137684748Y-72195000D01*
X138207252Y-70725000D02*
X137684748Y-70725000D01*
X186370000Y-105918000D02*
G75*
G03*
X184470000Y-105918000I-950000J0D01*
G01*
X184470000Y-105918000D02*
G75*
G03*
X186370000Y-105918000I950000J0D01*
G01*
X198156000Y-78994000D02*
X198156000Y-77319000D01*
X198156000Y-78994000D02*
X198156000Y-79644000D01*
X195036000Y-78994000D02*
X195036000Y-78344000D01*
X195036000Y-78994000D02*
X195036000Y-79644000D01*
X142130000Y-66756000D02*
X142130000Y-73506000D01*
X142130000Y-66756000D02*
X160130000Y-66756000D01*
X142130000Y-91506000D02*
X142130000Y-92256000D01*
X142130000Y-92256000D02*
X143130000Y-92256000D01*
X160130000Y-66756000D02*
X160130000Y-73506000D01*
X160130000Y-72696000D02*
X142130000Y-72696000D01*
X160130000Y-91506000D02*
X160130000Y-92256000D01*
X160130000Y-92256000D02*
X159130000Y-92256000D01*
X164810000Y-70974000D02*
X164810000Y-69644000D01*
X166140000Y-70974000D02*
X164810000Y-70974000D01*
X167410000Y-70974000D02*
X180170000Y-70974000D01*
X167410000Y-70974000D02*
X167410000Y-68314000D01*
X180170000Y-70974000D02*
X180170000Y-68314000D01*
X167410000Y-68314000D02*
X180170000Y-68314000D01*
X187679000Y-74702936D02*
X187679000Y-75157064D01*
X186209000Y-74702936D02*
X186209000Y-75157064D01*
X200887000Y-83846936D02*
X200887000Y-84301064D01*
X199417000Y-83846936D02*
X199417000Y-84301064D01*
X202112000Y-89480000D02*
X202112000Y-95940000D01*
X202082000Y-89480000D02*
X202112000Y-89480000D01*
X200182000Y-89480000D02*
X197582000Y-89480000D01*
X195652000Y-89480000D02*
X195682000Y-89480000D01*
X195652000Y-89480000D02*
X195652000Y-95940000D01*
X202112000Y-95940000D02*
X202082000Y-95940000D01*
X200182000Y-95940000D02*
X197582000Y-95940000D01*
X195652000Y-95940000D02*
X195682000Y-95940000D01*
X164703500Y-88888000D02*
X164703500Y-82878000D01*
X171523500Y-86638000D02*
X171523500Y-82878000D01*
X164703500Y-82878000D02*
X165963500Y-82878000D01*
X171523500Y-82878000D02*
X170263500Y-82878000D01*
X195861000Y-84301064D02*
X195861000Y-83846936D01*
X197331000Y-84301064D02*
X197331000Y-83846936D01*
X193476000Y-89226000D02*
X193476000Y-95686000D01*
X193446000Y-89226000D02*
X193476000Y-89226000D01*
X191546000Y-89226000D02*
X188946000Y-89226000D01*
X187016000Y-89226000D02*
X187046000Y-89226000D01*
X187016000Y-89226000D02*
X187016000Y-95686000D01*
X193476000Y-95686000D02*
X193446000Y-95686000D01*
X191546000Y-95686000D02*
X188946000Y-95686000D01*
X187016000Y-95686000D02*
X187046000Y-95686000D01*
X153840000Y-101596000D02*
X153840000Y-97596000D01*
X153550000Y-102626000D02*
X153550000Y-96606000D01*
X153550000Y-96606000D02*
X148250000Y-96606000D01*
X152970000Y-102626000D02*
X152970000Y-102026000D01*
X152970000Y-102026000D02*
X151370000Y-102026000D01*
X152170000Y-97606000D02*
X151920000Y-98136000D01*
X152170000Y-97606000D02*
X149630000Y-97606000D01*
X152170000Y-96606000D02*
X152170000Y-97606000D01*
X151920000Y-98136000D02*
X149880000Y-98136000D01*
X151920000Y-96606000D02*
X151920000Y-97606000D01*
X151370000Y-102026000D02*
X151370000Y-102626000D01*
X150430000Y-102626000D02*
X150430000Y-102026000D01*
X150430000Y-102026000D02*
X148830000Y-102026000D01*
X149880000Y-98136000D02*
X149630000Y-97606000D01*
X149880000Y-96606000D02*
X149880000Y-97606000D01*
X149630000Y-97606000D02*
X149630000Y-96606000D01*
X148830000Y-102026000D02*
X148830000Y-102626000D01*
X148250000Y-102626000D02*
X153550000Y-102626000D01*
X148250000Y-96606000D02*
X148250000Y-102626000D01*
X133831000Y-97274748D02*
X133831000Y-97797252D01*
X132361000Y-97274748D02*
X132361000Y-97797252D01*
X177734000Y-73406000D02*
G75*
G03*
X175834000Y-73406000I-950000J0D01*
G01*
X175834000Y-73406000D02*
G75*
G03*
X177734000Y-73406000I950000J0D01*
G01*
X140459000Y-93004748D02*
X140459000Y-93527252D01*
X138989000Y-93004748D02*
X138989000Y-93527252D01*
X128608000Y-67298000D02*
X128608000Y-68628000D01*
X127278000Y-67298000D02*
X128608000Y-67298000D01*
X126008000Y-67298000D02*
X113248000Y-67298000D01*
X126008000Y-67298000D02*
X126008000Y-69958000D01*
X113248000Y-67298000D02*
X113248000Y-69958000D01*
X126008000Y-69958000D02*
X113248000Y-69958000D01*
X201957000Y-84335252D02*
X201957000Y-83812748D01*
X203427000Y-84335252D02*
X203427000Y-83812748D01*
X167891000Y-95832936D02*
X167891000Y-96287064D01*
X166421000Y-95832936D02*
X166421000Y-96287064D01*
X161350000Y-110430000D02*
X161350000Y-111760000D01*
X160020000Y-110430000D02*
X161350000Y-110430000D01*
X158750000Y-110430000D02*
X140910000Y-110430000D01*
X158750000Y-110430000D02*
X158750000Y-113090000D01*
X140910000Y-110430000D02*
X140910000Y-113090000D01*
X158750000Y-113090000D02*
X140910000Y-113090000D01*
X187225000Y-84555064D02*
X187225000Y-84100936D01*
X188695000Y-84555064D02*
X188695000Y-84100936D01*
X189586000Y-79169500D02*
X189586000Y-77494500D01*
X189586000Y-79169500D02*
X189586000Y-79819500D01*
X186466000Y-79169500D02*
X186466000Y-78519500D01*
X186466000Y-79169500D02*
X186466000Y-79819500D01*
X194818000Y-68266000D02*
X184598000Y-68266000D01*
X194818000Y-68266000D02*
X194818000Y-70926000D01*
X184598000Y-68266000D02*
X184598000Y-70926000D01*
X197418000Y-69596000D02*
X197418000Y-70926000D01*
X197418000Y-70926000D02*
X196088000Y-70926000D01*
X194818000Y-70926000D02*
X184598000Y-70926000D01*
X167891000Y-100404936D02*
X167891000Y-100859064D01*
X166421000Y-100404936D02*
X166421000Y-100859064D01*
X184431000Y-89635064D02*
X184431000Y-89180936D01*
X185901000Y-89635064D02*
X185901000Y-89180936D01*
X145261000Y-100404936D02*
X145261000Y-100859064D01*
X143791000Y-100404936D02*
X143791000Y-100859064D01*
X164762000Y-101616000D02*
X164762000Y-97616000D01*
X164472000Y-102646000D02*
X164472000Y-96626000D01*
X164472000Y-96626000D02*
X159172000Y-96626000D01*
X163892000Y-102646000D02*
X163892000Y-102046000D01*
X163892000Y-102046000D02*
X162292000Y-102046000D01*
X163092000Y-97626000D02*
X162842000Y-98156000D01*
X163092000Y-97626000D02*
X160552000Y-97626000D01*
X163092000Y-96626000D02*
X163092000Y-97626000D01*
X162842000Y-98156000D02*
X160802000Y-98156000D01*
X162842000Y-96626000D02*
X162842000Y-97626000D01*
X162292000Y-102046000D02*
X162292000Y-102646000D01*
X161352000Y-102646000D02*
X161352000Y-102046000D01*
X161352000Y-102046000D02*
X159752000Y-102046000D01*
X160802000Y-98156000D02*
X160552000Y-97626000D01*
X160802000Y-96626000D02*
X160802000Y-97626000D01*
X160552000Y-97626000D02*
X160552000Y-96626000D01*
X159752000Y-102046000D02*
X159752000Y-102646000D01*
X159172000Y-102646000D02*
X164472000Y-102646000D01*
X159172000Y-96626000D02*
X159172000Y-102646000D01*
X122870000Y-73914000D02*
G75*
G03*
X120970000Y-73914000I-950000J0D01*
G01*
X120970000Y-73914000D02*
G75*
G03*
X122870000Y-73914000I950000J0D01*
G01*
X142156000Y-101596000D02*
X142156000Y-97596000D01*
X141866000Y-102626000D02*
X141866000Y-96606000D01*
X141866000Y-96606000D02*
X136566000Y-96606000D01*
X141286000Y-102626000D02*
X141286000Y-102026000D01*
X141286000Y-102026000D02*
X139686000Y-102026000D01*
X140486000Y-97606000D02*
X140236000Y-98136000D01*
X140486000Y-97606000D02*
X137946000Y-97606000D01*
X140486000Y-96606000D02*
X140486000Y-97606000D01*
X140236000Y-98136000D02*
X138196000Y-98136000D01*
X140236000Y-96606000D02*
X140236000Y-97606000D01*
X139686000Y-102026000D02*
X139686000Y-102626000D01*
X138746000Y-102626000D02*
X138746000Y-102026000D01*
X138746000Y-102026000D02*
X137146000Y-102026000D01*
X138196000Y-98136000D02*
X137946000Y-97606000D01*
X138196000Y-96606000D02*
X138196000Y-97606000D01*
X137946000Y-97606000D02*
X137946000Y-96606000D01*
X137146000Y-102026000D02*
X137146000Y-102626000D01*
X136566000Y-102626000D02*
X141866000Y-102626000D01*
X136566000Y-96606000D02*
X136566000Y-102626000D01*
X186370000Y-101854000D02*
G75*
G03*
X184470000Y-101854000I-950000J0D01*
G01*
X184470000Y-101854000D02*
G75*
G03*
X186370000Y-101854000I950000J0D01*
G01*
X185901000Y-93752936D02*
X185901000Y-94207064D01*
X184431000Y-93752936D02*
X184431000Y-94207064D01*
X122108000Y-92456000D02*
G75*
G03*
X120208000Y-92456000I-950000J0D01*
G01*
X120208000Y-92456000D02*
G75*
G03*
X122108000Y-92456000I950000J0D01*
G01*
X179003500Y-82864000D02*
X175003500Y-82864000D01*
X180033500Y-83154000D02*
X174013500Y-83154000D01*
X174013500Y-83154000D02*
X174013500Y-88454000D01*
X180033500Y-83734000D02*
X179433500Y-83734000D01*
X179433500Y-83734000D02*
X179433500Y-85334000D01*
X175013500Y-84534000D02*
X175543500Y-84784000D01*
X175013500Y-84534000D02*
X175013500Y-87074000D01*
X174013500Y-84534000D02*
X175013500Y-84534000D01*
X175543500Y-84784000D02*
X175543500Y-86824000D01*
X174013500Y-84784000D02*
X175013500Y-84784000D01*
X179433500Y-85334000D02*
X180033500Y-85334000D01*
X180033500Y-86274000D02*
X179433500Y-86274000D01*
X179433500Y-86274000D02*
X179433500Y-87874000D01*
X175543500Y-86824000D02*
X175013500Y-87074000D01*
X174013500Y-86824000D02*
X175013500Y-86824000D01*
X175013500Y-87074000D02*
X174013500Y-87074000D01*
X179433500Y-87874000D02*
X180033500Y-87874000D01*
X180033500Y-88454000D02*
X180033500Y-83154000D01*
X174013500Y-88454000D02*
X180033500Y-88454000D01*
D10*
X130201000Y-90879000D02*
X130201000Y-91004000D01*
X130201000Y-90879000D02*
X133451000Y-90879000D01*
X130201000Y-91004000D02*
X129126000Y-91004000D01*
X130201000Y-94129000D02*
X130201000Y-93904000D01*
X130201000Y-94129000D02*
X133451000Y-94129000D01*
X133451000Y-90879000D02*
X133451000Y-91104000D01*
X133451000Y-94129000D02*
X133451000Y-93904000D01*
D11*
X118044000Y-99328000D02*
G75*
G03*
X116144000Y-99328000I-950000J0D01*
G01*
X116144000Y-99328000D02*
G75*
G03*
X118044000Y-99328000I950000J0D01*
G01*
X178983500Y-89976000D02*
X174983500Y-89976000D01*
X180013500Y-90266000D02*
X173993500Y-90266000D01*
X173993500Y-90266000D02*
X173993500Y-95566000D01*
X180013500Y-90846000D02*
X179413500Y-90846000D01*
X179413500Y-90846000D02*
X179413500Y-92446000D01*
X174993500Y-91646000D02*
X175523500Y-91896000D01*
X174993500Y-91646000D02*
X174993500Y-94186000D01*
X173993500Y-91646000D02*
X174993500Y-91646000D01*
X175523500Y-91896000D02*
X175523500Y-93936000D01*
X173993500Y-91896000D02*
X174993500Y-91896000D01*
X179413500Y-92446000D02*
X180013500Y-92446000D01*
X180013500Y-93386000D02*
X179413500Y-93386000D01*
X179413500Y-93386000D02*
X179413500Y-94986000D01*
X175523500Y-93936000D02*
X174993500Y-94186000D01*
X173993500Y-93936000D02*
X174993500Y-93936000D01*
X174993500Y-94186000D02*
X173993500Y-94186000D01*
X179413500Y-94986000D02*
X180013500Y-94986000D01*
X180013500Y-95566000D02*
X180013500Y-90266000D01*
X173993500Y-95566000D02*
X180013500Y-95566000D01*
X168802248Y-77957000D02*
X169324752Y-77957000D01*
X168802248Y-79427000D02*
X169324752Y-79427000D01*
X123378000Y-99300000D02*
G75*
G03*
X121478000Y-99300000I-950000J0D01*
G01*
X121478000Y-99300000D02*
G75*
G03*
X123378000Y-99300000I950000J0D01*
G01*
X161359000Y-105144000D02*
X161359000Y-106474000D01*
X160029000Y-105144000D02*
X161359000Y-105144000D01*
X158759000Y-105144000D02*
X140919000Y-105144000D01*
X158759000Y-105144000D02*
X158759000Y-107804000D01*
X140919000Y-105144000D02*
X140919000Y-107804000D01*
X158759000Y-107804000D02*
X140919000Y-107804000D01*
X138207252Y-75205000D02*
X137684748Y-75205000D01*
X138207252Y-73735000D02*
X137684748Y-73735000D01*
X135863000Y-86386936D02*
X135863000Y-86841064D01*
X134393000Y-86386936D02*
X134393000Y-86841064D01*
D12*
X130446000Y-80505000D02*
X130446000Y-70975000D01*
X135276000Y-80505000D02*
X130446000Y-80505000D01*
X130446000Y-70975000D02*
X135276000Y-70975000D01*
X135276000Y-70975000D02*
X135276000Y-80505000D01*
D13*
X132966000Y-80990000D02*
G75*
G03*
X132766000Y-80990000I-100000J0D01*
G01*
X132766000Y-80990000D02*
G75*
G03*
X132966000Y-80990000I100000J0D01*
G01*
D11*
X177758248Y-80497000D02*
X178280752Y-80497000D01*
X177758248Y-81967000D02*
X178280752Y-81967000D01*
X156715000Y-96086936D02*
X156715000Y-96541064D01*
X155245000Y-96086936D02*
X155245000Y-96541064D01*
X130744000Y-97028000D02*
G75*
G03*
X128844000Y-97028000I-950000J0D01*
G01*
X128844000Y-97028000D02*
G75*
G03*
X130744000Y-97028000I950000J0D01*
G01*
X145261000Y-96340936D02*
X145261000Y-96795064D01*
X143791000Y-96340936D02*
X143791000Y-96795064D01*
M02*
