G04 #@! TF.GenerationSoftware,KiCad,Pcbnew,7.0.10*
G04 #@! TF.CreationDate,2024-03-04T21:29:39-06:00*
G04 #@! TF.ProjectId,JargonJolt,4a617267-6f6e-44a6-9f6c-742e6b696361,rev?*
G04 #@! TF.SameCoordinates,Original*
G04 #@! TF.FileFunction,Soldermask,Bot*
G04 #@! TF.FilePolarity,Negative*
%FSLAX46Y46*%
G04 Gerber Fmt 4.6, Leading zero omitted, Abs format (unit mm)*
G04 Created by KiCad (PCBNEW 7.0.10) date 2024-03-04 21:29:39*
%MOMM*%
%LPD*%
G01*
G04 APERTURE LIST*
G04 Aperture macros list*
%AMRoundRect*
0 Rectangle with rounded corners*
0 $1 Rounding radius*
0 $2 $3 $4 $5 $6 $7 $8 $9 X,Y pos of 4 corners*
0 Add a 4 corners polygon primitive as box body*
4,1,4,$2,$3,$4,$5,$6,$7,$8,$9,$2,$3,0*
0 Add four circle primitives for the rounded corners*
1,1,$1+$1,$2,$3*
1,1,$1+$1,$4,$5*
1,1,$1+$1,$6,$7*
1,1,$1+$1,$8,$9*
0 Add four rect primitives between the rounded corners*
20,1,$1+$1,$2,$3,$4,$5,0*
20,1,$1+$1,$4,$5,$6,$7,0*
20,1,$1+$1,$6,$7,$8,$9,0*
20,1,$1+$1,$8,$9,$2,$3,0*%
G04 Aperture macros list end*
%ADD10C,2.200000*%
%ADD11R,1.700000X1.700000*%
%ADD12O,1.700000X1.700000*%
%ADD13R,3.500000X3.500000*%
%ADD14RoundRect,0.750000X1.000000X-0.750000X1.000000X0.750000X-1.000000X0.750000X-1.000000X-0.750000X0*%
%ADD15RoundRect,0.875000X0.875000X-0.875000X0.875000X0.875000X-0.875000X0.875000X-0.875000X-0.875000X0*%
%ADD16RoundRect,0.250000X0.620000X0.845000X-0.620000X0.845000X-0.620000X-0.845000X0.620000X-0.845000X0*%
%ADD17O,1.740000X2.190000*%
%ADD18RoundRect,0.250000X-0.845000X0.620000X-0.845000X-0.620000X0.845000X-0.620000X0.845000X0.620000X0*%
%ADD19O,2.190000X1.740000*%
%ADD20RoundRect,0.102000X0.609000X-0.609000X0.609000X0.609000X-0.609000X0.609000X-0.609000X-0.609000X0*%
%ADD21C,1.422000*%
G04 APERTURE END LIST*
D10*
X115824000Y-110490000D03*
D11*
X127278000Y-83868000D03*
D12*
X124738000Y-83868000D03*
X122198000Y-83868000D03*
X119658000Y-83868000D03*
X117118000Y-83868000D03*
X114578000Y-83868000D03*
D13*
X175030000Y-98854000D03*
D14*
X175030000Y-104854000D03*
D15*
X179730000Y-101854000D03*
D10*
X204216000Y-70104000D03*
D11*
X166140000Y-69644000D03*
D12*
X168680000Y-69644000D03*
X171220000Y-69644000D03*
X173760000Y-69644000D03*
X176300000Y-69644000D03*
X178840000Y-69644000D03*
D16*
X152170000Y-99596000D03*
D17*
X149630000Y-99596000D03*
D11*
X127278000Y-68628000D03*
D12*
X124738000Y-68628000D03*
X122198000Y-68628000D03*
X119658000Y-68628000D03*
X117118000Y-68628000D03*
X114578000Y-68628000D03*
D11*
X160020000Y-111760000D03*
D12*
X157480000Y-111760000D03*
X154940000Y-111760000D03*
X152400000Y-111760000D03*
X149860000Y-111760000D03*
X147320000Y-111760000D03*
X144780000Y-111760000D03*
X142240000Y-111760000D03*
D11*
X196088000Y-69596000D03*
D12*
X193548000Y-69596000D03*
X191008000Y-69596000D03*
X188468000Y-69596000D03*
X185928000Y-69596000D03*
D16*
X163092000Y-99616000D03*
D17*
X160552000Y-99616000D03*
D10*
X204216000Y-110490000D03*
D16*
X140486000Y-99596000D03*
D17*
X137946000Y-99596000D03*
D18*
X177003500Y-84534000D03*
D19*
X177003500Y-87074000D03*
D18*
X176983500Y-91646000D03*
D19*
X176983500Y-94186000D03*
D11*
X160029000Y-106474000D03*
D12*
X157489000Y-106474000D03*
X154949000Y-106474000D03*
X152409000Y-106474000D03*
X149869000Y-106474000D03*
X147329000Y-106474000D03*
X144789000Y-106474000D03*
X142249000Y-106474000D03*
D20*
X132866000Y-78280000D03*
D21*
X132866000Y-75740000D03*
X132866000Y-73200000D03*
M02*
